<?xml version="1.0" encoding="utf-8"?>
<!-- Generator: Adobe Illustrator 25.2.1, SVG Export Plug-In . SVG Version: 6.00 Build 0)  -->
<svg version="1.1" id="Layer_1" xmlns="http://www.w3.org/2000/svg" xmlns:xlink="http://www.w3.org/1999/xlink" x="0px" y="0px"
	 viewBox="0 0 1440 1744" style="enable-background:new 0 0 1440 1744;" xml:space="preserve">
<style type="text/css">
	.st0{opacity:0.5;fill:url(#Vector_1_);enable-background:new    ;}
	.st1{opacity:0.4;fill:url(#Vector_2_1_);fill-opacity:0.6;enable-background:new    ;}
	.st2{fill:url(#Vector_3_1_);fill-opacity:0.2;}
	.st3{opacity:0.2;fill:url(#Vector_4_1_);enable-background:new    ;}
	.st4{fill:url(#Vector_5_1_);fill-opacity:0.5;}
	.st5{opacity:0.7;fill:url(#Vector_6_1_);enable-background:new    ;}
	.st6{fill:url(#Vector_7_1_);fill-opacity:0.6;}
	.st7{fill:none;stroke:#F8F0E4;stroke-width:2.1759;stroke-miterlimit:10;}
</style>
<g id="bg-header">
	
		<linearGradient id="Vector_1_" gradientUnits="userSpaceOnUse" x1="1894.9691" y1="921.2446" x2="1241.6176" y2="1339.1661" gradientTransform="matrix(1 0 0 -1 0 1744)">
		<stop  offset="0" style="stop-color:#C0FFF4"/>
		<stop  offset="1" style="stop-color:#222222"/>
	</linearGradient>
	<path id="Vector" class="st0" d="M1895,822.8c115.4-180.4,62.7-420.2-117.7-535.6c-180.4-115.4-420.2-62.7-535.6,117.7
		c-115.4,180.4-62.7,420.2,117.7,535.6C1539.8,1055.9,1779.6,1003.2,1895,822.8z"/>
	
		<linearGradient id="Vector_2_1_" gradientUnits="userSpaceOnUse" x1="1127.5203" y1="1355.5812" x2="1314.2705" y2="1405.6213" gradientTransform="matrix(1 0 0 -1 0 1744)">
		<stop  offset="0" style="stop-color:#C0FFF4"/>
		<stop  offset="1" style="stop-color:#222222"/>
	</linearGradient>
	<path id="Vector_2" class="st1" d="M1127.5,388.4c13.8,51.6,66.8,82.2,118.4,68.4c51.6-13.8,82.2-66.8,68.3-118.4
		c-13.8-51.6-66.8-82.2-118.4-68.4C1144.3,283.8,1113.7,336.8,1127.5,388.4z"/>
	
		<linearGradient id="Vector_3_1_" gradientUnits="userSpaceOnUse" x1="1032.5" y1="411.5" x2="1505.5" y2="411.5" gradientTransform="matrix(1 0 0 -1 0 1744)">
		<stop  offset="0" style="stop-color:#E12179"/>
		<stop  offset="1" style="stop-color:#222222"/>
	</linearGradient>
	<path id="Vector_3" class="st2" d="M1269,1569c130.6,0,236.5-105.9,236.5-236.5S1399.6,1096,1269,1096s-236.5,105.9-236.5,236.5
		S1138.4,1569,1269,1569z"/>
	
		<linearGradient id="Vector_4_1_" gradientUnits="userSpaceOnUse" x1="-183.271" y1="310.75" x2="433.22" y2="308.3" gradientTransform="matrix(1 0 0 -1 0 1744)">
		<stop  offset="0" style="stop-color:#C0FFF4"/>
		<stop  offset="1" style="stop-color:#222222"/>
	</linearGradient>
	<path id="Vector_4" class="st3" d="M-183.3,1433.2c-0.7,170.2,136.8,308.8,307,309.5c170.2,0.7,308.8-136.8,309.5-307
		c0.7-170.2-136.8-308.8-307-309.5C-44,1125.6-182.6,1263-183.3,1433.2z"/>
	
		<linearGradient id="Vector_5_1_" gradientUnits="userSpaceOnUse" x1="-276.708" y1="598.42" x2="-276.708" y2="1374" gradientTransform="matrix(1 0 0 -1 0 1744)">
		<stop  offset="0" style="stop-color:#E12179"/>
		<stop  offset="1" style="stop-color:#222222"/>
	</linearGradient>
	<path id="Vector_5" class="st4" d="M-276.7,1145.6c214.2,0,387.8-173.6,387.8-387.8S-62.5,370-276.7,370s-387.8,173.6-387.8,387.8
		S-490.9,1145.6-276.7,1145.6z"/>
	
		<linearGradient id="Vector_6_1_" gradientUnits="userSpaceOnUse" x1="-73.5185" y1="1220.037" x2="-73.5185" y2="1744" gradientTransform="matrix(1 0 0 -1 0 1744)">
		<stop  offset="0" style="stop-color:#E12179"/>
		<stop  offset="1" style="stop-color:#222222"/>
	</linearGradient>
	<path id="Vector_6" class="st5" d="M-73.5,524c144.7,0,262-117.3,262-262c0-144.7-117.3-262-262-262c-144.7,0-262,117.3-262,262
		C-335.5,406.7-218.2,524-73.5,524z"/>
	
		<linearGradient id="Vector_7_1_" gradientUnits="userSpaceOnUse" x1="53.251" y1="1106.7479" x2="100.752" y2="1154.249" gradientTransform="matrix(1 0 0 -1 0 1744)">
		<stop  offset="0" style="stop-color:#C0FFF4"/>
		<stop  offset="1" style="stop-color:#222222"/>
	</linearGradient>
	<path id="Vector_7" class="st6" d="M53.3,589.8c-13.1,13.1-13.1,34.4,0,47.5c13.1,13.1,34.4,13.1,47.5,0s13.1-34.4,0-47.5
		C87.6,576.6,66.4,576.6,53.3,589.8z"/>
	<path id="Vector_8" class="st7" d="M1601.7,787.6c214.2,0,387.8-173.6,387.8-387.8S1815.9,12.1,1601.7,12.1
		s-387.8,173.6-387.8,387.8S1387.5,787.6,1601.7,787.6z"/>
</g>
</svg>
