<svg width="2769" height="1744" viewBox="0 0 2769 1744" fill="none" xmlns="http://www.w3.org/2000/svg">
<g id="bg-header">
<path id="Vector" opacity="0.5" d="M2559.47 822.754C2674.88 642.336 2622.17 402.522 2441.75 287.116C2261.34 171.709 2021.52 224.412 1906.12 404.83C1790.71 585.249 1843.41 825.062 2023.83 940.469C2204.25 1055.88 2444.06 1003.17 2559.47 822.754Z" fill="url(#paint0_linear)"/>
<path id="Vector_2" opacity="0.4" d="M1792.02 388.418C1805.84 439.989 1858.85 470.593 1910.42 456.775C1961.99 442.957 1992.59 389.948 1978.77 338.377C1964.96 286.806 1911.95 256.202 1860.38 270.02C1808.81 283.839 1778.2 336.847 1792.02 388.418Z" fill="url(#paint1_linear)" fill-opacity="0.6"/>
<path id="Vector_3" d="M1933.5 1569C2064.12 1569 2170 1463.12 2170 1332.5C2170 1201.88 2064.12 1096 1933.5 1096C1802.88 1096 1697 1201.88 1697 1332.5C1697 1463.12 1802.88 1569 1933.5 1569Z" fill="url(#paint2_linear)" fill-opacity="0.2"/>
<path id="Vector_4" opacity="0.2" d="M481.229 1433.25C480.55 1603.49 618.007 1742.04 788.247 1742.72C958.487 1743.4 1097.04 1605.95 1097.72 1435.71C1098.4 1265.46 960.945 1126.91 790.705 1126.23C620.465 1125.55 481.908 1263.01 481.229 1433.25Z" fill="url(#paint3_linear)"/>
<path id="Vector_5" d="M387.792 1145.58C601.964 1145.58 775.584 971.964 775.584 757.792C775.584 543.62 601.964 370 387.792 370C173.62 370 0 543.62 0 757.792C0 971.964 173.62 1145.58 387.792 1145.58Z" fill="url(#paint4_linear)" fill-opacity="0.5"/>
<path id="Vector_6" opacity="0.7" d="M590.982 523.963C735.67 523.963 852.963 406.67 852.963 261.982C852.963 117.293 735.67 0 590.982 0C446.293 0 329 117.293 329 261.982C329 406.67 446.293 523.963 590.982 523.963Z" fill="url(#paint5_linear)"/>
<path id="Vector_7" d="M717.751 589.751C704.634 602.868 704.633 624.135 717.751 637.252C730.868 650.369 752.135 650.369 765.252 637.252C778.369 624.135 778.369 602.868 765.252 589.751C752.135 576.633 730.868 576.634 717.751 589.751Z" fill="url(#paint6_linear)" fill-opacity="0.6"/>
<path id="Vector_8" d="M2266.21 787.646C2480.38 787.646 2654 614.026 2654 399.854C2654 185.682 2480.38 12.062 2266.21 12.062C2052.04 12.062 1878.42 185.682 1878.42 399.854C1878.42 614.026 2052.04 787.646 2266.21 787.646Z" stroke="#F8F0E4" stroke-width="2.17587" stroke-miterlimit="10"/>
</g>
<defs>
<linearGradient id="paint0_linear" x1="2559.47" y1="822.755" x2="1906.13" y2="404.841" gradientUnits="userSpaceOnUse">
<stop stop-color="#C0FFF4"/>
<stop offset="1" stop-color="#222222"/>
</linearGradient>
<linearGradient id="paint1_linear" x1="1792.02" y1="388.417" x2="1978.77" y2="338.377" gradientUnits="userSpaceOnUse">
<stop stop-color="#C0FFF4"/>
<stop offset="1" stop-color="#222222"/>
</linearGradient>
<linearGradient id="paint2_linear" x1="1697" y1="1332.49" x2="2170.01" y2="1332.49" gradientUnits="userSpaceOnUse">
<stop stop-color="#E12179"/>
<stop offset="1" stop-color="#222222"/>
</linearGradient>
<linearGradient id="paint3_linear" x1="481.229" y1="1433.25" x2="1097.71" y2="1435.7" gradientUnits="userSpaceOnUse">
<stop stop-color="#C0FFF4"/>
<stop offset="1" stop-color="#222222"/>
</linearGradient>
<linearGradient id="paint4_linear" x1="387.782" y1="1145.57" x2="387.782" y2="370.01" gradientUnits="userSpaceOnUse">
<stop stop-color="#E12179"/>
<stop offset="1" stop-color="#222222"/>
</linearGradient>
<linearGradient id="paint5_linear" x1="590.972" y1="523.959" x2="590.972" y2="-0.0148348" gradientUnits="userSpaceOnUse">
<stop stop-color="#E12179"/>
<stop offset="1" stop-color="#222222"/>
</linearGradient>
<linearGradient id="paint6_linear" x1="717.757" y1="637.26" x2="765.255" y2="589.762" gradientUnits="userSpaceOnUse">
<stop stop-color="#C0FFF4"/>
<stop offset="1" stop-color="#222222"/>
</linearGradient>
</defs>
</svg>
