<?xml version="1.0" encoding="utf-8"?>
<!-- Generator: Adobe Illustrator 25.2.1, SVG Export Plug-In . SVG Version: 6.00 Build 0)  -->
<svg version="1.1" id="Layer_1" xmlns="http://www.w3.org/2000/svg" xmlns:xlink="http://www.w3.org/1999/xlink" x="0px" y="0px"
	 viewBox="0 0 1440 700" style="enable-background:new 0 0 1440 700;" xml:space="preserve">
<style type="text/css">
	.at0{fill:#222222;}
	.at1{opacity:0.5;fill:url(#SVGID_1_);enable-background:new    ;}
	.at2{opacity:0.4;fill:url(#SVGID_2_);fill-opacity:0.6;enable-background:new    ;}
	.at3{fill:url(#SVGID_3_);fill-opacity:0.2;}
	.at4{fill:url(#SVGID_4_);fill-opacity:0.5;}
	.at5{opacity:0.7;fill:url(#SVGID_5_);enable-background:new    ;}
	.at6{fill:url(#SVGID_6_);fill-opacity:0.6;}
	.at7{fill:none;stroke:#F8F0E4;stroke-width:2.1759;stroke-miterlimit:10;}
	.at8{fill:#FFFFFF;}
	.at9{font-family:'PlayfairDisplay-Black';}
	.at10{font-size:60px;}
	.at11{fill:none;}
	.at12{opacity:0.9;}
	.at13{font-family:'PlayfairDisplay-Regular';}
	.at14{font-size:20px;}
	.at15{font-family:'PlayfairDisplay-Bold';}
	.at16{fill:none;stroke:#FFFFFF;stroke-miterlimit:10;}
	.at17{opacity:0.4;fill:url(#SVGID_7_);fill-opacity:0.6;enable-background:new    ;}
</style>
<rect x="-86.7" y="-153.6" class="at0" width="1751.6" height="1109.4"/>
<linearGradient id="SVGID_1_" gradientUnits="userSpaceOnUse" x1="1714.9823" y1="841.2833" x2="1143.7266" y2="1206.6914" gradientTransform="matrix(1 0 0 -1 0 1192.3082)">
	<stop  offset="0" style="stop-color:#C0FFF4"/>
	<stop  offset="1" style="stop-color:#222222"/>
</linearGradient>
<path class="at1" d="M1715,351c100.9-157.7,54.8-367.4-102.9-468.3c-157.7-100.9-367.4-54.8-468.3,102.9
	c-100.9,157.7-54.8,367.4,102.9,468.3C1404.4,554.9,1614.1,508.8,1715,351z"/>
<linearGradient id="SVGID_2_" gradientUnits="userSpaceOnUse" x1="967.107" y1="1186.2021" x2="1130.3915" y2="1229.9542" gradientTransform="matrix(1 0 0 -1 0 1192.3082)">
	<stop  offset="0" style="stop-color:#C0FFF4"/>
	<stop  offset="1" style="stop-color:#222222"/>
</linearGradient>
<path class="at2" d="M967.1,6.1c12.1,45.1,58.4,71.8,103.5,59.8c45.1-12.1,71.8-58.4,59.8-103.5c-12.1-45.1-58.4-71.8-103.5-59.8
	C981.8-85.3,955-39,967.1,6.1z"/>
<linearGradient id="SVGID_3_" gradientUnits="userSpaceOnUse" x1="1182.871" y1="660.352" x2="1495.4568" y2="660.352" gradientTransform="matrix(1 0 0 -1 0 1192.3082)">
	<stop  offset="0" style="stop-color:#E12179"/>
	<stop  offset="1" style="stop-color:#222222"/>
</linearGradient>
<path class="at3" d="M1339.2,688.2c86.3,0,156.3-70,156.3-156.3c0-86.3-70-156.3-156.3-156.3c-86.3,0-156.3,70-156.3,156.3
	C1182.9,618.3,1252.8,688.2,1339.2,688.2z"/>
<linearGradient id="SVGID_4_" gradientUnits="userSpaceOnUse" x1="-57.5737" y1="549.1971" x2="-57.5737" y2="1227.3263" gradientTransform="matrix(1 0 0 -1 0 1192.3082)">
	<stop  offset="0" style="stop-color:#E12179"/>
	<stop  offset="1" style="stop-color:#222222"/>
</linearGradient>
<path class="at4" d="M-57.6,643.1c187.3,0,339.1-151.8,339.1-339.1S129.7-35-57.6-35S-396.6,116.8-396.6,304
	S-244.8,643.1-57.6,643.1z"/>
<linearGradient id="SVGID_5_" gradientUnits="userSpaceOnUse" x1="237.8243" y1="1054.4438" x2="237.8243" y2="1512.5691" gradientTransform="matrix(1 0 0 -1 0 1192.3082)">
	<stop  offset="0" style="stop-color:#E12179"/>
	<stop  offset="1" style="stop-color:#222222"/>
</linearGradient>
<path class="at5" d="M237.8,137.9c126.5,0,229.1-102.6,229.1-229.1c0-126.5-102.6-229.1-229.1-229.1C111.3-320.3,8.8-217.7,8.8-91.2
	C8.8,35.3,111.3,137.9,237.8,137.9z"/>
<linearGradient id="SVGID_6_" gradientUnits="userSpaceOnUse" x1="236.8118" y1="953.9182" x2="278.3441" y2="995.4506" gradientTransform="matrix(1 0 0 -1 0 1192.3082)">
	<stop  offset="0" style="stop-color:#C0FFF4"/>
	<stop  offset="1" style="stop-color:#222222"/>
</linearGradient>
<path class="at6" d="M236.8,196.9c-11.5,11.5-11.5,30.1,0,41.5c11.5,11.5,30.1,11.5,41.5,0c11.5-11.5,11.5-30.1,0-41.5
	C266.9,185.4,248.3,185.4,236.8,196.9z"/>
<path class="at7" d="M1453.8,377.2c187.3,0,339.1-151.8,339.1-339.1c0-187.3-151.8-339.1-339.1-339.1
	c-187.3,0-339.1,151.8-339.1,339.1C1114.8,225.4,1266.6,377.2,1453.8,377.2z"/>
<text transform="matrix(1 0 0 1 492.2642 391.811)"><tspan x="0" y="0" class="at8 at9 at10">Into the mind of</tspan><tspan x="-49.8" y="72" class="at8 at9 at10">Friedrich Nietzsche</tspan></text>
<rect x="496.6" y="507.7" class="at11" width="442.3" height="185.4"/>
<text transform="matrix(1 0 0 1 498.1638 523.3989)" class="at12"><tspan x="0" y="0" class="at8 at13 at14">A visual exploration of the German philosopher’s </tspan><tspan x="4.5" y="24" class="at8 at15 at14">posthumous fragments </tspan><tspan x="223" y="24" class="at8 at13 at14">and how they reveal his </tspan><tspan x="26.3" y="48" class="at8 at13 at14">changing opinions towards </tspan><tspan x="274.4" y="48" class="at8 at15 at14">Schopenhauer</tspan><tspan x="407.9" y="48" class="at8 at13 at14">.</tspan></text>
<g>
	<g>
		<line class="at16" x1="717.8" y1="611.6" x2="717.7" y2="640.3"/>
		<g>
			<polygon class="at8" points="711.6,635.3 712.7,634.3 717.7,639.7 722.8,634.3 723.9,635.3 717.7,641.9 			"/>
		</g>
	</g>
</g>
<g>
	<path class="at11" d="M719.3,955.4"/>
</g>
<image style="overflow:visible;" width="1482" height="1034" xlink:href="build/assets/header1.gif"  transform="matrix(0.2242 0 0 0.2242 551.6178 81.6578)">
</image>
<rect x="1434" y="1452" class="at0" width="1751.6" height="1109.4"/>
<linearGradient id="SVGID_7_" gradientUnits="userSpaceOnUse" x1="38.3146" y1="568.7505" x2="201.5991" y2="612.5026" gradientTransform="matrix(1 0 0 -1 0 1192.3082)">
	<stop  offset="0" style="stop-color:#C0FFF4"/>
	<stop  offset="1" style="stop-color:#222222"/>
</linearGradient>
<path class="at17" d="M38.3,623.6c12.1,45.1,58.4,71.8,103.5,59.8c45.1-12.1,71.8-58.4,59.8-103.5C189.5,534.7,143.2,508,98.1,520
	S26.2,578.5,38.3,623.6z"/>
</svg>
