<?xml version="1.0" encoding="utf-8"?>
<!-- Generator: Adobe Illustrator 25.2.1, SVG Export Plug-In . SVG Version: 6.00 Build 0)  -->
<svg version="1.1" id="Layer_1" xmlns="http://www.w3.org/2000/svg" xmlns:xlink="http://www.w3.org/1999/xlink" x="0px" y="0px"
	 viewBox="0 0 1311 740" style="enable-background:new 0 0 1311 740;" xml:space="preserve">
<style type="text/css">
	.et0{fill:#3E3E3E;}
	.et1{fill:#EBEBF0;}
	.et2{opacity:0.5;fill:#EBEBF0;enable-background:new    ;}
	.et3{fill:none;stroke:#323F4B;stroke-width:0.5;}
	.et4{fill:#222222;stroke:#3E3E3E;stroke-width:0.5;}
	.et5{fill:#222222;stroke:#373737;stroke-width:0.5;}
	.et6{fill:#373737;}
	.et7{fill:#222222;stroke:#FFFFFF;stroke-width:0.5;}
	.et8{fill:#FFFFFF;}
	.et9{fill:#FFFFFF;stroke:#C9D6DF;}
	.et10{fill:#8F8F8F;}
	.et11{fill:none;stroke:#FFFFFF;}
</style>
<path class="et0" d="M65.5,171.4H58v-1.1l3-3c0.9-0.9,1.5-1.6,1.8-2c0.3-0.4,0.5-0.8,0.7-1.2c0.1-0.4,0.2-0.8,0.2-1.2
	c0-0.6-0.2-1.1-0.6-1.4c-0.4-0.4-0.9-0.5-1.5-0.5c-0.5,0-0.9,0.1-1.3,0.2c-0.4,0.2-0.9,0.4-1.4,0.9l-0.7-0.9c1-0.9,2.2-1.3,3.4-1.3
	c1.1,0,1.9,0.3,2.5,0.8c0.6,0.5,0.9,1.3,0.9,2.2c0,0.7-0.2,1.4-0.6,2.1c-0.4,0.7-1.2,1.6-2.3,2.7l-2.5,2.4v0.1h5.9V171.4z"/>
<path class="et1" d="M261.1,81.4h-2.7V68.5h7.4v2.2h-4.7v3.3h4.4v2.2h-4.4V81.4z M270.3,81.4V68.5h2.7v12.9H270.3z M289.7,81.4h-3.5
	l-5.6-9.7h-0.1c0.1,1.7,0.2,2.9,0.2,3.7v6h-2.4V68.5h3.4l5.6,9.6h0.1c-0.1-1.7-0.1-2.9-0.1-3.5v-6.1h2.5V81.4z M305.6,74.8
	c0,2.1-0.6,3.7-1.8,4.9c-1.2,1.1-2.9,1.7-5.2,1.7h-3.6V68.5h4c2.1,0,3.7,0.6,4.9,1.7S305.6,72.8,305.6,74.8z M302.8,74.9
	c0-2.8-1.2-4.1-3.7-4.1h-1.5v8.4h1.2C301.4,79.1,302.8,77.7,302.8,74.9z M319.6,74.2h0.9c0.9,0,1.5-0.1,1.9-0.4
	c0.4-0.3,0.6-0.7,0.6-1.4c0-0.6-0.2-1-0.6-1.3c-0.4-0.3-1.1-0.4-1.9-0.4h-0.8V74.2z M319.6,76.4v4.9h-2.7V68.5h3.7
	c1.8,0,3,0.3,3.9,1c0.8,0.6,1.2,1.6,1.2,2.9c0,0.8-0.2,1.4-0.6,2s-1,1-1.8,1.4c1.9,2.9,3.2,4.8,3.8,5.6h-3l-3.1-4.9H319.6z
	 M338.2,81.4h-7.4V68.5h7.4v2.2h-4.7v2.8h4.4v2.2h-4.4v3.3h4.7V81.4z M342.9,81.4V68.5h2.7v10.6h5.2v2.2H342.9z M362.9,81.4
	l-0.9-3.1h-4.7l-0.9,3.1h-2.9l4.5-12.9h3.3l4.5,12.9H362.9z M361.4,76c-0.9-2.8-1.3-4.3-1.5-4.7c-0.1-0.4-0.2-0.7-0.2-0.9
	c-0.2,0.8-0.7,2.6-1.7,5.6H361.4z M374.5,81.4h-2.7V70.8h-3.5v-2.3h9.7v2.3h-3.5V81.4z M389.3,81.4h-7.4V68.5h7.4v2.2h-4.7v2.8h4.4
	v2.2h-4.4v3.3h4.7V81.4z M404.7,74.8c0,2.1-0.6,3.7-1.8,4.9c-1.2,1.1-2.9,1.7-5.2,1.7H394V68.5h4c2.1,0,3.7,0.6,4.9,1.7
	C404.1,71.3,404.7,72.8,404.7,74.8z M401.8,74.9c0-2.8-1.2-4.1-3.7-4.1h-1.4v8.4h1.2C400.5,79.1,401.8,77.7,401.8,74.9z M428.5,81.4
	h-3.1l-1.7-6.8c-0.1-0.2-0.2-0.7-0.3-1.5c-0.1-0.8-0.2-1.3-0.3-1.5c0,0.3-0.1,0.8-0.3,1.5s-0.2,1.2-0.3,1.5l-1.7,6.7h-3.1l-3.3-12.9
	h2.7l1.6,7c0.3,1.3,0.5,2.4,0.6,3.4c0-0.3,0.1-0.8,0.2-1.5c0.1-0.7,0.2-1.2,0.4-1.6l1.9-7.2h2.6l1.9,7.2c0.1,0.3,0.2,0.8,0.3,1.5
	c0.1,0.7,0.2,1.2,0.3,1.7c0.1-0.5,0.2-1,0.3-1.7c0.1-0.7,0.2-1.2,0.4-1.7l1.6-7h2.7L428.5,81.4z M447.1,74.9c0,2.1-0.5,3.8-1.6,4.9
	c-1,1.1-2.6,1.7-4.5,1.7c-2,0-3.5-0.6-4.5-1.7c-1.1-1.1-1.6-2.8-1.6-4.9s0.5-3.8,1.6-4.9c1.1-1.1,2.6-1.7,4.6-1.7
	c2,0,3.5,0.6,4.5,1.7C446.6,71.2,447.1,72.8,447.1,74.9z M437.7,74.9c0,1.4,0.3,2.5,0.8,3.2c0.6,0.7,1.4,1.1,2.5,1.1
	c2.2,0,3.3-1.4,3.3-4.3c0-2.9-1.1-4.3-3.2-4.3c-1.1,0-1.9,0.4-2.5,1.1C438,72.4,437.7,73.5,437.7,74.9z M454.5,74.2h0.9
	c0.9,0,1.5-0.1,1.9-0.4c0.4-0.3,0.6-0.7,0.6-1.4c0-0.6-0.2-1-0.6-1.3c-0.4-0.3-1.1-0.4-1.9-0.4h-0.8V74.2z M454.5,76.4v4.9h-2.7
	V68.5h3.7c1.8,0,3,0.3,3.9,1c0.8,0.6,1.2,1.6,1.2,2.9c0,0.8-0.2,1.4-0.6,2s-1,1-1.8,1.4c1.9,2.9,3.2,4.8,3.8,5.6h-3l-3.1-4.9H454.5z
	 M476.3,74.8c0,2.1-0.6,3.7-1.8,4.9c-1.2,1.1-2.9,1.7-5.2,1.7h-3.6V68.5h4c2.1,0,3.7,0.6,4.9,1.7C475.7,71.3,476.3,72.8,476.3,74.8z
	 M473.5,74.9c0-2.8-1.2-4.1-3.6-4.1h-1.5v8.4h1.2C472.1,79.1,473.5,77.7,473.5,74.9z M488.5,77.8c0,1.2-0.4,2.1-1.3,2.7
	c-0.8,0.7-2,1-3.5,1c-1.4,0-2.6-0.3-3.6-0.8v-2.5c0.9,0.4,1.6,0.7,2.2,0.8c0.6,0.2,1.2,0.2,1.7,0.2c0.6,0,1.1-0.1,1.4-0.4
	c0.3-0.2,0.5-0.6,0.5-1c0-0.2-0.1-0.5-0.2-0.7c-0.1-0.2-0.4-0.4-0.6-0.6c-0.3-0.2-0.8-0.5-1.7-0.9c-0.8-0.4-1.4-0.7-1.8-1.1
	c-0.4-0.3-0.7-0.7-0.9-1.2c-0.2-0.5-0.4-1-0.4-1.6c0-1.1,0.4-2,1.1-2.7c0.8-0.6,1.8-1,3.2-1c0.7,0,1.3,0.1,1.9,0.2
	c0.6,0.2,1.2,0.4,1.9,0.7l-0.9,2.1c-0.7-0.3-1.2-0.5-1.7-0.6c-0.4-0.1-0.9-0.2-1.3-0.2c-0.5,0-0.9,0.1-1.2,0.4
	c-0.3,0.2-0.4,0.6-0.4,0.9c0,0.2,0.1,0.5,0.2,0.6c0.1,0.2,0.3,0.4,0.5,0.5c0.2,0.2,0.8,0.5,1.7,0.9c1.2,0.6,2,1.1,2.5,1.7
	C488.3,76.3,488.5,77,488.5,77.8z"/>
<path class="et2" d="M995.8,215c-1,0-1.8,0.4-2.4,1.1c-0.6,0.7-0.9,1.7-0.9,3c0,1.3,0.3,2.3,0.8,3c0.6,0.7,1.4,1,2.4,1
	c0.4,0,0.9,0,1.3-0.1c0.4-0.1,0.9-0.2,1.3-0.4v1.5c-0.8,0.3-1.8,0.5-2.9,0.5c-1.6,0-2.8-0.5-3.6-1.4c-0.8-1-1.3-2.3-1.3-4.1
	c0-1.1,0.2-2.1,0.6-2.9c0.4-0.8,1-1.5,1.8-1.9c0.8-0.4,1.7-0.7,2.7-0.7c1.1,0,2.1,0.2,3,0.7l-0.6,1.4c-0.4-0.2-0.8-0.3-1.1-0.4
	C996.7,215.1,996.2,215,995.8,215z M1002.3,224.4h-1.7V213h1.7V224.4z M1006.5,224.4h-1.7v-8.1h1.7V224.4z M1004.6,214.1
	c0-0.3,0.1-0.5,0.2-0.7c0.2-0.2,0.4-0.2,0.7-0.2c0.3,0,0.5,0.1,0.7,0.2c0.2,0.2,0.3,0.4,0.3,0.7s-0.1,0.5-0.3,0.7
	c-0.2,0.2-0.4,0.2-0.7,0.2c-0.3,0-0.6-0.1-0.7-0.2C1004.7,214.6,1004.6,214.4,1004.6,214.1z M1012.2,224.5c-1.2,0-2.2-0.4-2.8-1.1
	c-0.6-0.7-1-1.8-1-3.1c0-1.4,0.3-2.4,1-3.1s1.6-1.1,2.9-1.1c0.9,0,1.6,0.2,2.3,0.5l-0.5,1.4c-0.7-0.3-1.3-0.4-1.8-0.4
	c-1.4,0-2.1,0.9-2.1,2.8c0,0.9,0.2,1.6,0.5,2c0.3,0.5,0.9,0.7,1.5,0.7c0.8,0,1.5-0.2,2.2-0.6v1.5c-0.3,0.2-0.6,0.3-1,0.4
	C1013.1,224.5,1012.7,224.5,1012.2,224.5z M1018,220.1l1-1.2l2.4-2.6h2l-3.3,3.5l3.5,4.6h-2l-2.6-3.5l-0.9,0.8v2.8h-1.7V213h1.7v5.6
	L1018,220.1L1018,220.1z M1031.9,223.1c0.4,0,0.8-0.1,1.3-0.2v1.3c-0.2,0.1-0.4,0.1-0.7,0.2c-0.3,0.1-0.6,0.1-0.9,0.1
	c-1.6,0-2.4-0.9-2.4-2.6v-4.4h-1.1v-0.8l1.2-0.6l0.6-1.7h1.1v1.8h2.3v1.3h-2.3v4.3c0,0.4,0.1,0.7,0.3,0.9
	C1031.3,223,1031.5,223.1,1031.9,223.1z M1041.9,220.3c0,1.3-0.3,2.4-1,3.1c-0.7,0.8-1.6,1.1-2.8,1.1c-0.8,0-1.4-0.2-2-0.5
	c-0.6-0.3-1-0.8-1.3-1.5c-0.3-0.6-0.5-1.4-0.5-2.2c0-1.3,0.3-2.3,1-3.1c0.7-0.7,1.6-1.1,2.8-1.1c1.2,0,2.1,0.4,2.8,1.1
	C1041.6,218,1041.9,219,1041.9,220.3z M1036,220.3c0,1.9,0.7,2.8,2.1,2.8c1.4,0,2-0.9,2-2.8c0-1.9-0.7-2.8-2.1-2.8
	c-0.7,0-1.2,0.2-1.6,0.7C1036.2,218.7,1036,219.4,1036,220.3z M1054.7,216.3v0.9l-1.4,0.3c0.1,0.2,0.2,0.4,0.3,0.6
	c0.1,0.2,0.1,0.5,0.1,0.8c0,0.8-0.3,1.5-0.9,2c-0.6,0.5-1.4,0.7-2.4,0.7c-0.2,0-0.5,0-0.7-0.1c-0.4,0.2-0.6,0.5-0.6,0.8
	c0,0.2,0.1,0.3,0.3,0.4c0.2,0.1,0.5,0.1,1,0.1h1.4c0.9,0,1.6,0.2,2,0.6c0.5,0.4,0.7,0.9,0.7,1.6c0,0.9-0.4,1.6-1.1,2.1
	c-0.8,0.5-1.9,0.7-3.3,0.7c-1.1,0-2-0.2-2.5-0.6c-0.6-0.4-0.9-1-0.9-1.7c0-0.5,0.2-0.9,0.5-1.3c0.3-0.3,0.8-0.6,1.3-0.7
	c-0.2-0.1-0.4-0.2-0.6-0.5c-0.1-0.2-0.2-0.4-0.2-0.7c0-0.3,0.1-0.6,0.3-0.8s0.4-0.4,0.8-0.6c-0.4-0.2-0.8-0.5-1-0.9
	c-0.3-0.4-0.4-0.9-0.4-1.4c0-0.9,0.3-1.6,0.8-2c0.5-0.5,1.3-0.7,2.4-0.7c0.2,0,0.5,0,0.7,0c0.2,0,0.4,0.1,0.6,0.1H1054.7z
	 M1048.3,225.6c0,0.4,0.2,0.7,0.5,0.9c0.3,0.2,0.8,0.3,1.4,0.3c0.9,0,1.6-0.1,2.1-0.4c0.5-0.3,0.7-0.6,0.7-1.1
	c0-0.4-0.1-0.6-0.4-0.8c-0.2-0.1-0.7-0.2-1.4-0.2h-1.3c-0.5,0-0.9,0.1-1.2,0.3C1048.4,224.9,1048.3,225.2,1048.3,225.6z M1049,218.9
	c0,0.5,0.1,0.9,0.4,1.2c0.3,0.3,0.6,0.4,1.1,0.4c1,0,1.5-0.5,1.5-1.6c0-0.5-0.1-0.9-0.4-1.2c-0.2-0.3-0.6-0.4-1.1-0.4
	s-0.9,0.1-1.1,0.4C1049.2,217.9,1049,218.3,1049,218.9z M1063.4,220.3c0,1.3-0.3,2.4-1,3.1c-0.7,0.8-1.6,1.1-2.8,1.1
	c-0.8,0-1.4-0.2-2-0.5c-0.6-0.3-1-0.8-1.3-1.5c-0.3-0.6-0.5-1.4-0.5-2.2c0-1.3,0.3-2.3,1-3.1c0.7-0.7,1.6-1.1,2.9-1.1
	c1.2,0,2.1,0.4,2.8,1.1C1063,218,1063.4,219,1063.4,220.3z M1057.5,220.3c0,1.9,0.7,2.8,2.1,2.8c1.4,0,2.1-0.9,2.1-2.8
	c0-1.9-0.7-2.8-2.1-2.8c-0.7,0-1.2,0.2-1.6,0.7C1057.6,218.7,1057.5,219.4,1057.5,220.3z M1072.3,223.1c0.4,0,0.8-0.1,1.3-0.2v1.3
	c-0.2,0.1-0.4,0.1-0.7,0.2c-0.3,0.1-0.6,0.1-0.9,0.1c-1.6,0-2.5-0.9-2.5-2.6v-4.4h-1.1v-0.8l1.2-0.6l0.6-1.7h1.1v1.8h2.3v1.3h-2.3
	v4.3c0,0.4,0.1,0.7,0.3,0.9S1071.9,223.1,1072.3,223.1z M1082.3,220.3c0,1.3-0.3,2.4-1,3.1c-0.7,0.8-1.6,1.1-2.8,1.1
	c-0.8,0-1.4-0.2-2-0.5c-0.6-0.3-1-0.8-1.3-1.5c-0.3-0.6-0.5-1.4-0.5-2.2c0-1.3,0.3-2.3,1-3.1c0.7-0.7,1.6-1.1,2.9-1.1
	c1.2,0,2.1,0.4,2.8,1.1C1082,218,1082.3,219,1082.3,220.3z M1076.4,220.3c0,1.9,0.7,2.8,2.1,2.8c1.4,0,2.1-0.9,2.1-2.8
	c0-1.9-0.7-2.8-2.1-2.8c-0.7,0-1.2,0.2-1.6,0.7C1076.6,218.7,1076.4,219.4,1076.4,220.3z M1092.3,216.1c0.3,0,0.6,0,0.8,0.1
	l-0.2,1.6c-0.2-0.1-0.5-0.1-0.8-0.1c-0.7,0-1.2,0.2-1.7,0.7c-0.4,0.5-0.6,1-0.6,1.8v4.2h-1.7v-8.1h1.4l0.2,1.4h0.1
	c0.3-0.5,0.6-0.9,1-1.1C1091.3,216.3,1091.8,216.1,1092.3,216.1z M1099.7,224.4l-0.3-1.1h-0.1c-0.4,0.5-0.8,0.8-1.2,1
	c-0.4,0.2-0.9,0.3-1.5,0.3c-0.8,0-1.4-0.2-1.9-0.6c-0.5-0.4-0.7-1-0.7-1.8c0-0.8,0.3-1.5,0.9-1.9c0.6-0.4,1.6-0.7,2.8-0.7l1.4,0V219
	c0-0.5-0.1-0.9-0.4-1.2c-0.2-0.3-0.6-0.4-1.1-0.4c-0.4,0-0.8,0.1-1.2,0.2c-0.4,0.1-0.8,0.3-1.1,0.4l-0.6-1.2
	c0.4-0.2,0.9-0.4,1.4-0.5c0.5-0.1,1-0.2,1.5-0.2c1,0,1.8,0.2,2.3,0.7c0.5,0.4,0.8,1.1,0.8,2.1v5.5H1099.7z M1097.2,223.2
	c0.6,0,1.1-0.2,1.5-0.5c0.4-0.4,0.6-0.8,0.6-1.5v-0.7l-1,0.1c-0.8,0-1.4,0.2-1.8,0.4c-0.4,0.2-0.6,0.6-0.6,1.1
	c0,0.4,0.1,0.6,0.3,0.9C1096.4,223.1,1096.8,223.2,1097.2,223.2z M1110.5,224.4h-1.7v-5c0-0.6-0.1-1.1-0.4-1.4
	c-0.2-0.3-0.6-0.5-1.2-0.5c-0.7,0-1.3,0.2-1.6,0.6c-0.3,0.4-0.5,1.2-0.5,2.2v4h-1.7v-8.1h1.4l0.2,1.1h0.1c0.2-0.4,0.6-0.7,1-0.9
	s1-0.3,1.5-0.3c1.9,0,2.9,1,2.9,3V224.4z M1115.6,224.5c-1,0-1.8-0.4-2.4-1.1c-0.6-0.7-0.9-1.8-0.9-3.1c0-1.3,0.3-2.4,0.9-3.1
	c0.6-0.8,1.4-1.1,2.4-1.1c1.1,0,1.9,0.4,2.4,1.2h0.1c-0.1-0.6-0.1-1-0.1-1.4v-3h1.7v11.4h-1.4l-0.3-1.1h-0.1
	C1117.5,224.1,1116.7,224.5,1115.6,224.5z M1116.1,223.1c0.7,0,1.2-0.2,1.5-0.6c0.3-0.4,0.5-1.1,0.5-1.9v-0.2c0-1-0.2-1.8-0.5-2.2
	c-0.3-0.4-0.9-0.6-1.6-0.6c-0.6,0-1.1,0.2-1.4,0.7c-0.3,0.5-0.5,1.2-0.5,2.1c0,0.9,0.1,1.6,0.5,2.1
	C1115,222.9,1115.5,223.1,1116.1,223.1z M1129.4,220.3c0,1.3-0.3,2.4-1,3.1c-0.7,0.8-1.6,1.1-2.8,1.1c-0.8,0-1.4-0.2-2-0.5
	c-0.6-0.3-1-0.8-1.3-1.5c-0.3-0.6-0.5-1.4-0.5-2.2c0-1.3,0.3-2.3,1-3.1c0.7-0.7,1.6-1.1,2.8-1.1c1.2,0,2.1,0.4,2.8,1.1
	C1129.1,218,1129.4,219,1129.4,220.3z M1123.5,220.3c0,1.9,0.7,2.8,2.1,2.8c1.4,0,2.1-0.9,2.1-2.8c0-1.9-0.7-2.8-2.1-2.8
	c-0.7,0-1.2,0.2-1.6,0.7C1123.7,218.7,1123.5,219.4,1123.5,220.3z M1138.2,224.4h-1.7v-5c0-0.6-0.1-1.1-0.4-1.4
	c-0.2-0.3-0.6-0.5-1.1-0.5c-0.7,0-1.2,0.2-1.5,0.6c-0.3,0.4-0.5,1.1-0.5,2.1v4h-1.7v-8.1h1.4l0.2,1.1h0.1c0.2-0.4,0.5-0.7,1-0.9
	c0.4-0.2,0.9-0.3,1.4-0.3c1.2,0,2.1,0.4,2.5,1.3h0.1c0.2-0.4,0.6-0.7,1-0.9c0.4-0.2,0.9-0.3,1.5-0.3c1,0,1.7,0.2,2.1,0.7
	c0.5,0.5,0.7,1.2,0.7,2.2v5.3h-1.7v-5c0-0.6-0.1-1.1-0.4-1.4c-0.2-0.3-0.6-0.5-1.1-0.5c-0.7,0-1.2,0.2-1.5,0.6
	c-0.3,0.4-0.5,1-0.5,1.9V224.4z M1153.8,216.1c0.3,0,0.6,0,0.9,0.1l-0.2,1.6c-0.2-0.1-0.5-0.1-0.8-0.1c-0.7,0-1.2,0.2-1.7,0.7
	s-0.6,1-0.6,1.8v4.2h-1.7v-8.1h1.4l0.2,1.4h0.1c0.3-0.5,0.6-0.9,1-1.1C1152.8,216.3,1153.3,216.1,1153.8,216.1z M1159.7,224.5
	c-1.3,0-2.2-0.4-3-1.1c-0.7-0.7-1.1-1.8-1.1-3c0-1.3,0.3-2.4,1-3.1c0.7-0.8,1.6-1.1,2.7-1.1c1.1,0,1.9,0.3,2.5,1s0.9,1.5,0.9,2.7
	v0.9h-5.4c0,0.8,0.2,1.4,0.6,1.8s1,0.6,1.7,0.6c0.5,0,0.9,0,1.3-0.1c0.4-0.1,0.9-0.2,1.3-0.4v1.4c-0.4,0.2-0.8,0.3-1.3,0.4
	S1160.2,224.5,1159.7,224.5z M1159.4,217.4c-0.5,0-1,0.2-1.3,0.5c-0.3,0.3-0.5,0.9-0.6,1.5h3.7c0-0.7-0.2-1.2-0.5-1.5
	C1160.3,217.6,1159.9,217.4,1159.4,217.4z M1166.5,224.4h-1.7V213h1.7V224.4z M1174,224.4l-0.3-1.1h-0.1c-0.4,0.5-0.8,0.8-1.2,1
	c-0.4,0.2-0.9,0.3-1.5,0.3c-0.8,0-1.4-0.2-1.9-0.6c-0.4-0.4-0.7-1-0.7-1.8c0-0.8,0.3-1.5,0.9-1.9c0.6-0.4,1.6-0.7,2.8-0.7l1.4,0V219
	c0-0.5-0.1-0.9-0.4-1.2c-0.2-0.3-0.6-0.4-1.1-0.4c-0.4,0-0.8,0.1-1.2,0.2c-0.4,0.1-0.8,0.3-1.1,0.4l-0.6-1.2
	c0.4-0.2,0.9-0.4,1.4-0.5c0.5-0.1,1-0.2,1.5-0.2c1,0,1.8,0.2,2.3,0.7c0.5,0.4,0.8,1.1,0.8,2.1v5.5H1174z M1171.5,223.2
	c0.6,0,1.1-0.2,1.5-0.5c0.4-0.4,0.6-0.8,0.6-1.5v-0.7l-1,0.1c-0.8,0-1.4,0.2-1.8,0.4c-0.4,0.2-0.5,0.6-0.5,1.1
	c0,0.4,0.1,0.6,0.3,0.9C1170.7,223.1,1171,223.2,1171.5,223.2z M1180.7,223.1c0.4,0,0.8-0.1,1.3-0.2v1.3c-0.2,0.1-0.4,0.1-0.7,0.2
	c-0.3,0.1-0.6,0.1-0.9,0.1c-1.6,0-2.4-0.9-2.4-2.6v-4.4h-1.1v-0.8l1.2-0.6l0.6-1.7h1.1v1.8h2.3v1.3h-2.3v4.3c0,0.4,0.1,0.7,0.3,0.9
	C1180.1,223,1180.3,223.1,1180.7,223.1z M1187.1,224.5c-1.3,0-2.2-0.4-3-1.1c-0.7-0.7-1.1-1.8-1.1-3c0-1.3,0.3-2.4,1-3.1
	c0.6-0.8,1.6-1.1,2.7-1.1c1.1,0,1.9,0.3,2.5,1s0.9,1.5,0.9,2.7v0.9h-5.4c0,0.8,0.2,1.4,0.6,1.8s1,0.6,1.7,0.6c0.5,0,0.9,0,1.3-0.1
	c0.4-0.1,0.9-0.2,1.3-0.4v1.4c-0.4,0.2-0.8,0.3-1.3,0.4S1187.7,224.5,1187.1,224.5z M1186.8,217.4c-0.5,0-1,0.2-1.3,0.5
	c-0.3,0.3-0.5,0.9-0.6,1.5h3.7c0-0.7-0.2-1.2-0.5-1.5C1187.8,217.6,1187.3,217.4,1186.8,217.4z M1194.9,224.5c-1,0-1.8-0.4-2.4-1.1
	s-0.9-1.8-0.9-3.1c0-1.3,0.3-2.4,0.9-3.1c0.6-0.8,1.4-1.1,2.4-1.1c1.1,0,1.9,0.4,2.4,1.2h0.1c-0.1-0.6-0.1-1-0.1-1.4v-3h1.7v11.4
	h-1.4l-0.3-1.1h-0.1C1196.8,224.1,1196,224.5,1194.9,224.5z M1195.4,223.1c0.7,0,1.2-0.2,1.5-0.6c0.3-0.4,0.5-1.1,0.5-1.9v-0.2
	c0-1-0.2-1.8-0.5-2.2c-0.3-0.4-0.9-0.6-1.6-0.6c-0.6,0-1.1,0.2-1.4,0.7c-0.3,0.5-0.5,1.2-0.5,2.1c0,0.9,0.2,1.6,0.5,2.1
	C1194.3,222.9,1194.8,223.1,1195.4,223.1z M1209.5,217.6h-2v6.8h-1.7v-6.8h-1.3v-0.8l1.3-0.5v-0.5c0-0.9,0.2-1.7,0.7-2.1
	c0.4-0.5,1.1-0.7,2.1-0.7c0.6,0,1.2,0.1,1.8,0.3l-0.5,1.3c-0.4-0.1-0.8-0.2-1.2-0.2s-0.7,0.1-0.9,0.4c-0.2,0.2-0.3,0.6-0.3,1.1v0.5
	h2V217.6z M1215,216.1c0.3,0,0.6,0,0.9,0.1l-0.2,1.6c-0.2-0.1-0.5-0.1-0.8-0.1c-0.7,0-1.2,0.2-1.7,0.7c-0.4,0.5-0.6,1-0.6,1.8v4.2
	h-1.7v-8.1h1.4l0.2,1.4h0.1c0.3-0.5,0.6-0.9,1-1.1C1214,216.3,1214.5,216.1,1215,216.1z M1222.4,224.4l-0.4-1.1h-0.1
	c-0.4,0.5-0.8,0.8-1.2,1c-0.4,0.2-0.9,0.3-1.5,0.3c-0.8,0-1.4-0.2-1.9-0.6c-0.4-0.4-0.7-1-0.7-1.8c0-0.8,0.3-1.5,0.9-1.9
	c0.6-0.4,1.6-0.7,2.8-0.7l1.4,0V219c0-0.5-0.1-0.9-0.4-1.2c-0.2-0.3-0.6-0.4-1.1-0.4c-0.4,0-0.8,0.1-1.2,0.2
	c-0.4,0.1-0.8,0.3-1.1,0.4l-0.5-1.2c0.4-0.2,0.9-0.4,1.4-0.5c0.5-0.1,1-0.2,1.5-0.2c1,0,1.8,0.2,2.3,0.7c0.5,0.4,0.8,1.1,0.8,2.1
	v5.5H1222.4z M1219.9,223.2c0.6,0,1.1-0.2,1.5-0.5c0.4-0.4,0.6-0.8,0.6-1.5v-0.7l-1,0.1c-0.8,0-1.4,0.2-1.8,0.4
	c-0.4,0.2-0.6,0.6-0.6,1.1c0,0.4,0.1,0.6,0.3,0.9C1219.1,223.1,1219.4,223.2,1219.9,223.2z M1232.9,216.3v0.9l-1.4,0.3
	c0.1,0.2,0.2,0.4,0.3,0.6s0.1,0.5,0.1,0.8c0,0.8-0.3,1.5-0.9,2c-0.6,0.5-1.4,0.7-2.4,0.7c-0.3,0-0.5,0-0.7-0.1
	c-0.4,0.2-0.6,0.5-0.6,0.8c0,0.2,0.1,0.3,0.3,0.4c0.2,0.1,0.5,0.1,1,0.1h1.4c0.9,0,1.6,0.2,2,0.6c0.5,0.4,0.7,0.9,0.7,1.6
	c0,0.9-0.4,1.6-1.1,2.1c-0.8,0.5-1.9,0.7-3.3,0.7c-1.1,0-1.9-0.2-2.5-0.6s-0.9-1-0.9-1.7c0-0.5,0.1-0.9,0.5-1.3
	c0.3-0.3,0.8-0.6,1.3-0.7c-0.2-0.1-0.4-0.2-0.6-0.5c-0.2-0.2-0.2-0.4-0.2-0.7c0-0.3,0.1-0.6,0.3-0.8c0.2-0.2,0.4-0.4,0.8-0.6
	c-0.4-0.2-0.8-0.5-1-0.9c-0.2-0.4-0.4-0.9-0.4-1.4c0-0.9,0.3-1.6,0.8-2c0.6-0.5,1.4-0.7,2.4-0.7c0.2,0,0.5,0,0.7,0
	c0.3,0,0.5,0.1,0.6,0.1H1232.9z M1226.6,225.6c0,0.4,0.2,0.7,0.5,0.9c0.3,0.2,0.8,0.3,1.4,0.3c0.9,0,1.6-0.1,2.1-0.4
	c0.5-0.3,0.7-0.6,0.7-1.1c0-0.4-0.1-0.6-0.4-0.8s-0.7-0.2-1.4-0.2h-1.3c-0.5,0-0.9,0.1-1.2,0.3
	C1226.7,224.9,1226.6,225.2,1226.6,225.6z M1227.3,218.9c0,0.5,0.1,0.9,0.4,1.2c0.3,0.3,0.6,0.4,1.1,0.4c1,0,1.5-0.5,1.5-1.6
	c0-0.5-0.1-0.9-0.4-1.2c-0.2-0.3-0.6-0.4-1.1-0.4s-0.9,0.1-1.1,0.4C1227.4,217.9,1227.3,218.3,1227.3,218.9z M1241.3,224.4h-1.7v-5
	c0-0.6-0.1-1.1-0.4-1.4c-0.2-0.3-0.6-0.5-1.1-0.5c-0.7,0-1.2,0.2-1.5,0.6c-0.3,0.4-0.5,1.1-0.5,2.1v4h-1.7v-8.1h1.4l0.2,1.1h0.1
	c0.2-0.4,0.6-0.7,1-0.9c0.4-0.2,0.9-0.3,1.4-0.3c1.2,0,2.1,0.4,2.5,1.3h0.1c0.2-0.4,0.6-0.7,1-0.9c0.4-0.2,0.9-0.3,1.5-0.3
	c1,0,1.7,0.2,2.1,0.7c0.4,0.5,0.7,1.2,0.7,2.2v5.3h-1.7v-5c0-0.6-0.1-1.1-0.4-1.4c-0.2-0.3-0.6-0.5-1.1-0.5c-0.7,0-1.2,0.2-1.5,0.6
	c-0.3,0.4-0.5,1-0.5,1.9V224.4z M1252.3,224.5c-1.3,0-2.2-0.4-3-1.1c-0.7-0.7-1.1-1.8-1.1-3c0-1.3,0.3-2.4,1-3.1
	c0.6-0.8,1.6-1.1,2.7-1.1c1.1,0,1.9,0.3,2.5,1c0.6,0.6,0.9,1.5,0.9,2.7v0.9h-5.4c0,0.8,0.2,1.4,0.6,1.8s1,0.6,1.7,0.6
	c0.5,0,0.9,0,1.3-0.1c0.4-0.1,0.9-0.2,1.3-0.4v1.4c-0.4,0.2-0.8,0.3-1.3,0.4C1253.3,224.5,1252.9,224.5,1252.3,224.5z M1252,217.4
	c-0.5,0-1,0.2-1.3,0.5c-0.3,0.3-0.5,0.9-0.6,1.5h3.7c0-0.7-0.2-1.2-0.5-1.5C1253,217.6,1252.5,217.4,1252,217.4z M1264.5,224.4h-1.7
	v-5c0-0.6-0.1-1.1-0.4-1.4s-0.6-0.5-1.2-0.5c-0.7,0-1.3,0.2-1.6,0.6c-0.3,0.4-0.5,1.2-0.5,2.2v4h-1.7v-8.1h1.4l0.2,1.1h0.1
	c0.2-0.4,0.6-0.7,1-0.9c0.5-0.2,1-0.3,1.5-0.3c2,0,2.9,1,2.9,3V224.4z M1269.9,223.1c0.4,0,0.8-0.1,1.3-0.2v1.3
	c-0.2,0.1-0.4,0.1-0.7,0.2c-0.3,0.1-0.6,0.1-0.9,0.1c-1.6,0-2.4-0.9-2.4-2.6v-4.4h-1.1v-0.8l1.2-0.6l0.6-1.7h1.1v1.8h2.3v1.3h-2.3
	v4.3c0,0.4,0.1,0.7,0.3,0.9C1269.3,223,1269.6,223.1,1269.9,223.1z"/>
<line class="et3" x1="61.1" y1="46.4" x2="61.1" y2="389.4"/>
<circle class="et4" cx="60.8" cy="166.4" r="15.8"/>
<path class="et0" d="M64.5,172.4H57v-1.1l3-3c0.9-0.9,1.5-1.6,1.8-2c0.3-0.4,0.5-0.8,0.7-1.2c0.1-0.4,0.2-0.8,0.2-1.2
	c0-0.6-0.2-1.1-0.6-1.4c-0.4-0.4-0.9-0.5-1.5-0.5c-0.5,0-0.9,0.1-1.3,0.2c-0.4,0.2-0.9,0.4-1.4,0.9l-0.7-0.9c1-0.9,2.2-1.3,3.4-1.3
	c1.1,0,1.9,0.3,2.5,0.8c0.6,0.5,0.9,1.3,0.9,2.2c0,0.7-0.2,1.4-0.6,2.1c-0.4,0.7-1.2,1.6-2.3,2.7l-2.5,2.4v0.1h5.9V172.4z"/>
<circle class="et5" cx="60.8" cy="270.4" r="15.8"/>
<path class="et6" d="M64.1,267.6c0,0.7-0.2,1.3-0.6,1.8c-0.4,0.5-1,0.8-1.7,0.9v0.1c0.9,0.1,1.6,0.4,2,0.9c0.4,0.5,0.7,1.1,0.7,1.9
	c0,1.1-0.4,1.9-1.1,2.5c-0.8,0.6-1.8,0.9-3.2,0.9c-0.6,0-1.2-0.1-1.7-0.1s-1-0.2-1.5-0.5v-1.2c0.5,0.2,1,0.4,1.6,0.6
	c0.6,0.1,1.1,0.2,1.6,0.2c2,0,3-0.8,3-2.3c0-1.4-1.1-2.1-3.3-2.1h-1.1v-1.1h1.1c0.9,0,1.6-0.2,2.1-0.6c0.5-0.4,0.8-0.9,0.8-1.6
	c0-0.6-0.2-1-0.6-1.3c-0.4-0.3-0.9-0.5-1.6-0.5c-0.5,0-1,0.1-1.4,0.2c-0.4,0.1-1,0.4-1.5,0.8L57,266c0.5-0.4,1-0.7,1.6-0.9
	c0.6-0.2,1.3-0.3,1.9-0.3c1.1,0,2,0.3,2.6,0.8C63.8,266,64.1,266.7,64.1,267.6z"/>
<circle class="et7" cx="60.8" cy="374.4" r="15.8"/>
<path class="et8" d="M65.1,377.7h-1.7v2.6h-1.2v-2.6h-5.6v-1.1l5.4-7.7h1.4v7.7h1.7V377.7z M62.1,376.6v-3.8c0-0.8,0-1.6,0.1-2.5
	h-0.1c-0.2,0.5-0.5,0.9-0.7,1.2l-3.6,5.1H62.1z"/>
<circle class="et4" cx="60.8" cy="62.4" r="15.8"/>
<path class="et0" d="M61.8,68.4h-1.3v-8.1c0-0.7,0-1.3,0.1-1.9c-0.1,0.1-0.2,0.2-0.4,0.3c-0.1,0.1-0.8,0.6-1.9,1.5l-0.7-0.9l3-2.3
	h1.1V68.4z"/>
<path class="et8" d="M97.8,373.4h-4v-7.1h4v1h-2.9v1.9h2.7v1h-2.7v2.2h2.9V373.4z M104.6,373.4h-1.4l-1.8-2.9l-1.8,2.9h-1.2l2.4-3.7
	l-2.2-3.4h1.3l1.6,2.7l1.6-2.7h1.3l-2.2,3.5L104.6,373.4z M110.3,368.4c0,0.7-0.2,1.3-0.7,1.7c-0.5,0.4-1.2,0.6-2.1,0.6h-0.7v2.7
	h-1.2v-7.1h2c0.9,0,1.6,0.2,2,0.6C110.1,367.1,110.3,367.7,110.3,368.4z M106.7,369.7h0.6c0.6,0,1-0.1,1.3-0.3
	c0.3-0.2,0.4-0.5,0.4-1c0-0.4-0.1-0.7-0.4-0.9c-0.2-0.2-0.6-0.3-1.2-0.3h-0.8V369.7z M115.8,373.4h-4v-7.1h4v1h-2.9v1.9h2.7v1h-2.7
	v2.2h2.9V373.4z M118.5,369.5h0.8c0.5,0,0.9-0.1,1.2-0.3c0.2-0.2,0.4-0.5,0.4-0.9s-0.1-0.7-0.4-0.9c-0.3-0.2-0.7-0.3-1.2-0.3h-0.8
	V369.5z M118.5,370.5v2.9h-1.2v-7.1h2c0.9,0,1.6,0.2,2,0.5c0.4,0.3,0.7,0.9,0.7,1.6c0,0.9-0.5,1.5-1.4,1.9l2,3.2h-1.3l-1.7-2.9
	H118.5z M123.7,373.4v-7.1h1.2v7.1H123.7z M129.9,373.4l-2.1-6h0c0.1,0.9,0.1,1.7,0.1,2.5v3.5h-1.1v-7.1h1.6l2,5.7h0l2-5.7h1.6v7.1
	H133v-3.5c0-0.4,0-0.8,0-1.4c0-0.6,0-0.9,0.1-1h0l-2.1,6H129.9z M140,373.4h-4v-7.1h4v1h-2.9v1.9h2.7v1h-2.7v2.2h2.9V373.4z
	 M147.5,373.4h-1.4l-3.5-5.7h0l0,0.3c0,0.6,0.1,1.2,0.1,1.7v3.7h-1.1v-7.1h1.4l3.5,5.7h0c0-0.1,0-0.4,0-0.8c0-0.5,0-0.8,0-1.1v-3.7
	h1.1V373.4z M151.9,373.4h-1.2v-6.1h-2.1v-1h5.4v1h-2.1V373.4z M159.5,373.4l-0.7-2h-2.7l-0.7,2h-1.2l2.7-7.2h1.3l2.7,7.2H159.5z
	 M158.5,370.4l-0.7-1.9c-0.1-0.1-0.1-0.3-0.2-0.6c-0.1-0.3-0.1-0.5-0.2-0.6c-0.1,0.4-0.2,0.8-0.4,1.3l-0.6,1.9H158.5z M161.7,373.4
	v-7.1h1.2v6.1h3v1H161.7z M97.9,386.4c0,0.6-0.2,1.1-0.7,1.5c-0.5,0.4-1.1,0.5-1.9,0.5c-0.8,0-1.5-0.1-2-0.4V387
	c0.3,0.1,0.7,0.3,1,0.4c0.4,0.1,0.7,0.1,1,0.1c0.5,0,0.8-0.1,1-0.3c0.2-0.2,0.3-0.4,0.3-0.7c0-0.3-0.1-0.5-0.3-0.7
	c-0.2-0.2-0.6-0.4-1.2-0.7c-0.6-0.3-1.1-0.6-1.4-0.9c-0.3-0.3-0.4-0.8-0.4-1.2c0-0.6,0.2-1.1,0.6-1.4c0.4-0.3,1-0.5,1.7-0.5
	c0.7,0,1.4,0.2,2,0.5l-0.4,1c-0.6-0.3-1.2-0.4-1.7-0.4c-0.4,0-0.7,0.1-0.9,0.2c-0.2,0.2-0.3,0.4-0.3,0.7c0,0.2,0,0.3,0.1,0.5
	c0.1,0.1,0.2,0.2,0.4,0.4c0.2,0.1,0.5,0.3,1,0.5c0.5,0.2,0.9,0.4,1.1,0.6c0.2,0.2,0.4,0.4,0.5,0.6C97.8,385.8,97.9,386.1,97.9,386.4
	z M103.3,388.4h-4v-7.1h4v1h-2.9v1.9h2.7v1h-2.7v2.2h2.9V388.4z M107.9,382.1c-0.7,0-1.2,0.2-1.6,0.7c-0.4,0.5-0.6,1.1-0.6,2
	c0,0.9,0.2,1.5,0.5,2c0.4,0.4,0.9,0.7,1.6,0.7c0.3,0,0.6,0,0.9-0.1c0.3-0.1,0.6-0.1,0.9-0.2v1c-0.6,0.2-1.2,0.3-1.9,0.3
	c-1,0-1.9-0.3-2.4-1c-0.6-0.6-0.8-1.5-0.8-2.7c0-0.7,0.1-1.4,0.4-2c0.3-0.5,0.7-1,1.2-1.3c0.5-0.3,1.1-0.4,1.8-0.4
	c0.7,0,1.4,0.2,2,0.5l-0.4,1c-0.2-0.1-0.5-0.2-0.8-0.3C108.5,382.2,108.2,382.1,107.9,382.1z M113.7,388.4h-1.2v-6.1h-2.1v-1h5.4v1
	h-2.1V388.4z M116.9,388.4v-7.1h1.2v7.1H116.9z M126.2,384.8c0,1.2-0.3,2.1-0.9,2.7c-0.6,0.6-1.4,1-2.5,1c-1.1,0-1.9-0.3-2.5-1
	c-0.6-0.6-0.9-1.6-0.9-2.7c0-1.2,0.3-2.1,0.9-2.7c0.6-0.6,1.4-1,2.5-1c1.1,0,1.9,0.3,2.5,1C126,382.7,126.2,383.6,126.2,384.8z
	 M120.8,384.8c0,0.9,0.2,1.6,0.5,2c0.4,0.5,0.9,0.7,1.6,0.7c0.7,0,1.2-0.2,1.6-0.7c0.4-0.5,0.5-1.1,0.5-2c0-0.9-0.2-1.5-0.5-2
	c-0.4-0.5-0.9-0.7-1.6-0.7c-0.7,0-1.2,0.2-1.6,0.7C121,383.2,120.8,383.9,120.8,384.8z M133.7,388.4h-1.4l-3.5-5.7h0l0,0.3
	c0,0.6,0.1,1.2,0.1,1.7v3.7h-1.1v-7.1h1.4l3.5,5.7h0c0-0.1,0-0.4,0-0.8c0-0.5,0-0.8,0-1.1v-3.7h1.1V388.4z"/>
<rect x="256.3" y="105.9" class="et9" width="319" height="39"/>
<path class="et10" d="M276.9,131.4h-1.3v-10.2H272v-1.2h8.6v1.2h-3.6V131.4z M280.7,122.8h1.4l1.9,4.9c0.4,1.1,0.7,1.9,0.8,2.4h0.1
	c0.1-0.3,0.2-0.7,0.4-1.4c0.2-0.6,0.9-2.6,2.1-5.9h1.4l-3.7,9.8c-0.4,1-0.8,1.6-1.3,2c-0.5,0.4-1.1,0.6-1.8,0.6
	c-0.4,0-0.8,0-1.2-0.1v-1c0.3,0.1,0.6,0.1,1,0.1c0.9,0,1.5-0.5,1.9-1.5l0.5-1.2L280.7,122.8z M294.1,131.5c-0.6,0-1.1-0.1-1.5-0.3
	c-0.5-0.2-0.8-0.5-1.2-1h-0.1c0.1,0.5,0.1,1,0.1,1.4v3.5h-1.3v-12.4h1.1l0.2,1.2h0.1c0.3-0.5,0.7-0.8,1.2-1c0.4-0.2,1-0.3,1.5-0.3
	c1.1,0,2,0.4,2.6,1.2c0.6,0.8,0.9,1.9,0.9,3.3c0,1.4-0.3,2.5-0.9,3.3C296.1,131.1,295.2,131.5,294.1,131.5z M293.9,123.7
	c-0.9,0-1.5,0.2-1.9,0.7c-0.4,0.5-0.6,1.2-0.6,2.3v0.3c0,1.2,0.2,2.1,0.6,2.6c0.4,0.5,1,0.8,1.9,0.8c0.7,0,1.3-0.3,1.7-0.9
	s0.6-1.4,0.6-2.5c0-1.1-0.2-1.9-0.6-2.5C295.3,124,294.7,123.7,293.9,123.7z M303.6,131.5c-1.3,0-2.3-0.4-3-1.2s-1.1-1.8-1.1-3.2
	c0-1.4,0.3-2.5,1-3.3c0.7-0.8,1.6-1.2,2.7-1.2c1.1,0,1.9,0.4,2.5,1.1c0.6,0.7,0.9,1.6,0.9,2.8v0.8h-5.9c0,1,0.3,1.8,0.8,2.3
	c0.5,0.5,1.2,0.8,2,0.8c0.9,0,1.8-0.2,2.7-0.6v1.1c-0.5,0.2-0.9,0.3-1.3,0.4C304.6,131.5,304.1,131.5,303.6,131.5z M303.2,123.7
	c-0.7,0-1.2,0.2-1.6,0.7s-0.6,1.1-0.7,1.9h4.5c0-0.8-0.2-1.4-0.5-1.9C304.4,124,303.9,123.7,303.2,123.7z M318.3,131.4l-0.3-1.2H318
	c-0.4,0.5-0.9,0.9-1.3,1.1c-0.4,0.2-1,0.3-1.6,0.3c-0.9,0-1.5-0.2-2-0.7s-0.7-1.1-0.7-1.9c0-1.7,1.4-2.6,4.1-2.7l1.5,0v-0.5
	c0-0.7-0.1-1.2-0.4-1.5c-0.3-0.3-0.7-0.5-1.4-0.5c-0.7,0-1.5,0.2-2.4,0.6l-0.4-1c0.4-0.2,0.9-0.4,1.4-0.5c0.5-0.1,1-0.2,1.5-0.2
	c1,0,1.8,0.2,2.3,0.7c0.5,0.5,0.8,1.2,0.8,2.2v5.8H318.3z M315.4,130.5c0.8,0,1.4-0.2,1.9-0.7c0.5-0.4,0.7-1.1,0.7-1.9v-0.8l-1.3,0
	c-1,0-1.8,0.2-2.2,0.5c-0.4,0.3-0.7,0.7-0.7,1.3c0,0.5,0.1,0.8,0.4,1.1C314.5,130.3,314.9,130.5,315.4,130.5z M327.8,131.4v-5.5
	c0-0.7-0.2-1.2-0.5-1.6c-0.3-0.4-0.8-0.5-1.5-0.5c-0.9,0-1.6,0.2-2,0.7c-0.4,0.5-0.6,1.3-0.6,2.4v4.5H322v-8.6h1l0.2,1.2h0.1
	c0.3-0.4,0.6-0.8,1.1-1s1-0.4,1.6-0.4c1,0,1.8,0.2,2.3,0.8s0.8,1.3,0.8,2.4v5.6H327.8z M330.4,122.8h1.4l1.9,4.9
	c0.4,1.1,0.7,1.9,0.8,2.4h0.1c0.1-0.3,0.2-0.7,0.4-1.4c0.2-0.6,0.9-2.6,2.1-5.9h1.4l-3.7,9.8c-0.4,1-0.8,1.6-1.3,2
	c-0.5,0.4-1.1,0.6-1.8,0.6c-0.4,0-0.8,0-1.2-0.1v-1c0.3,0.1,0.6,0.1,1,0.1c0.9,0,1.5-0.5,1.9-1.5l0.5-1.2L330.4,122.8z M351,131.4
	l-1.6-5c-0.1-0.3-0.3-1-0.6-2.1h-0.1c-0.2,0.9-0.4,1.6-0.5,2.1l-1.6,5h-1.5l-2.3-8.6h1.4c0.5,2.1,1,3.8,1.2,4.9
	c0.3,1.1,0.5,1.9,0.5,2.3h0.1c0.1-0.3,0.1-0.7,0.3-1.1c0.1-0.5,0.2-0.9,0.3-1.1l1.6-4.9h1.4l1.5,4.9c0.3,0.9,0.5,1.6,0.6,2.3h0.1
	c0-0.2,0.1-0.5,0.2-0.9c0.1-0.4,0.6-2.5,1.6-6.3h1.3l-2.4,8.6H351z M363.9,127.1c0,1.4-0.3,2.5-1.1,3.3c-0.7,0.8-1.7,1.2-2.9,1.2
	c-0.8,0-1.5-0.2-2-0.5c-0.6-0.4-1-0.9-1.4-1.6c-0.3-0.7-0.5-1.5-0.5-2.4c0-1.4,0.3-2.5,1-3.3c0.7-0.8,1.7-1.2,2.9-1.2
	c1.2,0,2.1,0.4,2.9,1.2C363.5,124.6,363.9,125.7,363.9,127.1z M357.3,127.1c0,1.1,0.2,1.9,0.7,2.5s1.1,0.9,1.9,0.9s1.5-0.3,1.9-0.8
	c0.4-0.6,0.7-1.4,0.7-2.5c0-1.1-0.2-1.9-0.7-2.5c-0.4-0.6-1.1-0.9-2-0.9c-0.8,0-1.5,0.3-1.9,0.8C357.6,125.1,357.3,126,357.3,127.1z
	 M370.1,122.6c0.4,0,0.7,0,1,0.1l-0.2,1.2c-0.4-0.1-0.7-0.1-0.9-0.1c-0.7,0-1.3,0.3-1.8,0.8c-0.5,0.6-0.7,1.3-0.7,2.1v4.6h-1.3v-8.6
	h1.1l0.1,1.6h0.1c0.3-0.5,0.7-1,1.1-1.3C369,122.8,369.5,122.6,370.1,122.6z M378.5,130.2L378.5,130.2c-0.7,0.9-1.6,1.3-2.8,1.3
	c-1.1,0-2-0.4-2.6-1.2c-0.6-0.8-0.9-1.9-0.9-3.3c0-1.4,0.3-2.5,0.9-3.3c0.6-0.8,1.5-1.2,2.6-1.2c1.2,0,2,0.4,2.7,1.3h0.1l-0.1-0.6
	l0-0.6v-3.5h1.3v12.2h-1.1L378.5,130.2z M375.9,130.4c0.9,0,1.5-0.2,1.9-0.7s0.6-1.3,0.6-2.3v-0.3c0-1.2-0.2-2.1-0.6-2.6
	c-0.4-0.5-1-0.8-1.9-0.8c-0.8,0-1.4,0.3-1.8,0.9c-0.4,0.6-0.6,1.4-0.6,2.5c0,1.1,0.2,1.9,0.6,2.5
	C374.6,130.2,375.1,130.4,375.9,130.4z M392.5,131.4v-5.5c0-0.7-0.2-1.2-0.5-1.6c-0.3-0.4-0.8-0.5-1.5-0.5c-0.9,0-1.6,0.2-2,0.7
	c-0.4,0.5-0.6,1.3-0.6,2.4v4.5h-1.3v-12.2h1.3v3.7c0,0.5,0,0.8-0.1,1.1h0.1c0.3-0.4,0.6-0.7,1.1-1c0.5-0.2,1-0.4,1.6-0.4
	c1.1,0,1.8,0.2,2.4,0.8c0.5,0.5,0.8,1.3,0.8,2.4v5.6H392.5z M400.1,131.5c-1.3,0-2.3-0.4-3-1.2c-0.7-0.8-1.1-1.8-1.1-3.2
	c0-1.4,0.3-2.5,1-3.3c0.7-0.8,1.6-1.2,2.7-1.2c1.1,0,1.9,0.4,2.5,1.1c0.6,0.7,0.9,1.6,0.9,2.8v0.8h-5.9c0,1,0.3,1.8,0.8,2.3
	c0.5,0.5,1.2,0.8,2,0.8c0.9,0,1.8-0.2,2.7-0.6v1.1c-0.4,0.2-0.9,0.3-1.3,0.4C401.2,131.5,400.7,131.5,400.1,131.5z M399.7,123.7
	c-0.7,0-1.2,0.2-1.6,0.7c-0.4,0.5-0.6,1.1-0.7,1.9h4.5c0-0.8-0.2-1.4-0.5-1.9C400.9,124,400.4,123.7,399.7,123.7z M409.4,122.6
	c0.4,0,0.7,0,1,0.1l-0.2,1.2c-0.4-0.1-0.7-0.1-0.9-0.1c-0.7,0-1.3,0.3-1.8,0.8c-0.5,0.6-0.7,1.3-0.7,2.1v4.6h-1.3v-8.6h1.1l0.1,1.6
	h0.1c0.3-0.5,0.7-1,1.1-1.3C408.3,122.8,408.8,122.6,409.4,122.6z M415.6,131.5c-1.3,0-2.3-0.4-3-1.2s-1.1-1.8-1.1-3.2
	c0-1.4,0.3-2.5,1-3.3s1.6-1.2,2.7-1.2c1.1,0,1.9,0.4,2.5,1.1c0.6,0.7,0.9,1.6,0.9,2.8v0.8h-5.9c0,1,0.3,1.8,0.8,2.3
	c0.5,0.5,1.2,0.8,2,0.8c0.9,0,1.8-0.2,2.7-0.6v1.1c-0.5,0.2-0.9,0.3-1.3,0.4C416.7,131.5,416.2,131.5,415.6,131.5z M415.3,123.7
	c-0.7,0-1.2,0.2-1.6,0.7s-0.6,1.1-0.7,1.9h4.5c0-0.8-0.2-1.4-0.5-1.9C416.5,124,415.9,123.7,415.3,123.7z"/>
<path class="et8" d="M295.3,429.7c5.1,0,8.6,1.3,10.7,3.8c1,1.1,1.6,2.7,2.1,4.7c0.5,1.9,0.7,4.4,0.7,7.6v25.7
	c0,2.6,0.4,4.4,1.1,5.4c0.8,0.9,2.2,1.4,4.2,1.4v2c-6.8-0.2-11.3-0.4-13.3-0.4c-2.1,0-6.6,0.1-13.5,0.4v-2c1.6,0,2.8-0.5,3.4-1.4
	c0.6-1,1-2.8,1-5.4v-30.9c0-2-0.4-3.5-1.1-4.5c-0.7-1-1.9-1.5-3.5-1.5c-1.8,0-3.5,0.7-4.8,2c-1.3,1.3-2,2.9-2,4.8v30
	c0,2.6,0.3,4.4,1,5.4c0.6,0.9,1.8,1.4,3.4,1.4v2c-6.3-0.2-10.5-0.4-12.5-0.4c-2.2,0-6.9,0.1-14.2,0.4v-2c2,0,3.3-0.5,4.1-1.4
	c0.8-1,1.2-2.8,1.2-5.4v-30.1c0-2.9-0.4-5-1.2-6.4c-0.8-1.3-2.1-2-4.1-2v-2c2,0.2,4,0.3,5.9,0.3c6.6,0,12.1-0.4,16.5-1.3v6.8
	C283.1,432.1,288.1,429.7,295.3,429.7z M330.5,406.1c3.3,0,5.8,0.7,7.6,2.1c1.8,1.4,2.8,3.4,2.8,6.1c0,2.7-0.9,4.7-2.8,6.1
	c-1.8,1.4-4.3,2.1-7.6,2.1c-3.4,0-5.9-0.7-7.7-2.1c-1.8-1.4-2.7-3.4-2.7-6.1c0-2.7,0.9-4.7,2.7-6.1
	C324.6,406.8,327.1,406.1,330.5,406.1z M339.6,471.5c0,2.6,0.4,4.4,1.1,5.4c0.8,0.9,2.2,1.4,4.2,1.4v2c-6.8-0.2-11.3-0.4-13.5-0.4
	s-6.9,0.1-14.2,0.4v-2c2,0,3.3-0.5,4.1-1.4c0.8-1,1.2-2.8,1.2-5.4v-30.1c0-2.9-0.4-5-1.2-6.4c-0.8-1.3-2.1-2-4.1-2v-2
	c2,0.2,4,0.3,5.9,0.3c6.6,0,12.1-0.4,16.5-1.3V471.5z M378.2,471.3c4.6,0,8.4-2.1,11.5-6.4l1.6,0.6c-1.4,4.4-3.8,8.2-7.1,11.4
	c-3.3,3.2-7.5,4.8-12.7,4.8c-6.6,0-12-2.1-16-6.2c-4-4.1-6-10.7-6-19.8c0-8.7,2.2-15.2,6.6-19.5c4.5-4.4,10.4-6.6,17.8-6.6
	c12,0,18,7.1,18,21.3h-24.5c-0.1,0.8-0.1,1.9-0.1,3.4c0,6.1,1.1,10.4,3.1,13C372.6,470,375.2,471.3,378.2,471.3z M373.3,431.9
	c-3.6,0-5.6,5.8-6.3,17.3h11c0.1-5.1-0.3-9.2-1.1-12.4C376.1,433.5,374.9,431.9,373.3,431.9z M418.3,431.1h9.3v1.9h-9.3v39.4
	c0,1.3,0.2,2.1,0.7,2.7c0.4,0.5,1.2,0.8,2.2,0.8c0.8,0,1.6-0.2,2.6-0.7c0.9-0.4,1.8-1.1,2.6-2.1l1.4,1.1c-2.9,5-7.4,7.5-13.5,7.5
	c-4.4,0-7.6-1.1-9.8-3.2c-1.3-1.3-2.2-3-2.7-4.9c-0.4-2-0.6-4.7-0.6-8.3V433H394v-1.9h7.2v-11.2c3.4,0,6.5-0.3,9.2-1
	c2.8-0.7,5.4-1.8,7.9-3.2V431.1z M448.7,478.9h1.3c4.2,0,7.8-1.4,10.9-4.2c3.2-2.9,5-7.5,5.5-14h1.9c0,9.5,0.1,16.1,0.4,19.9
	c-5.2-0.2-11.5-0.4-18.6-0.4c-6.3,0-13,0.2-20.1,0.5l21.3-48.3h-1.9c-4.1,0-7.7,1.4-10.6,4.3c-3,2.8-4.7,7.4-5.2,13.9h-1.9
	c0-9.5-0.1-16.1-0.4-19.9c5.3,0.2,11.5,0.4,18.6,0.4c6.3,0,13.1-0.2,20.1-0.5L448.7,478.9z M494.3,429.7c2.5,0,4.8,0.3,6.9,0.9
	c2.2,0.5,3.9,1.1,5,1.7c0.7,0.4,1.3,0.6,1.7,0.6c1.3,0,2.1-1,2.4-3h1.9c-0.2,3.3-0.4,9-0.4,17.1H510c-0.5-4.2-1.7-7.7-3.6-10.6
	c-1.8-2.9-4.5-4.4-8.1-4.4c-1.6,0-2.9,0.5-4,1.4c-1.1,1-1.6,2.2-1.6,3.9c0,2.1,0.7,4,2.1,5.6c1.4,1.6,3.6,3.6,6.6,5.9
	c0.1,0.1,1,0.8,2.8,2.2c3.6,2.9,6.2,5.5,7.8,7.8c1.7,2.2,2.5,5,2.5,8.3c0,2.8-0.9,5.3-2.6,7.6c-1.7,2.2-4.1,4-7,5.2
	c-2.9,1.2-6.1,1.8-9.6,1.8c-4,0-7.2-0.8-9.8-2.4c-1.1-0.6-2-1-2.7-1.2c-0.7-0.2-1.4-0.4-2.1-0.4c-1.2,0-2.1,1.1-2.7,3.3h-1.9
	c0.2-3.6,0.4-9.9,0.4-19h1.9c0.6,5.2,2,9.4,4.2,12.5c2.2,3.2,5,4.8,8.4,4.8c1.6,0,2.9-0.4,3.9-1.3c1.1-0.9,1.6-2.2,1.6-3.9
	c0-1.8-0.4-3.4-1.1-4.8c-0.7-1.4-1.6-2.6-2.7-3.7c-1-1.1-2.7-2.8-5-4.8c-2.7-2.5-4.7-4.4-6.1-5.9c-1.4-1.5-2.6-3.1-3.6-5
	c-1-2-1.4-4.1-1.4-6.5c0-2.7,0.8-5.1,2.5-7.2c1.6-2.1,3.8-3.7,6.6-4.8C488.2,430.3,491.1,429.7,494.3,429.7z M544.4,429.7
	c2.6,0,5,0.3,7.1,0.9c2.2,0.5,4,1.2,5.4,2c1.8,1,3.2,2.4,4.2,4.1c1,1.7,1.5,3.6,1.5,5.8c0,2.7-0.9,4.9-2.6,6.7
	c-1.7,1.7-3.9,2.6-6.5,2.6c-2.7,0-4.9-0.8-6.5-2.3c-1.5-1.6-2.3-3.7-2.3-6.3c0-2.3,0.7-4.3,2.2-6c1.5-1.8,3.4-2.9,5.6-3.5
	c-0.9-0.8-2.2-1.1-3.8-1.1c-4.1,0-6.9,2.2-8.5,6.5c-1.7,4.3-2.5,9.4-2.5,15.4c0,6.1,1.1,10.4,3.4,13c2.3,2.6,5.1,3.9,8.5,3.9
	c4.6,0,8.5-2.1,11.5-6.4l1.6,0.6c-1.4,4.4-3.8,8.2-7.1,11.4c-3.3,3.2-7.5,4.8-12.7,4.8c-6.9,0-12.4-2.1-16.6-6.2
	c-4.2-4.1-6.3-10.7-6.3-19.8c0-8.7,2.2-15.2,6.6-19.5C531.2,431.9,537.1,429.7,544.4,429.7z M589.1,436.9c2.9-4.8,7.9-7.1,15.1-7.1
	c5.1,0,8.6,1.3,10.7,3.8c1,1.1,1.7,2.7,2.1,4.7c0.4,1.9,0.7,4.4,0.7,7.6v25.7c0,2.6,0.4,4.4,1.1,5.4c0.8,0.9,2.2,1.4,4.2,1.4v2
	c-6.8-0.2-11.3-0.4-13.3-0.4c-2.2,0-6.6,0.1-13.5,0.4v-2c1.6,0,2.8-0.5,3.4-1.4c0.6-1,1-2.8,1-5.4v-30.9c0-2-0.4-3.5-1.1-4.5
	c-0.7-1-1.9-1.5-3.5-1.5c-1.8,0-3.4,0.7-4.8,2c-1.3,1.3-2,2.9-2,4.8v30c0,2.6,0.3,4.4,1,5.4c0.6,0.9,1.8,1.4,3.4,1.4v2
	c-6.3-0.2-10.5-0.4-12.5-0.4c-2.1,0-6.9,0.1-14.2,0.4v-2c2,0,3.3-0.5,4.1-1.4c0.8-1,1.2-2.8,1.2-5.4v-54.1c0-2.9-0.4-5-1.2-6.4
	c-0.8-1.3-2.1-2-4.1-2v-2c2,0.2,3.9,0.3,5.9,0.3c6.6,0,12.1-0.4,16.5-1.3V436.9z M655.7,471.3c4.6,0,8.5-2.1,11.5-6.4l1.6,0.6
	c-1.4,4.4-3.8,8.2-7.1,11.4c-3.3,3.2-7.5,4.8-12.7,4.8c-6.6,0-12-2.1-16-6.2c-4-4.1-6-10.7-6-19.8c0-8.7,2.2-15.2,6.6-19.5
	c4.5-4.4,10.4-6.6,17.8-6.6c12,0,17.9,7.1,17.9,21.3h-24.5c-0.1,0.8-0.1,1.9-0.1,3.4c0,6.1,1,10.4,3.1,13
	C650,470,652.6,471.3,655.7,471.3z M650.7,431.9c-3.5,0-5.6,5.8-6.3,17.3h11c0.1-5.1-0.3-9.2-1.1-12.4
	C653.6,433.5,652.4,431.9,650.7,431.9z"/>
<path class="et8" d="M838,241.3c0,1.2,0.2,2,0.7,2.4c0.5,0.5,1.4,0.7,2.6,0.7v1c-2.8-0.1-4.6-0.2-5.4-0.2c-0.9,0-2.9,0-6,0.1l-1.1,0
	v-1c1.6,0,2.8-0.3,3.6-0.8c0.8-0.5,1.2-1.4,1.2-2.8v-8.6c-0.7,1.6-1.6,2.8-2.9,3.7c-1.2,0.8-2.6,1.2-4.1,1.2c-2,0-3.7-0.5-5.3-1.5
	c-1.5-1-2.8-2.5-3.6-4.6c-0.9-2-1.4-4.5-1.4-7.5c0-2.9,0.5-5.4,1.4-7.4c0.9-2.1,2.2-3.6,3.8-4.6c1.6-1,3.5-1.6,5.5-1.6
	c1.7,0,3.1,0.3,4.2,0.9c1.1,0.6,2.1,1.5,2.8,2.8l3.5-3.8l0.9,0.3c-0.2,0.8-0.4,1.8-0.4,2.9V241.3z M827.9,235.6
	c1.2,0,2.4-0.5,3.4-1.5c1-1,1.8-2.4,2.2-4.2v-15.5c-0.6-1.1-1.5-1.9-2.5-2.5c-1.1-0.6-2.3-0.8-3.6-0.8c-2,0-3.6,1-4.7,3.1
	c-1.1,2.1-1.6,5.2-1.6,9.4c0,4,0.6,7,1.8,9.1C824,234.6,825.7,235.6,827.9,235.6z M866.1,231c0,1.5,0.3,2.6,0.9,3.4
	c0.6,0.7,1.6,1,3,1v1c-1-0.1-2.1-0.1-3.1-0.1c-2.1,0-3.8,0.2-5.2,0.7v-5.9c-0.8,2.1-1.9,3.6-3.4,4.5c-1.5,1-3.1,1.5-4.8,1.5
	c-2.3,0-4-0.6-5.2-1.9c-0.6-0.7-1-1.5-1.3-2.5c-0.2-1-0.4-2.4-0.4-4v-12.5c0-1.5-0.3-2.7-0.9-3.4c-0.6-0.7-1.5-1.1-2.9-1.1v-1
	c1,0.1,2.1,0.1,3.1,0.1c2.1,0,3.8-0.2,5.2-0.7v19.6c0,1.3,0.1,2.3,0.2,3.1c0.2,0.8,0.5,1.4,1,1.9c0.6,0.5,1.4,0.8,2.5,0.8
	c1.3,0,2.4-0.4,3.5-1.2c1-0.8,1.8-1.9,2.4-3.2c0.6-1.4,0.9-2.9,0.9-4.6v-10.3c0-1.5-0.3-2.7-0.8-3.4c-0.6-0.7-1.6-1.1-3-1.1v-1
	c1,0.1,2.1,0.1,3.1,0.1c2.1,0,3.8-0.2,5.2-0.7V231z M884.8,209.9c3.4,0,6.1,1.1,8.2,3.4c2.1,2.2,3.1,5.6,3.1,10.2
	c0,4.6-1,8-3.1,10.2c-2.1,2.2-4.8,3.4-8.2,3.4c-3.4,0-6.2-1.1-8.2-3.4c-2.1-2.2-3.1-5.6-3.1-10.2c0-4.6,1-8,3.1-10.2
	C878.6,211,881.4,209.9,884.8,209.9z M884.8,210.9c-2,0-3.6,1-4.8,3.1c-1.2,2-1.8,5.2-1.8,9.5c0,4.3,0.6,7.5,1.8,9.5
	c1.2,2,2.8,3.1,4.8,3.1s3.6-1,4.8-3.1c1.2-2,1.8-5.2,1.8-9.5c0-4.3-0.6-7.5-1.8-9.5C888.3,211.9,886.8,210.9,884.8,210.9z
	 M907.9,210.7h7.4v1h-7.4V231c0,1.5,0.3,2.6,0.8,3.2c0.6,0.7,1.4,1,2.4,1c1,0,1.9-0.4,2.7-1.2s1.3-2.2,1.8-4.1l1,0.2
	c-0.8,4.6-3,6.9-6.5,6.9c-1.1,0-2.1-0.1-2.8-0.4s-1.4-0.7-2-1.2c-0.7-0.7-1.2-1.6-1.5-2.7c-0.3-1.1-0.4-2.5-0.4-4.3v-16.8h-4.8v-1
	h4.8V203c1.9-0.1,3.4-0.3,4.5-0.7V210.7z M939.3,230.4c-0.6,1.8-1.7,3.4-3.4,4.8c-1.6,1.3-3.6,2-6,2c-2.4,0-4.4-0.5-6.1-1.6
	c-1.7-1.1-3.1-2.6-4-4.6c-0.9-2-1.4-4.2-1.4-6.8c0-2.9,0.5-5.4,1.4-7.5c0.9-2.1,2.2-3.8,3.9-4.9c1.7-1.2,3.7-1.8,6-1.8
	c3,0,5.3,0.9,6.9,2.8c1.6,1.8,2.5,4.6,2.5,8.2h-15.7c-0.1,0.9-0.1,2-0.1,3.2c0,2.2,0.4,4.1,1.1,5.8c0.7,1.6,1.7,2.9,2.8,3.8
	c1.2,0.9,2.5,1.3,3.8,1.3c1.6,0,3-0.4,4.2-1.1c1.2-0.8,2.3-2.1,3.1-3.9L939.3,230.4z M929.5,210.9c-1.6,0-2.9,0.8-4,2.3
	c-1.1,1.5-1.8,3.8-2.1,6.8h10.9c0.1-2.6-0.3-4.8-1.1-6.5C932.3,211.7,931.1,210.9,929.5,210.9z M951.8,209.9c1.2,0,2.3,0.2,3.2,0.6
	c0.9,0.4,1.7,0.8,2.2,1.3c0.4,0.3,0.7,0.4,0.9,0.4c0.6,0,1-0.7,1.1-2.2h1.1c-0.1,1.6-0.2,4.5-0.2,8.5h-1.1c-0.4-2.2-1.1-4-2.2-5.5
	c-1-1.4-2.6-2.1-4.6-2.1c-1.2,0-2.2,0.4-2.9,1c-0.8,0.7-1.2,1.6-1.2,2.8c0,1.2,0.4,2.1,1.2,2.9c0.8,0.8,2.1,1.7,3.9,2.8
	c0.3,0.2,0.8,0.4,1.4,0.9c1.5,1,2.8,1.9,3.7,2.6c0.9,0.8,1.7,1.6,2.2,2.6c0.6,1,0.9,2.1,0.9,3.5c0,2.2-0.8,3.9-2.5,5.1
	c-1.6,1.2-3.6,1.9-6,1.9c-1.5,0-2.8-0.2-4-0.7c-0.7-0.4-1.4-0.8-2-1.4c-0.1-0.1-0.3-0.2-0.5-0.2c-0.2,0-0.4,0.2-0.6,0.5
	c-0.2,0.3-0.3,0.8-0.4,1.4h-1.1c0.1-1.9,0.2-5.2,0.2-10h1.2c0.4,3.1,1,5.5,2,7c1,1.5,2.6,2.3,4.9,2.3c1.2,0,2.2-0.4,3.1-1.2
	s1.4-2,1.4-3.6c0-1.3-0.5-2.4-1.4-3.3c-0.9-0.9-2.3-2-4.3-3.2c-1.6-1-2.9-1.9-3.8-2.5c-0.9-0.7-1.6-1.5-2.2-2.5
	c-0.6-1-0.9-2.1-0.9-3.4c0-2.1,0.7-3.7,2.1-4.8C947.9,210.5,949.7,209.9,951.8,209.9z"/>
<path class="et8" d="M833.2,285.9c1.8,0,3.4,0.5,4.8,1.5c1.4,1,2.6,2.4,3.4,4.2s1.2,4.1,1.2,6.7c0,2.6-0.4,5-1.2,7.2
	c-0.8,2.2-2.1,4.1-3.8,5.5c-1.7,1.4-3.8,2.1-6.4,2.1c-1.3,0-2.4-0.2-3.5-0.8c-1-0.5-1.8-1.2-2.4-2v6.4c0,1.4,0.4,2.3,1.2,2.8
	c0.8,0.5,2,0.8,3.6,0.8v1l-1.2,0c-3.1-0.1-5.1-0.1-6-0.1c-0.8,0-2.6,0.1-5.4,0.2v-1c1.2,0,2.1-0.2,2.5-0.7c0.5-0.4,0.8-1.2,0.8-2.4
	v-25.2c0-1.5-0.3-2.7-0.9-3.4c-0.6-0.7-1.5-1.1-2.9-1.1v-1c1,0.1,2.1,0.1,3.1,0.1c2.1,0,3.8-0.2,5.2-0.7v5.3c0.7-1.7,1.8-3.1,3.2-4
	C829.8,286.4,831.4,285.9,833.2,285.9z M830.5,311.9c4.8,0,7.1-4.3,7.1-12.9c0-7.7-1.9-11.6-5.8-11.6c-1.5,0-2.8,0.6-4,1.7
	c-1.2,1.1-2.1,2.6-2.6,4.6v15c0.5,1,1.1,1.8,2.1,2.4C828.2,311.6,829.3,311.9,830.5,311.9z M861.9,285.9c1.3,0,2.4,0.4,3.2,1.2
	c0.9,0.8,1.3,1.7,1.3,2.8c0,0.9-0.3,1.6-0.8,2.2c-0.5,0.6-1.2,0.9-2,0.9c-0.7,0-1.4-0.2-1.9-0.7c-0.5-0.5-0.8-1.1-0.8-1.9
	c0-1.1,0.6-2,1.7-2.7c-0.2-0.3-0.6-0.5-1-0.5c-1.3,0-2.5,0.5-3.5,1.5c-1.1,1-1.9,2.2-2.5,3.7c-0.6,1.5-0.9,2.9-0.9,4.1v10.6
	c0,1.5,0.4,2.6,1.3,3.2c0.9,0.6,2.2,0.9,4,0.9v1l-1.2,0c-3.4-0.1-5.6-0.2-6.5-0.2c-0.9,0-2.8,0.1-5.9,0.2v-1c1.4,0,2.4-0.2,3-0.8
	c0.6-0.5,0.8-1.5,0.8-2.9v-15.6c0-1.5-0.3-2.7-0.8-3.4c-0.6-0.7-1.6-1.1-3-1.1v-1c1.1,0.1,2.1,0.1,3.1,0.1c2.1,0,3.8-0.2,5.2-0.7
	v6.2c0.6-1.7,1.6-3.2,2.9-4.5C858.8,286.6,860.3,285.9,861.9,285.9z M879.9,285.9c3.4,0,6.1,1.1,8.2,3.4c2.1,2.2,3.1,5.6,3.1,10.2
	c0,4.6-1.1,8-3.1,10.2c-2.1,2.2-4.8,3.4-8.2,3.4s-6.1-1.1-8.2-3.4c-2.1-2.2-3.1-5.6-3.1-10.2c0-4.6,1-8,3.1-10.2
	C873.7,287,876.5,285.9,879.9,285.9z M879.9,286.9c-2,0-3.6,1-4.8,3.1c-1.2,2-1.8,5.2-1.8,9.5c0,4.3,0.6,7.5,1.8,9.5
	c1.2,2,2.8,3.1,4.8,3.1s3.6-1,4.8-3.1c1.2-2,1.8-5.2,1.8-9.5c0-4.3-0.6-7.5-1.8-9.5C883.5,287.9,881.9,286.9,879.9,286.9z
	 M911.8,285.9c2.3,0,4.1,0.6,5.3,1.9c0.6,0.7,1.1,1.5,1.4,2.5c0.3,1,0.4,2.3,0.4,4v13.4c0,1.4,0.3,2.3,0.9,2.9
	c0.6,0.5,1.6,0.8,3,0.8v1c-3.1-0.1-5.1-0.2-6-0.2c-0.9,0-2.8,0.1-5.6,0.2v-1c1.2,0,2.1-0.2,2.5-0.8c0.5-0.5,0.8-1.5,0.8-2.9v-14.5
	c0-1.9-0.3-3.3-0.8-4.2c-0.5-1-1.6-1.5-3.2-1.5c-1.4,0-2.6,0.4-3.6,1.2c-1.1,0.8-1.9,1.9-2.5,3.3c-0.6,1.4-0.9,2.9-0.9,4.6v11.1
	c0,1.4,0.2,2.3,0.7,2.9c0.5,0.5,1.4,0.8,2.6,0.8v1c-2.8-0.1-4.7-0.2-5.6-0.2c-0.9,0-2.9,0.1-6,0.2v-1c1.4,0,2.4-0.2,2.9-0.8
	c0.6-0.5,0.9-1.5,0.9-2.9v-15.6c0-1.5-0.3-2.7-0.9-3.4c-0.6-0.7-1.5-1.1-2.9-1.1v-1c1.1,0.1,2.1,0.1,3.1,0.1c2.1,0,3.8-0.2,5.2-0.7
	v5.9c0.8-2.1,2-3.7,3.5-4.6C908.3,286.4,909.9,285.9,911.8,285.9z M947.5,307c0,1.5,0.3,2.6,0.8,3.4c0.6,0.7,1.6,1,3,1v1
	c-1-0.1-2.1-0.1-3.1-0.1c-2.1,0-3.8,0.2-5.2,0.7v-5.9c-0.8,2.1-1.9,3.6-3.4,4.5c-1.5,1-3.1,1.5-4.8,1.5c-2.3,0-4-0.6-5.2-1.9
	c-0.6-0.7-1-1.5-1.3-2.5c-0.2-1-0.4-2.4-0.4-4v-12.5c0-1.5-0.3-2.7-0.9-3.4c-0.6-0.7-1.5-1.1-2.9-1.1v-1c1,0.1,2.1,0.1,3.1,0.1
	c2.1,0,3.8-0.2,5.2-0.7v19.6c0,1.3,0.1,2.3,0.2,3.1c0.2,0.8,0.5,1.4,1,1.9c0.6,0.5,1.4,0.8,2.6,0.8c1.3,0,2.4-0.4,3.4-1.2
	c1-0.8,1.8-1.9,2.4-3.2c0.6-1.4,0.9-2.9,0.9-4.6v-10.3c0-1.5-0.3-2.7-0.9-3.4c-0.6-0.7-1.6-1.1-3-1.1v-1c1,0.1,2.1,0.1,3.1,0.1
	c2.1,0,3.8-0.2,5.2-0.7V307z M970.7,285.9c2.3,0,4.1,0.6,5.3,1.9c0.6,0.7,1.1,1.5,1.4,2.5s0.4,2.3,0.4,4v13.4c0,1.4,0.3,2.3,0.9,2.9
	c0.6,0.5,1.5,0.8,3,0.8v1c-3.1-0.1-5.1-0.2-6-0.2c-0.9,0-2.8,0.1-5.6,0.2v-1c1.2,0,2.1-0.2,2.5-0.8c0.5-0.5,0.8-1.5,0.8-2.9v-14.5
	c0-1.9-0.3-3.3-0.8-4.2c-0.5-1-1.6-1.5-3.2-1.5c-1.4,0-2.6,0.4-3.6,1.2c-1.1,0.8-1.9,1.9-2.5,3.3c-0.6,1.4-0.9,2.9-0.9,4.6v11.1
	c0,1.4,0.2,2.3,0.7,2.9c0.5,0.5,1.4,0.8,2.6,0.8v1c-2.8-0.1-4.7-0.2-5.6-0.2c-0.9,0-2.9,0.1-6,0.2v-1c1.4,0,2.4-0.2,3-0.8
	c0.6-0.5,0.9-1.5,0.9-2.9v-15.6c0-1.5-0.3-2.7-0.9-3.4c-0.6-0.7-1.5-1.1-3-1.1v-1c1.1,0.1,2.1,0.1,3.1,0.1c2.1,0,3.8-0.2,5.2-0.7
	v5.9c0.8-2.1,2-3.7,3.4-4.6C967.1,286.4,968.8,285.9,970.7,285.9z M996.2,285.9c2.2,0,4.2,0.5,5.8,1.6c1.6,1,2.4,2.3,2.4,3.9
	c0,0.9-0.2,1.5-0.8,2s-1.1,0.8-1.9,0.8c-0.8,0-1.4-0.2-2-0.6c-0.5-0.5-0.8-1.1-0.8-1.9c0-0.7,0.2-1.3,0.6-1.8c0.4-0.5,0.9-0.8,1.5-1
	c-0.3-0.6-0.9-1.1-1.8-1.5c-0.8-0.4-1.7-0.6-2.7-0.6c-1.2,0-2.4,0.4-3.4,1.2c-1.1,0.8-2,2.1-2.6,3.9c-0.7,1.8-1.1,4.2-1.1,7.2
	c0,4.1,0.7,7.1,2,9c1.3,1.9,3.1,2.8,5.2,2.8c1.4,0,2.8-0.4,4-1.2c1.3-0.8,2.4-2.1,3.2-3.9l0.9,0.4c-0.6,1.9-1.6,3.5-3.2,4.9
	c-1.5,1.4-3.5,2.1-6,2.1c-2.1,0-4-0.5-5.6-1.6c-1.7-1.1-3-2.6-4-4.6c-1-2-1.5-4.4-1.5-7c0-2.7,0.5-5.1,1.5-7.2
	c1-2.1,2.4-3.7,4.1-4.9C991.9,286.5,994,285.9,996.2,285.9z M1013.7,274.1c0.9,0,1.6,0.3,2.2,1c0.6,0.6,1,1.4,1,2.2
	c0,0.9-0.3,1.6-1,2.2c-0.6,0.6-1.4,0.9-2.2,0.9s-1.6-0.3-2.2-0.9c-0.6-0.6-0.9-1.4-0.9-2.2c0-0.9,0.3-1.6,0.9-2.2
	C1012.1,274.4,1012.9,274.1,1013.7,274.1z M1016.3,307.7c0,1.4,0.3,2.3,0.9,2.9c0.6,0.5,1.5,0.8,2.9,0.8v1c-3.1-0.1-5.1-0.2-6-0.2
	s-3,0.1-6,0.2v-1c1.4,0,2.4-0.2,2.9-0.8c0.6-0.5,0.9-1.5,0.9-2.9v-15.6c0-1.5-0.3-2.7-0.9-3.4c-0.6-0.7-1.5-1.1-2.9-1.1v-1
	c1.1,0.1,2.1,0.1,3.1,0.1c2.1,0,3.8-0.2,5.2-0.7V307.7z M1029.4,312.7c-2.1,0-3.7-0.5-4.7-1.6c-1-1.1-1.5-2.5-1.5-4.4
	c0-1.5,0.4-2.7,1.2-3.7c0.8-1,1.8-1.7,2.9-2.3c1.1-0.6,2.6-1.2,4.4-1.8c1.9-0.6,3.2-1.2,4.1-1.8c0.9-0.5,1.4-1.2,1.4-2.1V292
	c0-1.9-0.4-3.2-1.2-4c-0.8-0.7-1.9-1.1-3.4-1.1c-2.3,0-4,0.6-5,1.8c0.7,0.2,1.2,0.5,1.7,1c0.5,0.5,0.7,1.2,0.7,2
	c0,0.8-0.3,1.5-0.8,2c-0.5,0.5-1.2,0.7-2.1,0.7c-0.9,0-1.6-0.3-2.1-0.9c-0.5-0.6-0.7-1.3-0.7-2.1c0-0.8,0.2-1.5,0.5-2
	c0.4-0.5,1-1.1,1.8-1.6c0.8-0.6,1.8-1,3.1-1.4s2.6-0.6,4-0.6c2.6,0,4.6,0.6,5.9,1.9c0.8,0.8,1.4,1.7,1.7,2.8
	c0.3,1.1,0.4,2.5,0.4,4.2v13.9c0,0.8,0.1,1.4,0.4,1.8s0.6,0.6,1.2,0.6c0.4,0,0.8-0.1,1.1-0.2c0.4-0.2,0.8-0.5,1.2-0.8l0.5,0.9
	c-0.9,0.7-1.6,1.1-2.2,1.5c-0.6,0.3-1.4,0.4-2.3,0.4c-1.6,0-2.7-0.4-3.4-1.2c-0.6-0.8-1-1.9-1-3.2c-1,1.7-2.1,2.8-3.4,3.5
	C1032.5,312.4,1031,312.7,1029.4,312.7z M1031.6,310.7c2.2,0,4.1-1.3,5.6-3.8v-9.8c-0.3,0.5-0.7,0.9-1.2,1.1
	c-0.5,0.3-1.4,0.7-2.4,1.2c-1.3,0.5-2.3,1-3.1,1.5c-0.8,0.5-1.4,1.1-2,2c-0.6,0.8-0.9,1.9-0.9,3.2c0,1.5,0.4,2.6,1.1,3.4
	S1030.4,310.7,1031.6,310.7z M1055.6,286.7h7.4v1h-7.4V307c0,1.5,0.3,2.6,0.8,3.2c0.6,0.7,1.4,1,2.4,1c1,0,1.9-0.4,2.6-1.2
	c0.7-0.8,1.4-2.2,1.9-4.1l1,0.2c-0.8,4.6-3,6.9-6.5,6.9c-1.1,0-2.1-0.1-2.8-0.4c-0.7-0.3-1.4-0.7-2-1.2c-0.7-0.7-1.2-1.6-1.5-2.7
	c-0.3-1.1-0.4-2.5-0.4-4.3v-16.8h-4.8v-1h4.8V279c1.9-0.1,3.4-0.3,4.5-0.7V286.7z M1071,274.1c0.9,0,1.6,0.3,2.2,1
	c0.6,0.6,1,1.4,1,2.2c0,0.9-0.3,1.6-1,2.2c-0.6,0.6-1.4,0.9-2.2,0.9c-0.9,0-1.6-0.3-2.2-0.9c-0.6-0.6-0.9-1.4-0.9-2.2
	c0-0.9,0.3-1.6,0.9-2.2C1069.4,274.4,1070.1,274.1,1071,274.1z M1073.6,307.7c0,1.4,0.3,2.3,0.9,2.9c0.6,0.5,1.5,0.8,2.9,0.8v1
	c-3.1-0.1-5.1-0.2-6-0.2c-1,0-3,0.1-6,0.2v-1c1.4,0,2.4-0.2,2.9-0.8c0.6-0.5,0.9-1.5,0.9-2.9v-15.6c0-1.5-0.3-2.7-0.9-3.4
	c-0.6-0.7-1.5-1.1-2.9-1.1v-1c1.1,0.1,2.1,0.1,3.1,0.1c2.1,0,3.8-0.2,5.2-0.7V307.7z M1092.2,285.9c3.4,0,6.1,1.1,8.2,3.4
	c2.1,2.2,3.2,5.6,3.2,10.2c0,4.6-1.1,8-3.2,10.2c-2.1,2.2-4.8,3.4-8.2,3.4s-6.1-1.1-8.2-3.4c-2.1-2.2-3.1-5.6-3.1-10.2
	c0-4.6,1-8,3.1-10.2C1086,287,1088.8,285.9,1092.2,285.9z M1092.2,286.9c-2,0-3.6,1-4.8,3.1c-1.2,2-1.8,5.2-1.8,9.5
	c0,4.3,0.6,7.5,1.8,9.5c1.2,2,2.8,3.1,4.8,3.1s3.6-1,4.8-3.1c1.2-2,1.8-5.2,1.8-9.5c0-4.3-0.6-7.5-1.8-9.5
	C1095.8,287.9,1094.2,286.9,1092.2,286.9z M1124.1,285.9c2.3,0,4.1,0.6,5.3,1.9c0.6,0.7,1.1,1.5,1.4,2.5s0.4,2.3,0.4,4v13.4
	c0,1.4,0.3,2.3,0.9,2.9c0.6,0.5,1.6,0.8,3,0.8v1c-3.1-0.1-5.1-0.2-6-0.2c-0.9,0-2.8,0.1-5.6,0.2v-1c1.2,0,2.1-0.2,2.5-0.8
	c0.5-0.5,0.8-1.5,0.8-2.9v-14.5c0-1.9-0.3-3.3-0.8-4.2c-0.5-1-1.6-1.5-3.2-1.5c-1.4,0-2.6,0.4-3.6,1.2c-1.1,0.8-1.9,1.9-2.5,3.3
	c-0.6,1.4-0.9,2.9-0.9,4.6v11.1c0,1.4,0.2,2.3,0.7,2.9c0.5,0.5,1.4,0.8,2.6,0.8v1c-2.8-0.1-4.7-0.2-5.6-0.2c-0.9,0-2.9,0.1-6,0.2v-1
	c1.4,0,2.4-0.2,2.9-0.8c0.6-0.5,0.9-1.5,0.9-2.9v-15.6c0-1.5-0.3-2.7-0.9-3.4c-0.6-0.7-1.5-1.1-2.9-1.1v-1c1.1,0.1,2.1,0.1,3.1,0.1
	c2.1,0,3.8-0.2,5.2-0.7v5.9c0.8-2.1,2-3.7,3.5-4.6C1120.6,286.4,1122.2,285.9,1124.1,285.9z"/>
<path class="et8" d="M832.1,378.9c2.8,0,5.1,1.2,6.9,3.5c1.8,2.3,2.6,5.7,2.6,10.1c0,2.9-0.5,5.4-1.5,7.4c-1,2-2.3,3.6-4,4.6
	c-1.7,1-3.5,1.6-5.6,1.6c-1.2,0-2.4-0.2-3.6-0.8c-1.1-0.5-2.1-1.2-3-2.2l-3.5,3l-0.9-0.3c0.2-0.8,0.4-1.8,0.4-2.9v-30.7
	c0-1.5-0.3-2.6-0.9-3.4c-0.6-0.7-1.5-1-2.9-1v-1.1c1.1,0.1,2.1,0.1,3.1,0.1c2.1,0,3.8-0.2,5.2-0.7v18c0.7-1.7,1.8-3,3.1-3.9
	C828.9,379.4,830.4,378.9,832.1,378.9z M830.1,404.9c2.2,0,3.9-1,5-3c1.1-2,1.7-5.2,1.7-9.4c0-4.1-0.5-7.1-1.5-9.1s-2.5-3-4.6-3
	c-1.4,0-2.7,0.6-3.9,1.7c-1.2,1.1-2,2.6-2.5,4.5v15.9c0.8,0.8,1.6,1.4,2.6,1.9C828,404.7,829,404.9,830.1,404.9z M857.7,378.9
	c3.4,0,6.1,1.1,8.2,3.4c2.1,2.2,3.2,5.6,3.2,10.2c0,4.6-1.1,8-3.2,10.2c-2.1,2.2-4.8,3.4-8.2,3.4s-6.1-1.1-8.2-3.4
	c-2.1-2.2-3.1-5.6-3.1-10.2c0-4.6,1-8,3.1-10.2C851.5,380,854.3,378.9,857.7,378.9z M857.7,379.9c-2,0-3.6,1-4.8,3.1
	c-1.2,2-1.8,5.2-1.8,9.5c0,4.3,0.6,7.5,1.8,9.5c1.2,2,2.8,3.1,4.8,3.1s3.6-1,4.8-3.1c1.2-2,1.8-5.2,1.8-9.5c0-4.3-0.6-7.5-1.8-9.5
	C861.3,380.9,859.7,379.9,857.7,379.9z M885.1,378.9c3.4,0,6.1,1.1,8.2,3.4c2.1,2.2,3.1,5.6,3.1,10.2c0,4.6-1.1,8-3.1,10.2
	c-2.1,2.2-4.8,3.4-8.2,3.4s-6.1-1.1-8.2-3.4c-2.1-2.2-3.1-5.6-3.1-10.2c0-4.6,1-8,3.1-10.2C878.9,380,881.7,378.9,885.1,378.9z
	 M885.1,379.9c-2,0-3.6,1-4.8,3.1c-1.2,2-1.8,5.2-1.8,9.5c0,4.3,0.6,7.5,1.8,9.5c1.2,2,2.8,3.1,4.8,3.1s3.6-1,4.8-3.1
	c1.2-2,1.8-5.2,1.8-9.5c0-4.3-0.6-7.5-1.8-9.5C888.7,380.9,887.1,379.9,885.1,379.9z M921.9,401.7c0.6,0.8,1.2,1.4,1.7,1.9
	c0.5,0.4,1.1,0.6,1.8,0.8v1c-2-0.1-3.4-0.2-4.1-0.2c-0.9,0-2.8,0.1-5.5,0.2v-1c0.5,0,0.8-0.1,1.1-0.2c0.3-0.2,0.4-0.4,0.4-0.7
	s-0.1-0.5-0.3-0.8l-5.8-8.4c-0.6-0.8-1.1-1.4-1.6-1.6c-0.5-0.3-1.2-0.5-2.1-0.6v8.7c0,1.4,0.2,2.3,0.7,2.9c0.5,0.5,1.4,0.8,2.6,0.8
	v1c-2.8-0.1-4.6-0.2-5.5-0.2c-1,0-3,0.1-6,0.2v-1c1.4,0,2.4-0.2,2.9-0.8c0.6-0.5,0.9-1.5,0.9-2.9v-28.6c0-1.5-0.3-2.6-0.9-3.3
	c-0.6-0.7-1.5-1.1-2.9-1.1v-1c1.1,0.1,2.1,0.1,3.1,0.1c2.1,0,3.8-0.2,5.2-0.7V391c1-0.1,1.8-0.4,2.4-0.6c0.7-0.3,1.3-0.8,1.9-1.4
	l3.7-3.8c1.1-1.1,1.6-2,1.6-2.8c0-0.6-0.4-1-1.1-1.2c-0.7-0.3-1.5-0.5-2.6-0.5v-1c2.3,0.1,4.2,0.2,5.6,0.2c1.6,0,3-0.1,4.4-0.2v1
	c-1.6,0.1-3.1,0.9-4.5,2.4l-6.1,6.4L921.9,401.7z M936.2,378.9c1.2,0,2.3,0.2,3.2,0.6s1.7,0.8,2.2,1.3c0.4,0.3,0.7,0.4,0.9,0.4
	c0.6,0,1-0.7,1.1-2.2h1.1c-0.1,1.6-0.2,4.5-0.2,8.5h-1.1c-0.4-2.2-1.1-4-2.1-5.5c-1-1.4-2.6-2.1-4.6-2.1c-1.2,0-2.2,0.4-3,1
	c-0.8,0.7-1.1,1.6-1.1,2.8c0,1.2,0.4,2.1,1.2,2.9c0.8,0.8,2.1,1.7,3.8,2.8c0.3,0.2,0.8,0.4,1.4,0.9c1.5,1,2.8,1.9,3.7,2.6
	s1.7,1.6,2.2,2.6c0.6,1,0.9,2.1,0.9,3.5c0,2.2-0.8,3.9-2.5,5.1c-1.6,1.2-3.6,1.9-6,1.9c-1.5,0-2.8-0.2-4-0.7c-0.7-0.4-1.4-0.8-2-1.4
	c-0.1-0.1-0.3-0.2-0.5-0.2c-0.2,0-0.5,0.2-0.6,0.5c-0.2,0.3-0.3,0.8-0.4,1.4h-1.2c0.1-1.9,0.2-5.2,0.2-10h1.1c0.4,3.1,1,5.5,2,7
	c1,1.5,2.6,2.3,5,2.3c1.2,0,2.2-0.4,3.1-1.2c0.9-0.8,1.3-2,1.3-3.6c0-1.3-0.4-2.4-1.3-3.3c-0.9-0.9-2.3-2-4.3-3.2
	c-1.6-1-2.9-1.9-3.8-2.5c-0.9-0.7-1.6-1.5-2.2-2.5c-0.6-1-0.9-2.1-0.9-3.4c0-2.1,0.7-3.7,2.1-4.8
	C932.3,379.5,934.1,378.9,936.2,378.9z"/>
<path class="et8" d="M833.2,471.9c1.8,0,3.4,0.5,4.8,1.5c1.4,1,2.6,2.4,3.4,4.2s1.2,4.1,1.2,6.7c0,2.6-0.4,5-1.2,7.2
	c-0.8,2.2-2.1,4.1-3.8,5.5c-1.7,1.4-3.8,2.1-6.4,2.1c-1.3,0-2.4-0.2-3.5-0.8c-1-0.5-1.8-1.2-2.4-2v6.4c0,1.4,0.4,2.3,1.2,2.8
	c0.8,0.5,2,0.8,3.6,0.8v1l-1.2,0c-3.1-0.1-5.1-0.1-6-0.1c-0.8,0-2.6,0.1-5.4,0.2v-1c1.2,0,2.1-0.2,2.5-0.7c0.5-0.4,0.8-1.2,0.8-2.4
	v-25.2c0-1.5-0.3-2.7-0.9-3.4c-0.6-0.7-1.5-1.1-2.9-1.1v-1c1,0.1,2.1,0.1,3.1,0.1c2.1,0,3.8-0.2,5.2-0.7v5.3c0.7-1.7,1.8-3.1,3.2-4
	C829.8,472.4,831.4,471.9,833.2,471.9z M830.5,497.9c4.8,0,7.1-4.3,7.1-12.9c0-7.7-1.9-11.6-5.8-11.6c-1.5,0-2.8,0.6-4,1.7
	c-1.2,1.1-2.1,2.6-2.6,4.6v15c0.5,1,1.1,1.8,2.1,2.4C828.2,497.6,829.3,497.9,830.5,497.9z M854.2,477.9c0.8-2.1,2-3.6,3.4-4.5
	c1.5-1,3.2-1.5,5.1-1.5c2.3,0,4.1,0.6,5.3,1.9c0.6,0.7,1.1,1.5,1.4,2.5c0.3,1,0.4,2.3,0.4,4v13.4c0,1.4,0.3,2.3,0.9,2.9
	c0.6,0.5,1.5,0.8,3,0.8v1c-3.1-0.1-5.1-0.2-6-0.2c-0.9,0-2.8,0.1-5.6,0.2v-1c1.2,0,2.1-0.2,2.5-0.8c0.5-0.5,0.8-1.5,0.8-2.9v-14.5
	c0-1.9-0.3-3.3-0.8-4.2c-0.5-1-1.6-1.5-3.2-1.5c-1.4,0-2.6,0.4-3.6,1.1c-1,0.8-1.9,1.9-2.5,3.2c-0.6,1.4-0.9,2.9-0.9,4.7v11.1
	c0,1.4,0.2,2.3,0.7,2.9c0.5,0.5,1.4,0.8,2.6,0.8v1c-2.8-0.1-4.7-0.2-5.6-0.2c-0.9,0-2.9,0.1-6,0.2v-1c1.4,0,2.4-0.2,3-0.8
	c0.6-0.5,0.9-1.5,0.9-2.9v-28.5c0-1.5-0.3-2.6-0.9-3.4c-0.6-0.7-1.5-1-3-1v-1.1c1.1,0.1,2.1,0.1,3.1,0.1c2.1,0,3.8-0.2,5.2-0.7
	V477.9z M881.4,460.1c0.9,0,1.6,0.3,2.2,1c0.6,0.6,0.9,1.4,0.9,2.2c0,0.9-0.3,1.6-0.9,2.2c-0.6,0.6-1.4,0.9-2.2,0.9
	c-0.9,0-1.6-0.3-2.2-0.9c-0.6-0.6-1-1.4-1-2.2c0-0.9,0.3-1.6,1-2.2C879.8,460.4,880.6,460.1,881.4,460.1z M884,493.7
	c0,1.4,0.3,2.3,0.8,2.9c0.6,0.5,1.6,0.8,3,0.8v1c-3.1-0.1-5.1-0.2-6-0.2c-1,0-3,0.1-6.1,0.2v-1c1.4,0,2.4-0.2,3-0.8
	c0.6-0.5,0.9-1.5,0.9-2.9v-15.6c0-1.5-0.3-2.7-0.9-3.4c-0.6-0.7-1.6-1.1-3-1.1v-1c1.1,0.1,2.1,0.1,3.1,0.1c2.1,0,3.8-0.2,5.2-0.7
	V493.7z M898.3,493.7c0,1.4,0.3,2.3,0.9,2.9c0.6,0.5,1.5,0.8,2.9,0.8v1c-3.1-0.1-5.1-0.2-6-0.2c-1,0-3,0.1-6,0.2v-1
	c1.4,0,2.4-0.2,2.9-0.8c0.6-0.5,0.9-1.5,0.9-2.9v-28.6c0-1.5-0.3-2.6-0.9-3.3c-0.6-0.7-1.5-1.1-2.9-1.1v-1c1,0.1,2.1,0.1,3.1,0.1
	c2.1,0,3.8-0.2,5.2-0.7V493.7z M916.4,471.9c3.4,0,6.1,1.1,8.2,3.4c2.1,2.2,3.1,5.6,3.1,10.2c0,4.6-1,8-3.1,10.2
	c-2.1,2.2-4.8,3.4-8.2,3.4s-6.1-1.1-8.2-3.4c-2.1-2.2-3.1-5.6-3.1-10.2c0-4.6,1-8,3.1-10.2C910.3,473,913,471.9,916.4,471.9z
	 M916.4,472.9c-2,0-3.6,1-4.8,3.1c-1.2,2-1.8,5.2-1.8,9.5c0,4.3,0.6,7.5,1.8,9.5c1.2,2,2.8,3.1,4.8,3.1s3.6-1,4.8-3.1
	c1.2-2,1.8-5.2,1.8-9.5c0-4.3-0.6-7.5-1.8-9.5C920,473.9,918.4,472.9,916.4,472.9z M940.5,471.9c1.2,0,2.3,0.2,3.2,0.6
	c0.9,0.4,1.7,0.8,2.2,1.3c0.4,0.3,0.7,0.4,0.9,0.4c0.6,0,1-0.7,1.1-2.2h1.1c-0.1,1.6-0.2,4.5-0.2,8.5h-1.1c-0.4-2.2-1.1-4-2.1-5.5
	c-1-1.4-2.6-2.1-4.6-2.1c-1.2,0-2.2,0.4-3,1c-0.8,0.7-1.1,1.6-1.1,2.8c0,1.2,0.4,2.1,1.2,2.9c0.8,0.8,2.1,1.7,3.9,2.8
	c0.3,0.2,0.8,0.4,1.4,0.9c1.5,1,2.8,1.9,3.7,2.6c0.9,0.8,1.7,1.6,2.2,2.6c0.6,1,0.9,2.1,0.9,3.5c0,2.2-0.8,3.9-2.5,5.1
	c-1.6,1.2-3.6,1.9-6.1,1.9c-1.5,0-2.8-0.2-3.9-0.7c-0.7-0.4-1.4-0.8-2.1-1.4c-0.1-0.1-0.3-0.2-0.4-0.2c-0.2,0-0.5,0.2-0.6,0.5
	c-0.2,0.3-0.3,0.8-0.4,1.4h-1.1c0.1-1.9,0.2-5.2,0.2-10h1.1c0.4,3.1,1,5.5,2,7c1,1.5,2.6,2.3,5,2.3c1.2,0,2.2-0.4,3.1-1.2
	c0.9-0.8,1.4-2,1.4-3.6c0-1.3-0.4-2.4-1.4-3.3c-0.9-0.9-2.3-2-4.3-3.2c-1.6-1-2.9-1.9-3.8-2.5c-0.9-0.7-1.6-1.5-2.2-2.5
	c-0.6-1-0.9-2.1-0.9-3.4c0-2.1,0.7-3.7,2.1-4.8C936.6,472.5,938.4,471.9,940.5,471.9z M966.2,471.9c3.4,0,6.1,1.1,8.2,3.4
	c2.1,2.2,3.2,5.6,3.2,10.2c0,4.6-1.1,8-3.2,10.2c-2.1,2.2-4.8,3.4-8.2,3.4s-6.1-1.1-8.2-3.4c-2.1-2.2-3.1-5.6-3.1-10.2
	c0-4.6,1-8,3.1-10.2C960,473,962.8,471.9,966.2,471.9z M966.2,472.9c-2,0-3.6,1-4.8,3.1c-1.2,2-1.8,5.2-1.8,9.5
	c0,4.3,0.6,7.5,1.8,9.5c1.2,2,2.8,3.1,4.8,3.1s3.6-1,4.8-3.1c1.2-2,1.8-5.2,1.8-9.5c0-4.3-0.6-7.5-1.8-9.5
	C969.8,473.9,968.2,472.9,966.2,472.9z M997.3,471.9c1.8,0,3.4,0.5,4.8,1.5c1.4,1,2.5,2.4,3.4,4.2c0.8,1.9,1.2,4.1,1.2,6.7
	c0,2.6-0.4,5-1.2,7.2c-0.8,2.2-2.1,4.1-3.8,5.5c-1.7,1.4-3.8,2.1-6.4,2.1c-1.3,0-2.4-0.2-3.5-0.8c-1-0.5-1.8-1.2-2.4-2v6.4
	c0,1.4,0.4,2.3,1.2,2.8c0.8,0.5,2,0.8,3.6,0.8v1l-1.1,0c-3.1-0.1-5.1-0.1-6-0.1c-0.8,0-2.6,0.1-5.4,0.2v-1c1.2,0,2.1-0.2,2.5-0.7
	c0.5-0.4,0.8-1.2,0.8-2.4v-25.2c0-1.5-0.3-2.7-0.9-3.4c-0.6-0.7-1.5-1.1-2.9-1.1v-1c1,0.1,2.1,0.1,3.1,0.1c2.1,0,3.8-0.2,5.2-0.7
	v5.3c0.7-1.7,1.8-3.1,3.2-4C993.9,472.4,995.5,471.9,997.3,471.9z M994.6,497.9c4.8,0,7.2-4.3,7.2-12.9c0-7.7-1.9-11.6-5.8-11.6
	c-1.5,0-2.9,0.6-4,1.7c-1.2,1.1-2.1,2.6-2.6,4.6v15c0.5,1,1.1,1.8,2,2.4C992.2,497.6,993.3,497.9,994.6,497.9z M1018.2,477.9
	c0.8-2.1,2-3.6,3.5-4.5c1.5-1,3.2-1.5,5-1.5c2.3,0,4.1,0.6,5.3,1.9c0.6,0.7,1.1,1.5,1.3,2.5c0.3,1,0.4,2.3,0.4,4v13.4
	c0,1.4,0.3,2.3,0.8,2.9c0.6,0.5,1.6,0.8,3,0.8v1c-3.1-0.1-5.1-0.2-6-0.2c-0.9,0-2.8,0.1-5.6,0.2v-1c1.2,0,2.1-0.2,2.6-0.8
	c0.5-0.5,0.8-1.5,0.8-2.9v-14.5c0-1.9-0.3-3.3-0.8-4.2c-0.5-1-1.6-1.5-3.2-1.5c-1.4,0-2.6,0.4-3.6,1.1c-1,0.8-1.9,1.9-2.5,3.2
	c-0.6,1.4-0.9,2.9-0.9,4.7v11.1c0,1.4,0.2,2.3,0.7,2.9c0.5,0.5,1.4,0.8,2.6,0.8v1c-2.8-0.1-4.7-0.2-5.6-0.2c-0.9,0-2.9,0.1-6,0.2v-1
	c1.4,0,2.4-0.2,2.9-0.8c0.6-0.5,0.9-1.5,0.9-2.9v-28.5c0-1.5-0.3-2.6-0.9-3.4c-0.6-0.7-1.5-1-2.9-1v-1.1c1.1,0.1,2.1,0.1,3.1,0.1
	c2.1,0,3.8-0.2,5.2-0.7V477.9z M1058.8,472.8c1.5,0,2.7,0,3.8-0.1v1c-0.7,0.1-1.3,0.4-1.8,0.9c-0.5,0.5-1,1.4-1.5,2.6l-8.2,21.5
	l-1.7,4.4c-0.6,1.6-1.4,2.8-2.1,3.5c-0.5,0.5-1.1,0.8-1.8,1c-0.7,0.2-1.4,0.3-2.1,0.3c-1,0-1.8-0.3-2.4-0.8c-0.6-0.5-1-1.3-1-2.2
	c0-0.8,0.2-1.4,0.7-1.9c0.5-0.5,1.1-0.7,1.9-0.7c0.7,0,1.3,0.2,1.8,0.6c0.5,0.4,0.8,1,0.8,1.8c0,1-0.5,1.8-1.4,2.2
	c0.1,0,0.2,0,0.3,0c1.8,0,3.2-1.3,4.2-3.9l1.8-4.5l-9-21.9c-0.6-1.1-1.1-1.9-1.7-2.2c-0.6-0.4-1.1-0.6-1.7-0.6v-1
	c1.4,0.2,3.1,0.3,4.9,0.3c1.7,0,3.8-0.1,6.5-0.3v1c-1.2,0-2.1,0.1-2.6,0.3c-0.5,0.2-0.8,0.7-0.8,1.4c0,0.7,0.2,1.5,0.6,2.5l6,14.9
	l5.6-14.4c0.4-1,0.5-1.8,0.5-2.3c0-0.8-0.3-1.3-0.9-1.7c-0.6-0.4-1.6-0.6-2.9-0.7v-1C1056.4,472.7,1057.8,472.8,1058.8,472.8z"/>
<path class="et8" d="M839.4,570.1c-0.6,0-1.1-0.2-1.5-0.6c-0.4-0.4-0.6-1-0.6-1.8c0-0.7,0.2-1.4,0.5-2.3c-0.9,0.4-1.5,0.8-2,1.2
	c-0.5,0.4-1,1-1.4,1.6c0.8,1.2,1.1,2.6,1.1,4.5c0,2.6-0.8,4.6-2.4,5.9c-1.6,1.3-3.7,2-6.4,2h0c-1.1,0.6-1.9,1.2-2.5,1.8
	c-0.6,0.5-0.9,1.1-0.9,1.8c0,1.1,0.8,1.6,2.4,1.6h6.2c2.3,0,4.1,0.5,5.6,1.5c1.5,1,2.2,2.4,2.2,4.4c0,1.6-0.5,3.1-1.5,4.5
	c-1,1.4-2.6,2.5-4.6,3.3s-4.4,1.2-7.2,1.2c-2.9,0-5.3-0.4-7.3-1.4c-1.9-0.9-2.9-2.2-2.9-3.9c0-1.1,0.4-2.1,1.3-2.9
	c0.9-0.8,2.2-1.5,3.9-2l0.3,0.8c-0.7,0.2-1.3,0.7-1.8,1.4c-0.4,0.7-0.7,1.5-0.7,2.3c0,1.5,0.7,2.7,2.1,3.5c1.4,0.8,3.3,1.2,5.6,1.2
	c2.6,0,4.8-0.5,6.6-1.5c1.8-1,2.8-2.5,2.8-4.5c0-1.2-0.4-2.1-1.3-2.8c-0.8-0.7-2.3-1-4.5-1h-3.7c-2,0-3.5-0.2-4.8-0.8
	c-1.2-0.5-1.8-1.5-1.8-3c0-1,0.4-2,1.1-3c0.8-0.9,2-1.9,3.8-2.8c-2.2-0.2-4-1-5.3-2.3c-1.3-1.3-2-3.1-2-5.5c0-2.6,0.8-4.6,2.4-5.9
	c1.6-1.3,3.7-2,6.4-2c3.1,0,5.5,0.9,7,2.6c0.6-0.9,1.4-1.6,2.4-2.2c1-0.6,1.9-0.9,2.9-0.9c0.9,0,1.6,0.2,2.1,0.8s0.8,1.2,0.8,2.2
	c0,0.9-0.3,1.6-0.8,2.1C840.6,569.9,840,570.1,839.4,570.1z M826.7,579.8c1.3,0,2.3-0.5,3-1.6c0.7-1.1,1.1-2.9,1.1-5.4
	c0-2.6-0.4-4.4-1.1-5.4c-0.7-1.1-1.7-1.6-3-1.6s-2.4,0.5-3,1.6c-0.7,1-1,2.8-1,5.4c0,2.6,0.3,4.4,1,5.4
	C824.4,579.3,825.4,579.8,826.7,579.8z M855.5,564.9c3.4,0,6.1,1.1,8.2,3.4c2.1,2.2,3.1,5.6,3.1,10.2c0,4.6-1,8-3.1,10.2
	c-2.1,2.2-4.8,3.4-8.2,3.4s-6.1-1.1-8.2-3.4c-2.1-2.2-3.1-5.6-3.1-10.2c0-4.6,1-8,3.1-10.2C849.3,566,852.1,564.9,855.5,564.9z
	 M855.5,565.9c-2,0-3.6,1-4.8,3.1c-1.2,2-1.8,5.2-1.8,9.5c0,4.3,0.6,7.5,1.8,9.5c1.2,2,2.8,3.1,4.8,3.1s3.6-1,4.8-3.1
	c1.2-2,1.8-5.2,1.8-9.5c0-4.3-0.6-7.5-1.8-9.5C859,566.9,857.5,565.9,855.5,565.9z M893.3,585.9c0,1.5,0.3,2.7,0.9,3.4
	c0.6,0.7,1.5,1.1,2.9,1.1v1c-1-0.1-2.1-0.1-3.1-0.1c-2.1,0-3.8,0.2-5.2,0.7v-4.4c-0.6,1.5-1.5,2.6-2.7,3.4c-1.2,0.8-2.7,1.2-4.4,1.2
	c-3.2,0-5.7-1.2-7.5-3.5c-1.8-2.3-2.7-5.7-2.6-10.1c0-2.9,0.5-5.4,1.5-7.4c1-2.1,2.4-3.6,4.1-4.6c1.7-1,3.6-1.6,5.7-1.6
	c1.3,0,2.4,0.2,3.5,0.8c1.1,0.5,1.9,1.2,2.5,2.2v-9.7c0-1.5-0.3-2.6-0.9-3.3c-0.6-0.7-1.5-1.1-2.9-1.1v-1c1.1,0.1,2.1,0.1,3.1,0.1
	c2.1,0,3.8-0.2,5.2-0.7V585.9z M883.2,590.6c1.3,0,2.5-0.5,3.5-1.5c1-1,1.8-2.4,2.1-4.2v-14.9c-0.9-2.6-2.8-3.8-5.6-3.8
	c-2.1,0-3.7,1.1-5,3.2c-1.3,2.1-1.9,5.2-1.9,9.2c0,4,0.5,7,1.7,9.1C879.3,589.6,881,590.6,883.2,590.6z M917.8,553.1
	c0.9,0,1.6,0.3,2.2,1c0.6,0.6,0.9,1.4,0.9,2.2c0,0.9-0.3,1.6-0.9,2.2c-0.6,0.6-1.4,0.9-2.2,0.9c-0.9,0-1.6-0.3-2.2-0.9
	c-0.6-0.6-1-1.4-1-2.2c0-0.9,0.3-1.6,1-2.2C916.2,553.4,916.9,553.1,917.8,553.1z M920.4,586.7c0,1.4,0.3,2.3,0.9,2.9
	c0.6,0.5,1.6,0.8,3,0.8v1c-3.1-0.1-5.1-0.2-6.1-0.2c-1,0-3,0.1-6,0.2v-1c1.4,0,2.4-0.2,3-0.8c0.6-0.5,0.8-1.5,0.8-2.9v-15.6
	c0-1.5-0.3-2.7-0.8-3.4c-0.6-0.7-1.6-1.1-3-1.1v-1c1.1,0.1,2.1,0.1,3.1,0.1c2.1,0,3.8-0.2,5.2-0.7V586.7z M935.7,564.9
	c1.2,0,2.3,0.2,3.2,0.6c0.9,0.4,1.7,0.8,2.2,1.3c0.4,0.3,0.7,0.4,0.9,0.4c0.6,0,1-0.7,1.1-2.2h1.2c-0.1,1.6-0.2,4.5-0.2,8.5h-1.1
	c-0.4-2.2-1.1-4-2.1-5.5c-1-1.4-2.6-2.1-4.7-2.1c-1.2,0-2.2,0.4-2.9,1c-0.8,0.7-1.1,1.6-1.1,2.8c0,1.2,0.4,2.1,1.2,2.9
	c0.8,0.8,2.1,1.7,3.9,2.8c0.3,0.2,0.8,0.4,1.4,0.9c1.5,1,2.8,1.9,3.7,2.6c0.9,0.8,1.7,1.6,2.2,2.6c0.6,1,0.9,2.1,0.9,3.5
	c0,2.2-0.8,3.9-2.5,5.1c-1.6,1.2-3.7,1.9-6.1,1.9c-1.5,0-2.8-0.2-3.9-0.7c-0.7-0.4-1.4-0.8-2.1-1.4c-0.1-0.1-0.3-0.2-0.4-0.2
	c-0.2,0-0.5,0.2-0.7,0.5c-0.2,0.3-0.3,0.8-0.4,1.4h-1.1c0.1-1.9,0.2-5.2,0.2-10h1.1c0.4,3.1,1,5.5,2,7c1,1.5,2.6,2.3,4.9,2.3
	c1.2,0,2.2-0.4,3.1-1.2s1.4-2,1.4-3.6c0-1.3-0.5-2.4-1.4-3.3c-0.9-0.9-2.3-2-4.3-3.2c-1.6-1-2.9-1.9-3.8-2.5
	c-0.9-0.7-1.6-1.5-2.2-2.5c-0.6-1-0.9-2.1-0.9-3.4c0-2.1,0.7-3.7,2.1-4.8C931.8,565.5,933.6,564.9,935.7,564.9z M984.3,585.9
	c0,1.5,0.3,2.7,0.8,3.4c0.6,0.7,1.6,1.1,3,1.1v1c-1-0.1-2.1-0.1-3.1-0.1c-2.1,0-3.8,0.2-5.2,0.7v-4.4c-0.6,1.5-1.5,2.6-2.7,3.4
	c-1.2,0.8-2.7,1.2-4.4,1.2c-3.2,0-5.7-1.2-7.6-3.5c-1.8-2.3-2.7-5.7-2.6-10.1c0-2.9,0.5-5.4,1.5-7.4c1-2.1,2.4-3.6,4.1-4.6
	c1.7-1,3.6-1.6,5.7-1.6c1.3,0,2.4,0.2,3.4,0.8c1.1,0.5,1.9,1.2,2.6,2.2v-9.7c0-1.5-0.3-2.6-0.9-3.3c-0.6-0.7-1.6-1.1-3-1.1v-1
	c1.1,0.1,2.1,0.1,3.1,0.1c2.1,0,3.8-0.2,5.2-0.7V585.9z M974.2,590.6c1.3,0,2.5-0.5,3.5-1.5c1-1,1.8-2.4,2.2-4.2v-14.9
	c-0.9-2.6-2.8-3.8-5.6-3.8c-2.1,0-3.7,1.1-5,3.2c-1.3,2.1-1.9,5.2-1.9,9.2c0,4,0.5,7,1.7,9.1C970.2,589.6,971.9,590.6,974.2,590.6z
	 M1012.3,585.4c-0.6,1.8-1.7,3.4-3.4,4.8c-1.6,1.3-3.6,2-5.9,2c-2.4,0-4.4-0.5-6.1-1.6c-1.7-1.1-3.1-2.6-4-4.6
	c-0.9-2-1.4-4.2-1.4-6.8c0-2.9,0.5-5.4,1.4-7.5c0.9-2.1,2.2-3.8,4-4.9c1.7-1.2,3.7-1.8,5.9-1.8c3,0,5.3,0.9,6.9,2.8
	c1.6,1.8,2.5,4.6,2.5,8.2h-15.6c-0.1,0.9-0.1,2-0.1,3.2c0,2.2,0.3,4.1,1,5.8c0.7,1.6,1.7,2.9,2.9,3.8c1.2,0.9,2.4,1.3,3.8,1.3
	c1.6,0,3-0.4,4.2-1.1s2.3-2.1,3.1-3.9L1012.3,585.4z M1002.6,565.9c-1.6,0-2.9,0.8-4.1,2.3c-1.1,1.5-1.8,3.8-2.1,6.8h10.9
	c0.1-2.6-0.3-4.8-1.2-6.5C1005.4,566.7,1004.2,565.9,1002.6,565.9z M1022.6,591.7c-2.1,0-3.7-0.5-4.7-1.6c-1-1.1-1.5-2.5-1.5-4.4
	c0-1.5,0.4-2.7,1.2-3.7c0.8-1,1.8-1.7,2.9-2.3c1.1-0.6,2.6-1.2,4.4-1.8c1.9-0.6,3.2-1.2,4.1-1.8c0.9-0.5,1.4-1.2,1.4-2.1V571
	c0-1.9-0.4-3.2-1.2-4c-0.8-0.7-1.9-1.1-3.4-1.1c-2.3,0-4,0.6-5,1.8c0.7,0.2,1.2,0.5,1.7,1c0.5,0.5,0.7,1.2,0.7,2
	c0,0.8-0.3,1.5-0.8,2c-0.5,0.5-1.2,0.7-2.1,0.7c-0.9,0-1.6-0.3-2.1-0.9c-0.5-0.6-0.7-1.3-0.7-2.1c0-0.8,0.2-1.5,0.5-2
	c0.4-0.5,1-1.1,1.8-1.6c0.8-0.6,1.8-1,3.1-1.4c1.2-0.4,2.6-0.6,4-0.6c2.6,0,4.6,0.6,5.9,1.9c0.8,0.8,1.4,1.7,1.7,2.8
	c0.3,1.1,0.4,2.5,0.4,4.2v13.9c0,0.8,0.1,1.4,0.4,1.8c0.2,0.4,0.6,0.6,1.2,0.6c0.4,0,0.8-0.1,1.1-0.2c0.4-0.2,0.8-0.5,1.2-0.8
	l0.5,0.9c-0.9,0.7-1.6,1.1-2.2,1.5c-0.6,0.3-1.4,0.4-2.3,0.4c-1.6,0-2.7-0.4-3.4-1.2c-0.6-0.8-1-1.9-1-3.2c-1,1.7-2.1,2.8-3.4,3.5
	C1025.7,591.4,1024.2,591.7,1022.6,591.7z M1024.8,589.7c2.2,0,4.1-1.3,5.6-3.8v-9.8c-0.3,0.5-0.7,0.9-1.2,1.1
	c-0.5,0.3-1.4,0.7-2.4,1.2c-1.3,0.5-2.3,1-3.1,1.5c-0.8,0.5-1.4,1.1-2,2c-0.6,0.8-0.9,1.9-0.9,3.2c0,1.5,0.4,2.6,1.1,3.4
	C1022.6,589.3,1023.6,589.7,1024.8,589.7z M1063.6,585.9c0,1.5,0.3,2.7,0.8,3.4c0.6,0.7,1.6,1.1,3,1.1v1c-1-0.1-2.1-0.1-3.1-0.1
	c-2.1,0-3.8,0.2-5.2,0.7v-4.4c-0.6,1.5-1.5,2.6-2.7,3.4c-1.2,0.8-2.7,1.2-4.4,1.2c-3.2,0-5.7-1.2-7.6-3.5c-1.8-2.3-2.7-5.7-2.6-10.1
	c0-2.9,0.5-5.4,1.5-7.4c1-2.1,2.4-3.6,4.1-4.6c1.7-1,3.6-1.6,5.7-1.6c1.3,0,2.4,0.2,3.4,0.8c1.1,0.5,1.9,1.2,2.6,2.2v-9.7
	c0-1.5-0.3-2.6-0.9-3.3c-0.6-0.7-1.6-1.1-3-1.1v-1c1.1,0.1,2.1,0.1,3.1,0.1c2.1,0,3.8-0.2,5.2-0.7V585.9z M1053.4,590.6
	c1.3,0,2.5-0.5,3.5-1.5c1-1,1.8-2.4,2.2-4.2v-14.9c-0.9-2.6-2.8-3.8-5.6-3.8c-2.1,0-3.7,1.1-5,3.2c-1.3,2.1-1.9,5.2-1.9,9.2
	c0,4,0.5,7,1.7,9.1C1049.5,589.6,1051.2,590.6,1053.4,590.6z"/>
<path class="et8" d="M834.1,662.9c2.3,0,4.1,0.6,5.3,1.9c0.6,0.7,1.1,1.5,1.4,2.5s0.4,2.3,0.4,4v13.4c0,1.4,0.3,2.3,0.9,2.9
	c0.6,0.5,1.6,0.8,3,0.8v1c-3.1-0.1-5.1-0.2-6-0.2c-0.9,0-2.8,0.1-5.6,0.2v-1c1.2,0,2.1-0.2,2.5-0.8c0.5-0.5,0.8-1.5,0.8-2.9v-14.5
	c0-1.9-0.3-3.3-0.8-4.2c-0.5-1-1.6-1.5-3.2-1.5c-1.4,0-2.6,0.4-3.6,1.2c-1.1,0.8-1.9,1.9-2.5,3.3c-0.6,1.4-0.9,2.9-0.9,4.6v11.1
	c0,1.4,0.2,2.3,0.7,2.9c0.5,0.5,1.4,0.8,2.6,0.8v1c-2.8-0.1-4.7-0.2-5.6-0.2c-0.9,0-2.9,0.1-6,0.2v-1c1.4,0,2.4-0.2,2.9-0.8
	c0.6-0.5,0.9-1.5,0.9-2.9v-15.6c0-1.5-0.3-2.7-0.9-3.4c-0.6-0.7-1.5-1.1-2.9-1.1v-1c1.1,0.1,2.1,0.1,3.1,0.1c2.1,0,3.8-0.2,5.2-0.7
	v5.9c0.8-2.1,2-3.7,3.5-4.6C830.5,663.4,832.2,662.9,834.1,662.9z M852.8,651.1c0.9,0,1.6,0.3,2.2,1c0.6,0.6,1,1.4,1,2.2
	c0,0.9-0.3,1.6-1,2.2c-0.6,0.6-1.4,0.9-2.2,0.9c-0.9,0-1.6-0.3-2.2-0.9c-0.6-0.6-1-1.4-1-2.2c0-0.9,0.3-1.6,1-2.2
	C851.2,651.4,851.9,651.1,852.8,651.1z M855.4,684.7c0,1.4,0.3,2.3,0.9,2.9c0.6,0.5,1.5,0.8,2.9,0.8v1c-3.1-0.1-5.1-0.2-6-0.2
	c-1,0-3,0.1-6.1,0.2v-1c1.4,0,2.4-0.2,3-0.8c0.6-0.5,0.9-1.5,0.9-2.9v-15.6c0-1.5-0.3-2.7-0.9-3.4c-0.6-0.7-1.5-1.1-3-1.1v-1
	c1.1,0.1,2.1,0.1,3.1,0.1c2.1,0,3.8-0.2,5.2-0.7V684.7z M869.6,668.9c0.8-2.1,2-3.6,3.5-4.5c1.5-1,3.2-1.5,5-1.5
	c2.3,0,4.1,0.6,5.3,1.9c0.6,0.7,1.1,1.5,1.4,2.5c0.3,1,0.4,2.3,0.4,4v13.4c0,1.4,0.3,2.3,0.9,2.9c0.6,0.5,1.5,0.8,2.9,0.8v1
	c-3.1-0.1-5.1-0.2-6-0.2c-0.9,0-2.8,0.1-5.6,0.2v-1c1.2,0,2.1-0.2,2.6-0.8c0.5-0.5,0.8-1.5,0.8-2.9v-14.5c0-1.9-0.3-3.3-0.8-4.2
	c-0.5-1-1.6-1.5-3.2-1.5c-1.4,0-2.6,0.4-3.6,1.1c-1,0.8-1.9,1.9-2.4,3.2c-0.6,1.4-0.9,2.9-0.9,4.7v11.1c0,1.4,0.2,2.3,0.7,2.9
	c0.5,0.5,1.4,0.8,2.6,0.8v1c-2.8-0.1-4.7-0.2-5.6-0.2c-0.9,0-2.9,0.1-6,0.2v-1c1.4,0,2.4-0.2,3-0.8c0.6-0.5,0.8-1.5,0.8-2.9v-28.5
	c0-1.5-0.3-2.6-0.8-3.4c-0.6-0.7-1.6-1-3-1v-1.1c1.1,0.1,2.1,0.1,3.1,0.1c2.1,0,3.8-0.2,5.2-0.7V668.9z M896.9,651.1
	c0.9,0,1.6,0.3,2.2,1c0.6,0.6,1,1.4,1,2.2c0,0.9-0.3,1.6-1,2.2c-0.6,0.6-1.4,0.9-2.2,0.9c-0.9,0-1.6-0.3-2.2-0.9
	c-0.6-0.6-0.9-1.4-0.9-2.2c0-0.9,0.3-1.6,0.9-2.2C895.2,651.4,896,651.1,896.9,651.1z M899.5,684.7c0,1.4,0.3,2.3,0.9,2.9
	c0.6,0.5,1.5,0.8,3,0.8v1c-3.1-0.1-5.1-0.2-6.1-0.2c-1,0-3,0.1-6,0.2v-1c1.4,0,2.4-0.2,2.9-0.8c0.6-0.5,0.9-1.5,0.9-2.9v-15.6
	c0-1.5-0.3-2.7-0.9-3.4c-0.6-0.7-1.5-1.1-2.9-1.1v-1c1.1,0.1,2.1,0.1,3.1,0.1c2.1,0,3.8-0.2,5.2-0.7V684.7z M913.8,684.7
	c0,1.4,0.3,2.3,0.8,2.9c0.6,0.5,1.6,0.8,3,0.8v1c-3.1-0.1-5.1-0.2-6-0.2c-1,0-3,0.1-6.1,0.2v-1c1.4,0,2.4-0.2,3-0.8
	c0.6-0.5,0.9-1.5,0.9-2.9v-28.6c0-1.5-0.3-2.6-0.9-3.3c-0.6-0.7-1.6-1.1-3-1.1v-1c1,0.1,2.1,0.1,3.1,0.1c2.1,0,3.8-0.2,5.2-0.7
	V684.7z M925.8,651.1c0.9,0,1.6,0.3,2.2,1c0.6,0.6,1,1.4,1,2.2c0,0.9-0.3,1.6-1,2.2c-0.6,0.6-1.4,0.9-2.2,0.9
	c-0.9,0-1.6-0.3-2.2-0.9c-0.6-0.6-1-1.4-1-2.2c0-0.9,0.3-1.6,1-2.2C924.2,651.4,924.9,651.1,925.8,651.1z M928.4,684.7
	c0,1.4,0.3,2.3,0.9,2.9c0.6,0.5,1.5,0.8,2.9,0.8v1c-3.1-0.1-5.1-0.2-6-0.2c-1,0-3,0.1-6.1,0.2v-1c1.4,0,2.4-0.2,3-0.8
	c0.6-0.5,0.9-1.5,0.9-2.9v-15.6c0-1.5-0.3-2.7-0.9-3.4c-0.6-0.7-1.5-1.1-3-1.1v-1c1.1,0.1,2.1,0.1,3.1,0.1c2.1,0,3.8-0.2,5.2-0.7
	V684.7z M943.7,662.9c1.2,0,2.3,0.2,3.2,0.6c0.9,0.4,1.7,0.8,2.2,1.3c0.4,0.3,0.7,0.4,0.9,0.4c0.6,0,1-0.7,1.1-2.2h1.1
	c-0.1,1.6-0.2,4.5-0.2,8.5H951c-0.4-2.2-1.1-4-2.1-5.5c-1-1.4-2.6-2.1-4.6-2.1c-1.2,0-2.2,0.4-3,1c-0.8,0.7-1.1,1.6-1.1,2.8
	c0,1.2,0.4,2.1,1.2,2.9c0.8,0.8,2.1,1.7,3.8,2.8c0.3,0.2,0.8,0.4,1.4,0.9c1.5,1,2.8,1.9,3.7,2.6c0.9,0.8,1.7,1.6,2.2,2.6
	c0.6,1,0.9,2.1,0.9,3.5c0,2.2-0.8,3.9-2.5,5.1c-1.6,1.2-3.6,1.9-6,1.9c-1.5,0-2.8-0.2-4-0.7c-0.7-0.4-1.4-0.8-2-1.4
	c-0.1-0.1-0.3-0.2-0.5-0.2c-0.2,0-0.5,0.2-0.6,0.5c-0.2,0.3-0.3,0.8-0.4,1.4h-1.2c0.1-1.9,0.2-5.2,0.2-10h1.1c0.4,3.1,1,5.5,2,7
	c1,1.5,2.6,2.3,5,2.3c1.2,0,2.2-0.4,3.1-1.2c0.9-0.8,1.3-2,1.3-3.6c0-1.3-0.4-2.4-1.3-3.3c-0.9-0.9-2.3-2-4.3-3.2
	c-1.6-1-2.9-1.9-3.8-2.5c-0.9-0.7-1.6-1.5-2.2-2.5c-0.6-1-0.9-2.1-0.9-3.4c0-2.1,0.7-3.7,2.1-4.8
	C939.8,663.5,941.6,662.9,943.7,662.9z M995.5,684.7c0,1.4,0.3,2.3,0.9,2.9c0.6,0.5,1.5,0.8,3,0.8v1c-3.1-0.1-5.1-0.2-6-0.2
	c-0.9,0-2.8,0.1-5.6,0.2v-1c1.2,0,2.1-0.2,2.5-0.8c0.5-0.5,0.8-1.5,0.8-2.9v-14.5c0-1.3-0.1-2.3-0.2-3c-0.1-0.8-0.5-1.5-1-2
	c-0.5-0.5-1.4-0.8-2.5-0.8c-1.3,0-2.4,0.4-3.5,1.2c-1,0.8-1.9,1.9-2.4,3.3c-0.6,1.4-0.9,2.9-0.9,4.6v11.1c0,1.4,0.3,2.3,0.9,2.9
	c0.6,0.5,1.5,0.8,2.9,0.8v1c-3.1-0.1-5.1-0.2-6-0.2c-0.9,0-2.8,0.1-5.6,0.2v-1c1.2,0,2.1-0.2,2.6-0.8c0.5-0.5,0.8-1.5,0.8-2.9v-14.5
	c0-1.3-0.1-2.3-0.2-3c-0.1-0.8-0.5-1.5-1.1-2c-0.5-0.5-1.4-0.8-2.5-0.8c-1.3,0-2.4,0.4-3.4,1.2c-1,0.8-1.9,1.9-2.5,3.3
	c-0.6,1.4-0.9,2.9-0.9,4.6v11.1c0,1.4,0.2,2.3,0.7,2.9c0.5,0.5,1.4,0.8,2.6,0.8v1c-2.8-0.1-4.7-0.2-5.6-0.2c-0.9,0-2.9,0.1-6,0.2v-1
	c1.4,0,2.4-0.2,3-0.8c0.6-0.5,0.8-1.5,0.8-2.9v-15.6c0-1.5-0.3-2.7-0.8-3.4c-0.6-0.7-1.6-1.1-3-1.1v-1c1.1,0.1,2.1,0.1,3.1,0.1
	c2.1,0,3.8-0.2,5.2-0.7v5.9c0.8-2.1,1.9-3.6,3.4-4.6c1.5-1,3.1-1.5,4.8-1.5c2.3,0,4,0.6,5.2,1.9c0.8,0.9,1.3,2.2,1.5,4
	c0.8-2.1,2-3.6,3.5-4.5c1.5-0.9,3.1-1.4,4.8-1.4c2.3,0,4,0.6,5.2,1.9c0.6,0.7,1,1.5,1.2,2.5c0.3,1,0.4,2.4,0.4,4V684.7z"/>
<path class="et11" d="M682.3,461.9l124.5-230 M682.3,461.9l124.5-150.5 M682.3,461.9l124.5-68 M682.3,461.9l124.5,28.5 M682.3,461.9
	l124.5,124.5 M682.3,461.9l124.5,217"/>
</svg>
