<?xml version="1.0" encoding="utf-8"?>
<!-- Generator: Adobe Illustrator 25.2.1, SVG Export Plug-In . SVG Version: 6.00 Build 0)  -->
<svg version="1.1" id="Layer_1" xmlns="http://www.w3.org/2000/svg" xmlns:xlink="http://www.w3.org/1999/xlink" x="0px" y="0px"
	 viewBox="0 0 1369 466" style="enable-background:new 0 0 1369 466;" xml:space="preserve">
<style type="text/css">
	.ft0{fill:none;stroke:#323F4B;stroke-width:0.5;}
	.ft1{fill:#222222;stroke:#3E3E3E;stroke-width:0.5;}
	.ft2{fill:#3E3E3E;}
	.ft3{fill:#222222;stroke:#E3E3E3;stroke-width:0.5;}
	.ft4{fill:#E3E3E3;}
	.ft5{fill:#EBEBF0;}
	.ft6{opacity:0.4;fill:#EBEBF0;enable-background:new    ;}
	.ft7{opacity:0.1;fill:#CCCCCE;enable-background:new    ;}
	.ft8{fill:#9D80A4;}
	.ft9{opacity:0.2;fill:#CCCCCE;enable-background:new    ;}
	.ft10{fill:#C4C4C4;}
	.ft11{opacity:0.2;fill:#EBEBF0;enable-background:new    ;}
	.ft12{fill:#969696;}
	.ft13{fill:#888888;}
	.ft14{fill:none;stroke:#4A4A4B;}
	.ft15{fill:#D22273;stroke:#D22273;}
	.ft16{fill:#FFFFFF;}
	.ft17{fill:#087F8C;stroke:#087F8C;}
	.ft18{fill:#BB9F06;stroke:#BB9F06;}
	.ft19{fill:#34222A;}
	.ft20{fill:#FFFFFF;fill-opacity:0.6;}
	.ft21{fill:#1F2B2D;}
	.ft22{fill:#087F8C;}
	.ft23{fill:#312F1F;}
	.ft24{fill:#8F8F8F;stroke:#8F8F8F;}
	.ft25{fill:#2D2D2D;}
</style>
<line class="ft0" x1="61" y1="48.6" x2="61" y2="391.6"/>
<circle class="ft1" cx="60.8" cy="168.6" r="15.8"/>
<path class="ft2" d="M64.5,174.6H57v-1.1l3-3c0.9-0.9,1.5-1.6,1.8-2c0.3-0.4,0.5-0.8,0.7-1.2c0.1-0.4,0.2-0.8,0.2-1.2
	c0-0.6-0.2-1.1-0.6-1.4c-0.4-0.4-0.9-0.5-1.5-0.5c-0.5,0-0.9,0.1-1.3,0.2c-0.4,0.1-0.9,0.4-1.4,0.9l-0.7-0.9c1-0.9,2.2-1.3,3.4-1.3
	c1.1,0,1.9,0.3,2.5,0.8s0.9,1.3,0.9,2.2c0,0.7-0.2,1.4-0.6,2.2c-0.4,0.7-1.2,1.6-2.3,2.7l-2.5,2.4v0.1h5.9V174.6z"/>
<circle class="ft3" cx="60.8" cy="272.6" r="15.8"/>
<path class="ft4" d="M64,269.9c0,0.7-0.2,1.3-0.6,1.8c-0.4,0.5-1,0.8-1.7,0.9v0.1c0.9,0.1,1.6,0.4,2,0.9c0.4,0.5,0.7,1.1,0.7,1.9
	c0,1.1-0.4,1.9-1.1,2.5c-0.8,0.6-1.8,0.9-3.2,0.9c-0.6,0-1.2,0-1.7-0.1s-1-0.2-1.5-0.5v-1.2c0.5,0.2,1,0.4,1.6,0.6
	c0.6,0.1,1.1,0.2,1.6,0.2c2,0,3-0.8,3-2.3c0-1.4-1.1-2.1-3.3-2.1h-1.1v-1.1h1.1c0.9,0,1.6-0.2,2.1-0.6c0.5-0.4,0.8-0.9,0.8-1.6
	c0-0.6-0.2-1-0.6-1.3c-0.4-0.3-0.9-0.5-1.6-0.5c-0.5,0-1,0.1-1.4,0.2c-0.4,0.1-1,0.4-1.5,0.8l-0.7-0.9c0.5-0.4,1-0.7,1.6-0.9
	c0.6-0.2,1.3-0.3,1.9-0.3c1.1,0,2,0.3,2.6,0.8C63.7,268.3,64,269,64,269.9z"/>
<circle class="ft1" cx="60.8" cy="376.6" r="15.8"/>
<path class="ft2" d="M65,380h-1.7v2.6h-1.2V380h-5.6v-1.1l5.4-7.7h1.4v7.7H65V380z M62.1,378.8V375c0-0.8,0-1.6,0.1-2.5h-0.1
	c-0.2,0.5-0.5,0.9-0.7,1.2l-3.6,5.1H62.1z"/>
<circle class="ft1" cx="60.8" cy="64.6" r="15.8"/>
<path class="ft2" d="M61.8,70.6h-1.3v-8.1c0-0.7,0-1.3,0.1-1.9c-0.1,0.1-0.2,0.2-0.4,0.3c-0.1,0.1-0.8,0.6-1.9,1.5l-0.7-0.9l3-2.3
	h1.1V70.6z"/>
<path class="ft5" d="M260.1,68.6h-2.7V55.7h7.4V58h-4.7v3.3h4.4v2.2h-4.4V68.6z M272,61.4h0.9c0.9,0,1.5-0.1,1.9-0.4
	c0.4-0.3,0.6-0.7,0.6-1.3c0-0.6-0.2-1-0.6-1.3c-0.4-0.3-1.1-0.4-1.9-0.4H272V61.4z M272,63.7v4.9h-2.7V55.7h3.7c1.8,0,3,0.3,3.9,1
	c0.8,0.6,1.2,1.6,1.2,2.9c0,0.8-0.2,1.4-0.6,2s-1,1.1-1.8,1.4c1.9,2.9,3.2,4.8,3.8,5.6h-3l-3.1-4.9H272z M291,68.6l-0.9-3.1h-4.7
	l-0.9,3.1h-2.9l4.5-12.9h3.3l4.6,12.9H291z M289.4,63.3c-0.9-2.8-1.3-4.3-1.5-4.7c-0.1-0.4-0.2-0.6-0.2-0.9
	c-0.2,0.8-0.8,2.6-1.7,5.6H289.4z M302.4,61.4h5.1V68c-0.8,0.3-1.6,0.4-2.3,0.6c-0.7,0.1-1.5,0.2-2.2,0.2c-1.9,0-3.4-0.6-4.5-1.7
	c-1-1.1-1.5-2.8-1.5-4.9c0-2.1,0.6-3.7,1.8-4.9c1.2-1.2,2.8-1.7,4.9-1.7c1.3,0,2.6,0.3,3.8,0.8l-0.9,2.2c-0.9-0.5-1.9-0.7-2.9-0.7
	c-1.2,0-2.1,0.4-2.8,1.2s-1.1,1.9-1.1,3.2c0,1.4,0.3,2.5,0.9,3.2c0.6,0.7,1.4,1.1,2.5,1.1c0.6,0,1.1-0.1,1.7-0.2v-2.7h-2.4V61.4z
	 M318.1,68.6L315,58.5h-0.1c0.1,2.1,0.2,3.4,0.2,4.1v6h-2.4V55.7h3.7l3,9.8h0l3.2-9.8h3.7v12.9h-2.5v-6.1c0-0.3,0-0.6,0-1
	c0-0.4,0-1.4,0.1-3h-0.1l-3.3,10.1H318.1z M339,68.6h-7.4V55.7h7.4V58h-4.7v2.8h4.4V63h-4.4v3.3h4.7V68.6z M355.1,68.6h-3.5
	l-5.6-9.7H346c0.1,1.7,0.2,2.9,0.2,3.7v6.1h-2.4V55.7h3.4l5.6,9.6h0.1c-0.1-1.7-0.1-2.9-0.1-3.5v-6.1h2.4V68.6z M365.3,68.6h-2.7V58
	h-3.5v-2.3h9.7V58h-3.5V68.6z M380.3,65c0,1.2-0.4,2.1-1.3,2.7c-0.8,0.7-2,1-3.5,1c-1.4,0-2.6-0.3-3.6-0.8v-2.5
	c0.9,0.4,1.6,0.7,2.2,0.8c0.6,0.2,1.2,0.2,1.6,0.2c0.6,0,1.1-0.1,1.4-0.3c0.3-0.2,0.5-0.6,0.5-1c0-0.2-0.1-0.5-0.2-0.7
	c-0.1-0.2-0.4-0.4-0.6-0.6c-0.3-0.2-0.8-0.5-1.7-0.9c-0.8-0.4-1.4-0.7-1.8-1.1c-0.4-0.3-0.7-0.7-0.9-1.2c-0.2-0.4-0.4-1-0.4-1.6
	c0-1.1,0.4-2,1.2-2.7c0.8-0.6,1.8-1,3.2-1c0.7,0,1.3,0.1,1.9,0.2c0.6,0.2,1.2,0.4,1.9,0.7l-0.9,2.1c-0.7-0.3-1.2-0.5-1.7-0.6
	c-0.5-0.1-0.9-0.2-1.3-0.2c-0.5,0-0.9,0.1-1.2,0.4c-0.3,0.2-0.4,0.6-0.4,0.9c0,0.2,0.1,0.5,0.2,0.6c0.1,0.2,0.3,0.4,0.5,0.5
	c0.2,0.2,0.8,0.5,1.7,0.9c1.2,0.6,2,1.1,2.5,1.7C380.1,63.5,380.3,64.2,380.3,65z M398.7,68.6h-7.4V55.7h7.4V58h-4.7v2.8h4.4V63
	h-4.4v3.3h4.7V68.6z M413.8,68.6h-3.1l-3-4.9l-3,4.9h-2.9l4.3-6.6l-4-6.2h3l2.8,4.6l2.7-4.6h2.9l-4,6.4L413.8,68.6z M420.2,61.8h0.9
	c0.8,0,1.5-0.2,1.9-0.5c0.4-0.3,0.6-0.8,0.6-1.5c0-0.6-0.2-1.1-0.5-1.4c-0.4-0.3-0.9-0.5-1.6-0.5h-1.2V61.8z M426.3,59.8
	c0,1.4-0.4,2.4-1.3,3.2c-0.9,0.7-2.1,1.1-3.7,1.1h-1.2v4.6h-2.7V55.7h4.1c1.6,0,2.7,0.3,3.6,1C425.9,57.4,426.3,58.4,426.3,59.8z
	 M430.7,68.6V55.7h2.7v10.6h5.2v2.2H430.7z M454.6,62.2c0,2.1-0.5,3.8-1.6,4.9c-1,1.1-2.6,1.7-4.5,1.7c-2,0-3.5-0.6-4.5-1.7
	c-1.1-1.1-1.6-2.8-1.6-4.9c0-2.1,0.5-3.8,1.6-4.9c1.1-1.1,2.6-1.7,4.6-1.7c2,0,3.5,0.6,4.5,1.7C454.1,58.4,454.6,60,454.6,62.2z
	 M445.2,62.2c0,1.4,0.3,2.5,0.8,3.2c0.5,0.7,1.4,1.1,2.5,1.1c2.2,0,3.3-1.4,3.3-4.3c0-2.9-1.1-4.3-3.2-4.3c-1.1,0-1.9,0.4-2.5,1.1
	C445.5,59.6,445.2,60.7,445.2,62.2z M462,61.4h0.9c0.9,0,1.5-0.1,1.9-0.4c0.4-0.3,0.6-0.7,0.6-1.3c0-0.6-0.2-1-0.6-1.3
	c-0.4-0.3-1.1-0.4-1.9-0.4H462V61.4z M462,63.7v4.9h-2.7V55.7h3.7c1.8,0,3,0.3,3.9,1c0.8,0.6,1.3,1.6,1.3,2.9c0,0.8-0.2,1.4-0.6,2
	c-0.4,0.6-1,1.1-1.8,1.4c1.9,2.9,3.2,4.8,3.8,5.6h-3l-3.1-4.9H462z M480.5,68.6h-7.4V55.7h7.4V58h-4.7v2.8h4.4V63h-4.4v3.3h4.7V68.6
	z M487.9,61.4h0.9c0.9,0,1.5-0.1,1.9-0.4c0.4-0.3,0.6-0.7,0.6-1.3c0-0.6-0.2-1-0.6-1.3c-0.4-0.3-1.1-0.4-1.9-0.4h-0.8V61.4z
	 M487.9,63.7v4.9h-2.7V55.7h3.8c1.7,0,3,0.3,3.9,1c0.8,0.6,1.3,1.6,1.3,2.9c0,0.8-0.2,1.4-0.6,2c-0.4,0.6-1,1.1-1.8,1.4
	c1.9,2.9,3.2,4.8,3.8,5.6h-3l-3.1-4.9H487.9z"/>
<path class="ft5" d="M336.2,187.6h-2.7v-7.4l0-1.2l0-1.3c-0.5,0.4-0.8,0.7-0.9,0.9l-1.5,1.2l-1.3-1.6l4.1-3.3h2.2V187.6z
	 M346.2,174.6c1.2,0,2.2,0.3,3,0.9c0.8,0.5,1.1,1.3,1.1,2.3c0,0.6-0.2,1.2-0.5,1.8c-0.4,0.5-1,1-1.8,1.4c1,0.5,1.6,1.1,2.1,1.6
	c0.4,0.6,0.6,1.2,0.6,1.8c0,1.1-0.4,1.9-1.2,2.6c-0.8,0.6-1.9,1-3.3,1c-1.4,0-2.5-0.3-3.3-0.9c-0.8-0.6-1.2-1.4-1.2-2.5
	c0-0.7,0.2-1.4,0.6-1.9s1-1.1,1.9-1.5c-0.7-0.5-1.3-1-1.6-1.5c-0.3-0.5-0.5-1.1-0.5-1.7c0-0.9,0.4-1.7,1.1-2.2
	C344,174.9,345,174.6,346.2,174.6z M344.2,184.2c0,0.5,0.2,0.9,0.5,1.2s0.8,0.4,1.4,0.4c0.7,0,1.2-0.1,1.5-0.4s0.5-0.7,0.5-1.1
	c0-0.4-0.2-0.8-0.5-1.1c-0.3-0.4-0.9-0.7-1.6-1.1C344.8,182.6,344.2,183.3,344.2,184.2z M346.2,176.6c-0.5,0-0.8,0.1-1.1,0.4
	c-0.3,0.2-0.4,0.5-0.4,0.9c0,0.3,0.1,0.7,0.3,0.9c0.2,0.3,0.6,0.6,1.2,0.9c0.6-0.3,1-0.5,1.2-0.8c0.2-0.3,0.3-0.6,0.3-1
	c0-0.4-0.1-0.7-0.4-1C347,176.7,346.6,176.6,346.2,176.6z M355.3,187.6l4.8-10.6h-6.3v-2.3h9.2v1.7l-4.9,11.1H355.3z M373.1,187.6
	h-2.7v-7.4l0-1.2l0-1.3c-0.5,0.4-0.8,0.7-0.9,0.9l-1.5,1.2l-1.3-1.6l4.1-3.3h2.2V187.6z"/>
<path class="ft6" d="M263.2,126.6h-2.7v-7.4l0-1.2l0-1.3c-0.5,0.4-0.8,0.7-0.9,0.9l-1.5,1.2l-1.3-1.6l4.1-3.3h2.2V126.6z
	 M273.2,113.6c1.2,0,2.2,0.3,3,0.9c0.8,0.5,1.1,1.3,1.1,2.3c0,0.6-0.2,1.2-0.5,1.8c-0.4,0.5-1,1-1.8,1.4c1,0.5,1.6,1.1,2.1,1.6
	c0.4,0.6,0.6,1.2,0.6,1.8c0,1.1-0.4,1.9-1.2,2.6c-0.8,0.6-1.9,1-3.3,1c-1.4,0-2.5-0.3-3.3-0.9c-0.8-0.6-1.2-1.4-1.2-2.5
	c0-0.7,0.2-1.4,0.6-1.9s1-1.1,1.9-1.5c-0.7-0.5-1.3-1-1.6-1.5c-0.3-0.5-0.5-1.1-0.5-1.7c0-0.9,0.4-1.7,1.1-2.2
	C271,113.9,272,113.6,273.2,113.6z M271.2,123.2c0,0.5,0.2,0.9,0.5,1.2s0.8,0.4,1.4,0.4c0.7,0,1.2-0.1,1.5-0.4s0.5-0.7,0.5-1.1
	c0-0.4-0.2-0.8-0.5-1.1c-0.3-0.4-0.9-0.7-1.6-1.1C271.8,121.6,271.2,122.3,271.2,123.2z M273.2,115.6c-0.5,0-0.8,0.1-1.1,0.4
	c-0.3,0.2-0.4,0.5-0.4,0.9c0,0.3,0.1,0.7,0.3,0.9c0.2,0.3,0.6,0.6,1.2,0.9c0.6-0.3,1-0.5,1.2-0.8c0.2-0.3,0.3-0.6,0.3-1
	c0-0.4-0.1-0.7-0.4-1C274,115.7,273.6,115.6,273.2,115.6z M281,121.1c0-2.5,0.5-4.4,1.6-5.7c1.1-1.2,2.7-1.9,4.8-1.9
	c0.7,0,1.3,0,1.7,0.1v2.2c-0.5-0.1-1-0.2-1.5-0.2c-0.9,0-1.7,0.1-2.3,0.4c-0.6,0.3-1,0.7-1.3,1.2c-0.3,0.6-0.5,1.3-0.5,2.3h0.1
	c0.6-1,1.5-1.5,2.8-1.5c1.1,0,2,0.4,2.7,1.1s1,1.7,1,3c0,1.4-0.4,2.5-1.2,3.3s-1.9,1.2-3.2,1.2c-1,0-1.8-0.2-2.5-0.7
	c-0.7-0.4-1.2-1.1-1.6-1.9C281.2,123.3,281,122.3,281,121.1z M285.6,124.6c0.6,0,1-0.2,1.3-0.6c0.3-0.4,0.5-0.9,0.5-1.7
	c0-0.6-0.1-1.1-0.4-1.5c-0.3-0.4-0.7-0.6-1.3-0.6c-0.6,0-1,0.2-1.4,0.5c-0.4,0.4-0.6,0.8-0.6,1.2c0,0.7,0.2,1.3,0.5,1.8
	C284.6,124.4,285,124.6,285.6,124.6z M302.3,119.2c0,2.5-0.5,4.4-1.6,5.7c-1.1,1.2-2.7,1.9-4.8,1.9c-0.8,0-1.3-0.1-1.7-0.1v-2.2
	c0.5,0.1,1,0.2,1.5,0.2c0.9,0,1.7-0.1,2.2-0.4c0.6-0.3,1-0.7,1.4-1.2c0.3-0.6,0.5-1.4,0.5-2.4h-0.1c-0.3,0.6-0.7,0.9-1.2,1.2
	c-0.4,0.2-1,0.3-1.7,0.3c-1.1,0-2-0.4-2.6-1.1c-0.6-0.7-1-1.7-1-3c0-1.4,0.4-2.5,1.2-3.3c0.8-0.8,1.9-1.2,3.2-1.2
	c1,0,1.8,0.2,2.5,0.7c0.7,0.4,1.3,1.1,1.6,1.9C302.1,117.1,302.3,118.1,302.3,119.2z M297.6,115.8c-0.6,0-1,0.2-1.3,0.6
	c-0.3,0.4-0.5,0.9-0.5,1.7c0,0.6,0.1,1.1,0.4,1.5c0.3,0.4,0.7,0.5,1.3,0.5c0.6,0,1-0.2,1.4-0.5c0.4-0.4,0.6-0.8,0.6-1.2
	c0-0.7-0.2-1.3-0.5-1.8S298.2,115.8,297.6,115.8z"/>
<path class="ft6" d="M1302.2,126.6h-2.7v-7.4l0-1.2l0-1.3c-0.5,0.4-0.8,0.7-0.9,0.9l-1.5,1.2l-1.3-1.6l4.1-3.3h2.2V126.6z
	 M1312.2,113.6c1.2,0,2.2,0.3,3,0.9c0.8,0.5,1.1,1.3,1.1,2.3c0,0.6-0.2,1.2-0.5,1.8c-0.4,0.5-1,1-1.8,1.4c1,0.5,1.6,1.1,2.1,1.6
	c0.4,0.6,0.6,1.2,0.6,1.8c0,1.1-0.4,1.9-1.2,2.6c-0.8,0.6-1.9,1-3.3,1c-1.4,0-2.5-0.3-3.3-0.9c-0.8-0.6-1.2-1.4-1.2-2.5
	c0-0.7,0.2-1.4,0.6-1.9s1-1.1,1.9-1.5c-0.7-0.5-1.3-1-1.6-1.5c-0.3-0.5-0.5-1.1-0.5-1.7c0-0.9,0.4-1.7,1.1-2.2
	C1310,113.9,1311,113.6,1312.2,113.6z M1310.2,123.2c0,0.5,0.2,0.9,0.5,1.2s0.8,0.4,1.4,0.4c0.7,0,1.2-0.1,1.5-0.4s0.5-0.7,0.5-1.1
	c0-0.4-0.2-0.8-0.5-1.1c-0.3-0.4-0.9-0.7-1.6-1.1C1310.8,121.6,1310.2,122.3,1310.2,123.2z M1312.2,115.6c-0.5,0-0.8,0.1-1.1,0.4
	c-0.3,0.2-0.4,0.5-0.4,0.9c0,0.3,0.1,0.7,0.3,0.9c0.2,0.3,0.6,0.6,1.2,0.9c0.6-0.3,1-0.5,1.2-0.8c0.2-0.3,0.3-0.6,0.3-1
	c0-0.4-0.1-0.7-0.4-1C1313,115.7,1312.6,115.6,1312.2,115.6z M1324.5,113.6c1.2,0,2.2,0.3,3,0.9c0.8,0.5,1.1,1.3,1.1,2.3
	c0,0.6-0.2,1.2-0.5,1.8c-0.4,0.5-0.9,1-1.8,1.4c1,0.5,1.6,1.1,2.1,1.6c0.4,0.6,0.6,1.2,0.6,1.8c0,1.1-0.4,1.9-1.2,2.6
	c-0.8,0.6-1.9,1-3.3,1c-1.4,0-2.5-0.3-3.3-0.9c-0.8-0.6-1.2-1.4-1.2-2.5c0-0.7,0.2-1.4,0.6-1.9c0.4-0.6,1-1.1,1.9-1.5
	c-0.7-0.5-1.3-1-1.6-1.5c-0.3-0.5-0.5-1.1-0.5-1.7c0-0.9,0.4-1.7,1.2-2.2C1322.3,113.9,1323.3,113.6,1324.5,113.6z M1322.5,123.2
	c0,0.5,0.2,0.9,0.5,1.2c0.3,0.3,0.8,0.4,1.4,0.4c0.7,0,1.2-0.1,1.5-0.4c0.3-0.3,0.5-0.7,0.5-1.1c0-0.4-0.2-0.8-0.5-1.1
	c-0.3-0.4-0.9-0.7-1.6-1.1C1323.1,121.6,1322.5,122.3,1322.5,123.2z M1324.5,115.6c-0.5,0-0.8,0.1-1.1,0.4c-0.3,0.2-0.4,0.5-0.4,0.9
	c0,0.3,0.1,0.7,0.3,0.9c0.2,0.3,0.6,0.6,1.2,0.9c0.6-0.3,1-0.5,1.2-0.8c0.2-0.3,0.3-0.6,0.3-1c0-0.4-0.1-0.7-0.4-1
	C1325.3,115.7,1324.9,115.6,1324.5,115.6z M1336.8,113.6c1.2,0,2.2,0.3,3,0.9c0.8,0.5,1.1,1.3,1.1,2.3c0,0.6-0.2,1.2-0.5,1.8
	s-1,1-1.8,1.4c1,0.5,1.7,1.1,2.1,1.6c0.4,0.6,0.6,1.2,0.6,1.8c0,1.1-0.4,1.9-1.2,2.6c-0.8,0.6-1.9,1-3.3,1c-1.4,0-2.5-0.3-3.3-0.9
	c-0.8-0.6-1.2-1.4-1.2-2.5c0-0.7,0.2-1.4,0.6-1.9c0.4-0.6,1-1.1,1.9-1.5c-0.7-0.5-1.3-1-1.6-1.5c-0.3-0.5-0.5-1.1-0.5-1.7
	c0-0.9,0.4-1.7,1.1-2.2C1334.5,113.9,1335.5,113.6,1336.8,113.6z M1334.8,123.2c0,0.5,0.2,0.9,0.5,1.2c0.4,0.3,0.8,0.4,1.4,0.4
	c0.7,0,1.2-0.1,1.5-0.4c0.3-0.3,0.5-0.7,0.5-1.1c0-0.4-0.2-0.8-0.5-1.1c-0.3-0.4-0.9-0.7-1.6-1.1
	C1335.4,121.6,1334.8,122.3,1334.8,123.2z M1336.7,115.6c-0.5,0-0.8,0.1-1.1,0.4c-0.3,0.2-0.4,0.5-0.4,0.9c0,0.3,0.1,0.7,0.3,0.9
	c0.2,0.3,0.6,0.6,1.2,0.9c0.6-0.3,1-0.5,1.2-0.8c0.2-0.3,0.3-0.6,0.3-1c0-0.4-0.1-0.7-0.4-1C1337.6,115.7,1337.2,115.6,1336.7,115.6
	z"/>
<path class="ft7" d="M1279.8,118.6h-4v8h4V118.6z"/>
<path class="ft7" d="M1265.8,118.6h-5v8h5V118.6z"/>
<path class="ft7" d="M1250.8,121.6h-4v5h4V121.6z"/>
<path class="ft7" d="M1236.8,106.6h-5v20h5V106.6z"/>
<path class="ft7" d="M1221.8,116.6h-5v10h5V116.6z"/>
<path class="ft7" d="M1206.8,121.6h-4v5h4V121.6z"/>
<path class="ft7" d="M1192.8,121.6h-5v5h5V121.6z"/>
<path class="ft7" d="M1177.8,121.6h-4v5h4V121.6z"/>
<path class="ft7" d="M1162.8,121.6h-4v5h4V121.6z"/>
<path class="ft7" d="M1148.8,103.6h-5v23h5V103.6z"/>
<path class="ft7" d="M1133.8,121.6h-4v5h4V121.6z"/>
<path class="ft7" d="M1119.8,113.6h-5v13h5V113.6z"/>
<path class="ft7" d="M1104.8,111.6h-5v15h5V111.6z"/>
<path class="ft7" d="M1072.5,123.6h-4.4v2.6h4.4V123.6z"/>
<path class="ft7" d="M1075.8,121.6h-5v5h5V121.6z"/>
<path class="ft7" d="M1060.8,121.6h-4v5h4V121.6z"/>
<path class="ft7" d="M1045.8,121.6h-4v5h4V121.6z"/>
<path class="ft7" d="M1031.8,121.6h-5v5h5V121.6z"/>
<path class="ft7" d="M1016.8,121.6h-4v5h4V121.6z"/>
<path class="ft7" d="M986.7,123.6h-4.4v2.6h4.4V123.6z"/>
<path class="ft7" d="M987.8,118.6h-4v8h4V118.6z"/>
<path class="ft7" d="M972.8,98.6h-4v28h4V98.6z"/>
<path class="ft7" d="M943.8,123.6h-4.4v2.6h4.4V123.6z"/>
<path class="ft7" d="M943.8,118.6h-4v8h4V118.6z"/>
<path class="ft7" d="M928.8,108.6h-4v18h4V108.6z"/>
<path class="ft7" d="M914.8,111.6h-5v15h5V111.6z"/>
<path class="ft7" d="M899.8,103.6h-4v23h4V103.6z"/>
<path class="ft7" d="M885.8,113.6h-5v13h5V113.6z"/>
<path class="ft7" d="M870.8,116.6h-4v10h4V116.6z"/>
<path class="ft7" d="M855.8,121.6h-4v5h4V121.6z"/>
<path class="ft7" d="M841.8,118.6h-5v8h5V118.6z"/>
<path class="ft7" d="M826.8,121.6h-4v5h4V121.6z"/>
<path class="ft7" d="M811.8,111.6h-4v15h4V111.6z"/>
<path class="ft7" d="M797.8,118.6h-5v8h5V118.6z"/>
<path class="ft7" d="M782.8,116.6h-4v10h4V116.6z"/>
<path class="ft7" d="M757.9,123.6h-4.4v2.6h4.4V123.6z"/>
<path class="ft7" d="M753.8,121.6h-5v5h5V121.6z"/>
<path class="ft7" d="M738.8,121.6h-4v5h4V121.6z"/>
<path class="ft7" d="M724.8,101.6h-5v25h5V101.6z"/>
<path class="ft7" d="M709.8,118.6h-4v8h4V118.6z"/>
<path class="ft7" d="M694.8,121.6h-4v5h4V121.6z"/>
<path class="ft7" d="M680.8,118.6h-5v8h5V118.6z"/>
<path class="ft7" d="M665.8,103.6h-4v23h4V103.6z"/>
<path class="ft7" d="M650.8,121.6h-4v5h4V121.6z"/>
<path class="ft7" d="M629,123.6h-4.4v2.6h4.4V123.6z"/>
<path class="ft7" d="M621.8,111.6h-4v15h4V111.6z"/>
<path class="ft7" d="M600.4,123.6H596v2.6h4.4V123.6z"/>
<path class="ft7" d="M592.8,121.6h-5v5h5V121.6z"/>
<path class="ft7" d="M577.8,121.6h-4v5h4V121.6z"/>
<path class="ft7" d="M557.7,123.6h-4.4v2.6h4.4V123.6z"/>
<path class="ft7" d="M548.8,116.6h-4v10h4V116.6z"/>
<path class="ft7" d="M533.8,116.6h-4v10h4V116.6z"/>
<path class="ft7" d="M519.8,121.6h-5v5h5V121.6z"/>
<path class="ft7" d="M504.8,116.6h-4v10h4V116.6z"/>
<path class="ft7" d="M486,123.6h-4.4v2.6h4.4V123.6z"/>
<path class="ft7" d="M471.7,123.6h-4.4v2.6h4.4V123.6z"/>
<path class="ft7" d="M457.4,123.6h-4.4v2.6h4.4V123.6z"/>
<path class="ft7" d="M443.1,123.6h-4.3v2.6h4.3V123.6z"/>
<path class="ft7" d="M431.8,118.6h-4v8h4V118.6z"/>
<path class="ft7" d="M416.8,118.6h-4v8h4V118.6z"/>
<path class="ft7" d="M400.2,123.6h-4.4v2.6h4.4V123.6z"/>
<path class="ft7" d="M387.8,121.6h-4v5h4V121.6z"/>
<path class="ft7" d="M371.6,123.6h-4.4v2.6h4.4V123.6z"/>
<path class="ft8" d="M358.8,121.6h-5v5h5V121.6z"/>
<path class="ft9" d="M343,123.6h-4.4v2.6h4.4V123.6z"/>
<path class="ft9" d="M328.7,123.6h-4.4v2.6h4.4V123.6z"/>
<path class="ft9" d="M314.4,123.6h-4.4v2.6h4.4V123.6z"/>
<path class="ft10" d="M355.2,141.6l-6.5,15h13L355.2,141.6z"/>
<rect x="92.8" y="346.6" class="ft11" width="23" height="61"/>
<rect x="92.8" y="346.6" class="ft12" width="23" height="40"/>
<path class="ft13" d="M130.7,403.6V397h0.8v5.9h2.9v0.7H130.7z M137.3,403.7c-0.3,0-0.6-0.1-0.9-0.2c-0.3-0.1-0.5-0.3-0.7-0.5
	c-0.2-0.2-0.4-0.5-0.5-0.8c-0.1-0.3-0.2-0.7-0.2-1.1c0-0.4,0.1-0.8,0.2-1.1c0.1-0.3,0.3-0.6,0.5-0.8c0.2-0.2,0.4-0.4,0.7-0.5
	c0.3-0.1,0.5-0.2,0.8-0.2c0.3,0,0.6,0.1,0.8,0.2c0.2,0.1,0.5,0.3,0.6,0.5c0.2,0.2,0.3,0.4,0.4,0.7c0.1,0.3,0.1,0.6,0.1,0.9
	c0,0.1,0,0.2,0,0.3c0,0.1,0,0.1,0,0.2h-3.3c0,0.5,0.2,0.9,0.5,1.2c0.3,0.3,0.7,0.4,1.1,0.4c0.2,0,0.4,0,0.6-0.1
	c0.2-0.1,0.4-0.2,0.6-0.3l0.3,0.5c-0.2,0.1-0.5,0.2-0.7,0.3C137.9,403.7,137.6,403.7,137.3,403.7z M135.8,400.8h2.6
	c0-0.5-0.1-0.9-0.3-1.1c-0.2-0.3-0.5-0.4-0.9-0.4c-0.2,0-0.3,0-0.5,0.1c-0.2,0.1-0.3,0.2-0.4,0.3c-0.1,0.1-0.2,0.3-0.3,0.5
	S135.8,400.5,135.8,400.8z M140.3,403.6v-4.9h0.7l0.1,0.7h0c0.2-0.2,0.5-0.4,0.7-0.6c0.3-0.2,0.6-0.2,0.9-0.2c0.5,0,0.9,0.2,1.1,0.5
	c0.2,0.3,0.4,0.8,0.4,1.4v3.1h-0.8v-3c0-0.5-0.1-0.8-0.2-1c-0.1-0.2-0.4-0.3-0.7-0.3c-0.3,0-0.5,0.1-0.7,0.2
	c-0.2,0.1-0.4,0.3-0.7,0.6v3.5H140.3z M147.4,405.8c-0.3,0-0.6,0-0.8-0.1c-0.2,0-0.5-0.1-0.6-0.2c-0.2-0.1-0.3-0.2-0.4-0.4
	s-0.1-0.4-0.1-0.6s0.1-0.4,0.2-0.6c0.1-0.2,0.3-0.4,0.5-0.5v0c-0.1-0.1-0.2-0.2-0.3-0.3c-0.1-0.1-0.1-0.3-0.1-0.5
	c0-0.2,0-0.4,0.2-0.5c0.1-0.1,0.2-0.3,0.4-0.4v0c-0.2-0.1-0.3-0.3-0.4-0.5c-0.1-0.2-0.2-0.5-0.2-0.8c0-0.3,0-0.5,0.1-0.7
	c0.1-0.2,0.2-0.4,0.4-0.5c0.2-0.1,0.4-0.3,0.6-0.4c0.2-0.1,0.5-0.1,0.7-0.1c0.1,0,0.2,0,0.4,0c0.1,0,0.2,0.1,0.3,0.1h1.7v0.6h-1
	c0.1,0.1,0.2,0.3,0.3,0.4c0.1,0.2,0.1,0.4,0.1,0.6c0,0.3,0,0.5-0.1,0.7c-0.1,0.2-0.2,0.4-0.4,0.5c-0.2,0.1-0.4,0.2-0.6,0.3
	c-0.2,0.1-0.5,0.1-0.7,0.1c-0.1,0-0.2,0-0.4,0c-0.1,0-0.2-0.1-0.4-0.1c-0.1,0.1-0.2,0.2-0.2,0.2c-0.1,0.1-0.1,0.2-0.1,0.3
	c0,0.1,0.1,0.3,0.2,0.4c0.1,0.1,0.3,0.1,0.7,0.1h0.9c0.6,0,1,0.1,1.3,0.3c0.3,0.2,0.4,0.5,0.4,0.9c0,0.2-0.1,0.4-0.2,0.6
	c-0.1,0.2-0.3,0.4-0.5,0.5c-0.2,0.1-0.5,0.3-0.8,0.4C148.1,405.8,147.8,405.8,147.4,405.8z M147.4,401.5c0.1,0,0.3,0,0.4-0.1
	c0.1-0.1,0.2-0.1,0.3-0.2c0.1-0.1,0.2-0.2,0.2-0.4c0.1-0.1,0.1-0.3,0.1-0.5c0-0.4-0.1-0.6-0.3-0.8c-0.2-0.2-0.5-0.3-0.7-0.3
	c-0.3,0-0.5,0.1-0.7,0.3c-0.2,0.2-0.3,0.5-0.3,0.8c0,0.2,0,0.3,0.1,0.5c0.1,0.1,0.1,0.3,0.2,0.4c0.1,0.1,0.2,0.2,0.3,0.2
	C147.1,401.5,147.3,401.5,147.4,401.5z M147.5,405.3c0.2,0,0.4,0,0.6-0.1c0.2-0.1,0.4-0.1,0.5-0.2c0.1-0.1,0.2-0.2,0.3-0.3
	c0.1-0.1,0.1-0.2,0.1-0.4c0-0.2-0.1-0.4-0.2-0.5c-0.2-0.1-0.4-0.1-0.7-0.1h-0.8c-0.1,0-0.2,0-0.3,0s-0.2,0-0.3-0.1
	c-0.2,0.1-0.3,0.3-0.4,0.4c-0.1,0.1-0.1,0.3-0.1,0.4c0,0.3,0.1,0.5,0.4,0.6C146.7,405.2,147.1,405.3,147.5,405.3z M152.3,403.7
	c-0.3,0-0.5,0-0.7-0.1c-0.2-0.1-0.3-0.2-0.4-0.3c-0.1-0.1-0.2-0.3-0.2-0.5c0-0.2-0.1-0.4-0.1-0.7v-2.7h-0.7v-0.6l0.8-0.1l0.1-1.4
	h0.7v1.4h1.3v0.7h-1.3v2.7c0,0.3,0.1,0.5,0.2,0.7c0.1,0.2,0.3,0.2,0.6,0.2c0.1,0,0.2,0,0.3,0c0.1,0,0.2-0.1,0.3-0.1l0.2,0.6
	c-0.1,0.1-0.3,0.1-0.4,0.1C152.6,403.7,152.5,403.7,152.3,403.7z M154.2,403.6v-7.1h0.8v1.9l0,1c0.2-0.2,0.5-0.4,0.7-0.6
	c0.3-0.2,0.5-0.2,0.9-0.2c0.5,0,0.9,0.2,1.1,0.5c0.2,0.3,0.4,0.8,0.4,1.4v3.1h-0.8v-3c0-0.5-0.1-0.8-0.2-1c-0.1-0.2-0.4-0.3-0.7-0.3
	c-0.2,0-0.5,0.1-0.7,0.2c-0.2,0.1-0.4,0.3-0.7,0.6v3.5H154.2z M163.5,403.7c-0.3,0-0.6-0.1-0.9-0.2c-0.3-0.1-0.5-0.3-0.7-0.5
	c-0.2-0.2-0.4-0.5-0.5-0.8c-0.1-0.3-0.2-0.7-0.2-1.1c0-0.4,0.1-0.8,0.2-1.1c0.1-0.3,0.3-0.6,0.5-0.8c0.2-0.2,0.4-0.4,0.7-0.5
	c0.3-0.1,0.6-0.2,0.9-0.2s0.6,0.1,0.9,0.2c0.3,0.1,0.5,0.3,0.7,0.5c0.2,0.2,0.4,0.5,0.5,0.8c0.1,0.3,0.2,0.7,0.2,1.1
	c0,0.4-0.1,0.8-0.2,1.1c-0.1,0.3-0.3,0.6-0.5,0.8c-0.2,0.2-0.4,0.4-0.7,0.5C164.1,403.7,163.8,403.7,163.5,403.7z M163.5,403
	c0.2,0,0.4,0,0.6-0.1c0.2-0.1,0.3-0.2,0.4-0.4c0.1-0.2,0.2-0.4,0.3-0.6c0.1-0.2,0.1-0.5,0.1-0.8s0-0.5-0.1-0.8
	c-0.1-0.2-0.2-0.4-0.3-0.6c-0.1-0.2-0.3-0.3-0.4-0.4c-0.2-0.1-0.4-0.1-0.6-0.1c-0.2,0-0.4,0.1-0.6,0.1c-0.2,0.1-0.3,0.2-0.5,0.4
	s-0.2,0.4-0.3,0.6c-0.1,0.2-0.1,0.5-0.1,0.8s0,0.5,0.1,0.8c0.1,0.2,0.2,0.4,0.3,0.6c0.1,0.2,0.3,0.3,0.5,0.4
	C163.1,403,163.3,403,163.5,403z M167.2,403.6v-4.2h-0.7v-0.6l0.7-0.1V398c0-0.5,0.1-0.9,0.3-1.2c0.2-0.3,0.6-0.4,1.1-0.4
	c0.2,0,0.3,0,0.4,0.1s0.3,0.1,0.4,0.1l-0.2,0.6c-0.2-0.1-0.4-0.1-0.6-0.1c-0.5,0-0.7,0.3-0.7,0.9v0.8h1v0.7h-1v4.2H167.2z
	 M130.6,415.6v-6.9h0.7l0.1,0.6h0c0.2-0.2,0.5-0.3,0.7-0.5c0.3-0.1,0.5-0.2,0.8-0.2c0.3,0,0.6,0.1,0.8,0.2c0.2,0.1,0.4,0.3,0.6,0.5
	c0.2,0.2,0.3,0.5,0.4,0.8c0.1,0.3,0.1,0.6,0.1,1c0,0.4-0.1,0.8-0.2,1.1c-0.1,0.3-0.3,0.6-0.5,0.8s-0.4,0.4-0.7,0.5
	c-0.2,0.1-0.5,0.2-0.8,0.2c-0.2,0-0.5-0.1-0.7-0.2c-0.2-0.1-0.4-0.2-0.7-0.4l0,0.8v1.6H130.6z M132.6,413c0.2,0,0.4,0,0.5-0.1
	c0.2-0.1,0.3-0.2,0.4-0.4c0.1-0.2,0.2-0.4,0.3-0.6c0.1-0.2,0.1-0.5,0.1-0.8c0-0.3,0-0.5-0.1-0.7c0-0.2-0.1-0.4-0.2-0.6
	c-0.1-0.2-0.2-0.3-0.4-0.4c-0.2-0.1-0.4-0.1-0.6-0.1c-0.2,0-0.4,0.1-0.6,0.2c-0.2,0.1-0.4,0.3-0.7,0.5v2.5c0.2,0.2,0.4,0.3,0.6,0.4
	C132.3,413,132.4,413,132.6,413z M137.1,413.7c-0.4,0-0.8-0.1-1-0.4s-0.4-0.6-0.4-1c0-0.5,0.2-0.9,0.7-1.2c0.5-0.3,1.2-0.5,2.3-0.6
	c0-0.1,0-0.3-0.1-0.4c0-0.1-0.1-0.3-0.1-0.4c-0.1-0.1-0.2-0.2-0.3-0.3c-0.1-0.1-0.3-0.1-0.5-0.1c-0.3,0-0.5,0.1-0.8,0.2
	c-0.2,0.1-0.5,0.2-0.7,0.4l-0.3-0.6c0.2-0.1,0.5-0.3,0.8-0.4c0.3-0.1,0.7-0.2,1.1-0.2c0.6,0,1,0.2,1.3,0.6c0.3,0.4,0.4,0.8,0.4,1.4
	v3h-0.7l-0.1-0.6h0c-0.2,0.2-0.5,0.4-0.8,0.5C137.7,413.6,137.4,413.7,137.1,413.7z M137.4,413.1c0.2,0,0.5-0.1,0.7-0.2
	c0.2-0.1,0.4-0.3,0.7-0.5v-1.4c-0.4,0.1-0.8,0.1-1,0.2c-0.3,0.1-0.5,0.2-0.7,0.3c-0.2,0.1-0.3,0.2-0.4,0.4c-0.1,0.1-0.1,0.3-0.1,0.4
	c0,0.3,0.1,0.5,0.2,0.6C136.9,413,137.1,413.1,137.4,413.1z M141,413.6v-4.9h0.7l0.1,0.9h0c0.2-0.3,0.4-0.6,0.6-0.7
	c0.2-0.2,0.5-0.3,0.8-0.3c0.2,0,0.4,0,0.5,0.1l-0.2,0.7c-0.1,0-0.1-0.1-0.2-0.1c-0.1,0-0.1,0-0.2,0c-0.2,0-0.4,0.1-0.6,0.2
	c-0.2,0.2-0.4,0.5-0.6,0.9v3.1H141z M145.4,413.7c-0.4,0-0.7-0.1-1-0.4c-0.3-0.2-0.4-0.6-0.4-1c0-0.5,0.2-0.9,0.7-1.2
	c0.5-0.3,1.2-0.5,2.3-0.6c0-0.1,0-0.3,0-0.4c0-0.1-0.1-0.3-0.1-0.4c-0.1-0.1-0.2-0.2-0.3-0.3c-0.1-0.1-0.3-0.1-0.5-0.1
	c-0.3,0-0.5,0.1-0.8,0.2c-0.2,0.1-0.5,0.2-0.7,0.4l-0.3-0.6c0.2-0.1,0.5-0.3,0.8-0.4c0.3-0.1,0.7-0.2,1.1-0.2c0.6,0,1,0.2,1.3,0.6
	c0.3,0.4,0.4,0.8,0.4,1.4v3h-0.7L147,413h0c-0.2,0.2-0.5,0.4-0.8,0.5C146,413.6,145.7,413.7,145.4,413.7z M145.6,413.1
	c0.2,0,0.5-0.1,0.7-0.2c0.2-0.1,0.4-0.3,0.7-0.5v-1.4c-0.4,0.1-0.8,0.1-1,0.2c-0.3,0.1-0.5,0.2-0.7,0.3c-0.2,0.1-0.3,0.2-0.4,0.4
	c-0.1,0.1-0.1,0.3-0.1,0.4c0,0.3,0.1,0.5,0.2,0.6C145.2,413,145.4,413.1,145.6,413.1z M150.9,415.8c-0.3,0-0.6,0-0.8-0.1
	c-0.2,0-0.5-0.1-0.6-0.2c-0.2-0.1-0.3-0.2-0.4-0.4c-0.1-0.2-0.1-0.4-0.1-0.6s0.1-0.4,0.2-0.6c0.1-0.2,0.3-0.4,0.5-0.5v0
	c-0.1-0.1-0.2-0.2-0.3-0.3c-0.1-0.1-0.1-0.3-0.1-0.5c0-0.2,0.1-0.4,0.2-0.5c0.1-0.1,0.2-0.3,0.4-0.4v0c-0.2-0.1-0.3-0.3-0.4-0.5
	c-0.1-0.2-0.2-0.5-0.2-0.8c0-0.3,0.1-0.5,0.1-0.7c0.1-0.2,0.2-0.4,0.4-0.5s0.4-0.3,0.6-0.4c0.2-0.1,0.5-0.1,0.7-0.1
	c0.1,0,0.3,0,0.4,0c0.1,0,0.2,0.1,0.3,0.1h1.7v0.6h-1c0.1,0.1,0.2,0.3,0.3,0.4c0.1,0.2,0.1,0.4,0.1,0.6c0,0.3-0.1,0.5-0.1,0.7
	s-0.2,0.4-0.4,0.5c-0.2,0.1-0.4,0.2-0.6,0.3c-0.2,0.1-0.4,0.1-0.7,0.1c-0.1,0-0.2,0-0.4,0c-0.1,0-0.2-0.1-0.4-0.1
	c-0.1,0.1-0.2,0.2-0.2,0.2c-0.1,0.1-0.1,0.2-0.1,0.3c0,0.1,0.1,0.3,0.2,0.4s0.4,0.1,0.7,0.1h0.9c0.6,0,1,0.1,1.3,0.3
	c0.3,0.2,0.4,0.5,0.4,0.9c0,0.2-0.1,0.4-0.2,0.6c-0.1,0.2-0.3,0.4-0.5,0.5c-0.2,0.1-0.5,0.3-0.8,0.4
	C151.7,415.8,151.3,415.8,150.9,415.8z M150.9,411.5c0.1,0,0.3,0,0.4-0.1c0.1-0.1,0.2-0.1,0.3-0.2c0.1-0.1,0.2-0.2,0.2-0.4
	c0-0.1,0.1-0.3,0.1-0.5c0-0.4-0.1-0.6-0.3-0.8c-0.2-0.2-0.4-0.3-0.7-0.3s-0.5,0.1-0.7,0.3c-0.2,0.2-0.3,0.5-0.3,0.8
	c0,0.2,0,0.3,0.1,0.5c0,0.1,0.1,0.3,0.2,0.4c0.1,0.1,0.2,0.2,0.3,0.2C150.7,411.5,150.8,411.5,150.9,411.5z M151.1,415.3
	c0.2,0,0.4,0,0.6-0.1c0.2-0.1,0.4-0.1,0.5-0.2c0.1-0.1,0.2-0.2,0.3-0.3c0.1-0.1,0.1-0.2,0.1-0.4c0-0.2-0.1-0.4-0.2-0.5
	c-0.2-0.1-0.4-0.1-0.7-0.1h-0.8c-0.1,0-0.2,0-0.3,0c-0.1,0-0.2,0-0.3-0.1c-0.2,0.1-0.3,0.3-0.4,0.4c-0.1,0.1-0.1,0.3-0.1,0.4
	c0,0.3,0.1,0.5,0.4,0.6C150.3,415.2,150.6,415.3,151.1,415.3z M154.3,413.6v-4.9h0.7l0.1,0.9h0c0.2-0.3,0.4-0.6,0.6-0.7
	c0.2-0.2,0.5-0.3,0.8-0.3c0.2,0,0.4,0,0.5,0.1l-0.2,0.7c-0.1,0-0.1-0.1-0.2-0.1c-0.1,0-0.1,0-0.2,0c-0.2,0-0.4,0.1-0.6,0.2
	c-0.2,0.2-0.4,0.5-0.6,0.9v3.1H154.3z M158.7,413.7c-0.4,0-0.7-0.1-1-0.4c-0.3-0.2-0.4-0.6-0.4-1c0-0.5,0.2-0.9,0.7-1.2
	c0.5-0.3,1.2-0.5,2.3-0.6c0-0.1,0-0.3-0.1-0.4c0-0.1-0.1-0.3-0.1-0.4c-0.1-0.1-0.2-0.2-0.3-0.3c-0.1-0.1-0.3-0.1-0.5-0.1
	c-0.3,0-0.5,0.1-0.8,0.2c-0.2,0.1-0.5,0.2-0.7,0.4l-0.3-0.6c0.2-0.1,0.5-0.3,0.8-0.4c0.3-0.1,0.7-0.2,1.1-0.2c0.6,0,1,0.2,1.3,0.6
	c0.3,0.4,0.4,0.8,0.4,1.4v3h-0.7l-0.1-0.6h0c-0.2,0.2-0.5,0.4-0.8,0.5C159.3,413.6,159,413.7,158.7,413.7z M158.9,413.1
	c0.2,0,0.5-0.1,0.7-0.2c0.2-0.1,0.4-0.3,0.7-0.5v-1.4c-0.4,0.1-0.8,0.1-1,0.2c-0.3,0.1-0.5,0.2-0.7,0.3c-0.2,0.1-0.3,0.2-0.4,0.4
	c-0.1,0.1-0.1,0.3-0.1,0.4c0,0.3,0.1,0.5,0.2,0.6C158.5,413,158.7,413.1,158.9,413.1z M162.6,415.6v-6.9h0.7l0.1,0.6h0
	c0.2-0.2,0.5-0.3,0.7-0.5c0.3-0.1,0.5-0.2,0.8-0.2c0.3,0,0.6,0.1,0.8,0.2c0.2,0.1,0.4,0.3,0.6,0.5c0.2,0.2,0.3,0.5,0.4,0.8
	c0.1,0.3,0.1,0.6,0.1,1c0,0.4-0.1,0.8-0.2,1.1c-0.1,0.3-0.3,0.6-0.5,0.8c-0.2,0.2-0.4,0.4-0.7,0.5c-0.2,0.1-0.5,0.2-0.8,0.2
	c-0.2,0-0.5-0.1-0.7-0.2c-0.2-0.1-0.4-0.2-0.7-0.4l0,0.8v1.6H162.6z M164.6,413c0.2,0,0.4,0,0.6-0.1c0.2-0.1,0.3-0.2,0.4-0.4
	c0.1-0.2,0.2-0.4,0.3-0.6c0.1-0.2,0.1-0.5,0.1-0.8c0-0.3,0-0.5-0.1-0.7c0-0.2-0.1-0.4-0.2-0.6c-0.1-0.2-0.2-0.3-0.4-0.4
	c-0.2-0.1-0.3-0.1-0.6-0.1c-0.2,0-0.4,0.1-0.6,0.2c-0.2,0.1-0.4,0.3-0.7,0.5v2.5c0.2,0.2,0.4,0.3,0.6,0.4
	C164.3,413,164.4,413,164.6,413z M168.1,413.6v-7.1h0.8v1.9l0,1c0.2-0.2,0.5-0.4,0.7-0.6c0.2-0.2,0.6-0.2,0.9-0.2
	c0.5,0,0.9,0.2,1.1,0.5c0.2,0.3,0.4,0.8,0.4,1.4v3.1h-0.8v-3c0-0.5-0.1-0.8-0.2-1c-0.1-0.2-0.4-0.3-0.7-0.3c-0.2,0-0.5,0.1-0.7,0.2
	c-0.2,0.1-0.4,0.3-0.7,0.6v3.5H168.1z"/>
<path class="ft13" d="M133,360.6v-5.9h-2V354h4.8v0.7h-2v5.9H133z M138.2,360.7c-0.3,0-0.6-0.1-0.9-0.2c-0.3-0.1-0.5-0.3-0.7-0.5
	c-0.2-0.2-0.4-0.5-0.5-0.8c-0.1-0.3-0.2-0.7-0.2-1.1c0-0.4,0.1-0.8,0.2-1.1c0.1-0.3,0.3-0.6,0.5-0.8c0.2-0.2,0.4-0.4,0.7-0.5
	c0.3-0.1,0.6-0.2,0.9-0.2c0.3,0,0.6,0.1,0.8,0.2c0.3,0.1,0.5,0.3,0.7,0.5c0.2,0.2,0.4,0.5,0.5,0.8c0.1,0.3,0.2,0.7,0.2,1.1
	c0,0.4-0.1,0.8-0.2,1.1c-0.1,0.3-0.3,0.6-0.5,0.8c-0.2,0.2-0.5,0.4-0.7,0.5C138.8,360.7,138.5,360.7,138.2,360.7z M138.2,360
	c0.2,0,0.4,0,0.6-0.1c0.2-0.1,0.3-0.2,0.4-0.4c0.1-0.2,0.2-0.4,0.3-0.6c0.1-0.2,0.1-0.5,0.1-0.8s0-0.5-0.1-0.8
	c-0.1-0.2-0.2-0.4-0.3-0.6s-0.3-0.3-0.4-0.4c-0.2-0.1-0.4-0.1-0.6-0.1c-0.2,0-0.4,0.1-0.6,0.1c-0.2,0.1-0.3,0.2-0.4,0.4
	c-0.1,0.2-0.2,0.4-0.3,0.6c-0.1,0.2-0.1,0.5-0.1,0.8s0,0.5,0.1,0.8c0.1,0.2,0.2,0.4,0.3,0.6c0.1,0.2,0.3,0.3,0.4,0.4
	C137.8,360,138,360,138.2,360z M141.7,362.6v-6.9h0.7l0.1,0.6h0c0.2-0.2,0.5-0.3,0.7-0.5c0.3-0.1,0.5-0.2,0.8-0.2
	c0.3,0,0.6,0.1,0.8,0.2c0.2,0.1,0.4,0.3,0.6,0.5c0.2,0.2,0.3,0.5,0.4,0.8c0.1,0.3,0.1,0.6,0.1,1c0,0.4-0.1,0.8-0.2,1.1
	c-0.1,0.3-0.3,0.6-0.5,0.8c-0.2,0.2-0.4,0.4-0.7,0.5c-0.3,0.1-0.5,0.2-0.8,0.2c-0.2,0-0.5-0.1-0.7-0.2c-0.2-0.1-0.5-0.2-0.7-0.4
	l0,0.8v1.6H141.7z M143.7,360c0.2,0,0.4,0,0.5-0.1c0.2-0.1,0.3-0.2,0.4-0.4c0.1-0.2,0.2-0.4,0.3-0.6s0.1-0.5,0.1-0.8
	c0-0.3,0-0.5-0.1-0.7c0-0.2-0.1-0.4-0.2-0.6c-0.1-0.2-0.2-0.3-0.4-0.4c-0.2-0.1-0.4-0.1-0.6-0.1c-0.2,0-0.4,0.1-0.6,0.2
	c-0.2,0.1-0.4,0.3-0.7,0.5v2.5c0.2,0.2,0.4,0.3,0.6,0.4C143.4,360,143.6,360,143.7,360z M147.2,360.6v-4.9h0.8v4.9H147.2z
	 M147.7,354.7c-0.2,0-0.3,0-0.4-0.1c-0.1-0.1-0.2-0.2-0.2-0.4c0-0.2,0.1-0.3,0.2-0.4c0.1-0.1,0.2-0.1,0.4-0.1c0.2,0,0.3,0,0.4,0.1
	c0.1,0.1,0.2,0.2,0.2,0.4c0,0.1-0.1,0.3-0.2,0.4C148,354.7,147.8,354.7,147.7,354.7z M151.6,360.7c-0.3,0-0.6-0.1-0.9-0.2
	c-0.3-0.1-0.5-0.3-0.7-0.5c-0.2-0.2-0.4-0.5-0.5-0.8c-0.1-0.3-0.2-0.7-0.2-1.1c0-0.4,0.1-0.8,0.2-1.1c0.1-0.3,0.3-0.6,0.5-0.8
	c0.2-0.2,0.5-0.4,0.7-0.5c0.3-0.1,0.6-0.2,0.9-0.2c0.3,0,0.6,0.1,0.8,0.2c0.2,0.1,0.4,0.2,0.6,0.4l-0.4,0.5
	c-0.1-0.1-0.3-0.2-0.5-0.3c-0.2-0.1-0.3-0.1-0.5-0.1c-0.2,0-0.4,0.1-0.6,0.1c-0.2,0.1-0.4,0.2-0.5,0.4c-0.1,0.2-0.2,0.4-0.3,0.6
	c-0.1,0.2-0.1,0.5-0.1,0.8s0,0.5,0.1,0.8c0.1,0.2,0.2,0.4,0.3,0.6c0.1,0.2,0.3,0.3,0.5,0.4c0.2,0.1,0.4,0.1,0.6,0.1
	c0.2,0,0.4-0.1,0.6-0.1c0.2-0.1,0.4-0.2,0.5-0.4l0.4,0.6c-0.2,0.2-0.5,0.4-0.7,0.5C152.2,360.7,151.9,360.7,151.6,360.7z
	 M131.6,370.6v-4.9h0.7l0.1,0.7h0c0.2-0.2,0.4-0.4,0.7-0.6c0.2-0.2,0.5-0.2,0.8-0.2c0.4,0,0.7,0.1,0.9,0.2c0.2,0.2,0.4,0.4,0.5,0.7
	c0.2-0.3,0.5-0.5,0.8-0.7c0.3-0.2,0.5-0.3,0.8-0.3c0.5,0,0.9,0.2,1.1,0.5c0.2,0.3,0.4,0.8,0.4,1.4v3.1h-0.8v-3c0-0.5-0.1-0.8-0.2-1
	c-0.2-0.2-0.4-0.3-0.7-0.3c-0.4,0-0.8,0.2-1.2,0.8v3.5h-0.8v-3c0-0.5-0.1-0.8-0.2-1c-0.1-0.2-0.4-0.3-0.7-0.3
	c-0.4,0-0.8,0.2-1.2,0.8v3.5H131.6z M141.8,370.7c-0.3,0-0.6-0.1-0.9-0.2c-0.3-0.1-0.5-0.3-0.7-0.5c-0.2-0.2-0.4-0.5-0.5-0.8
	c-0.1-0.3-0.2-0.7-0.2-1.1c0-0.4,0.1-0.8,0.2-1.1c0.1-0.3,0.3-0.6,0.5-0.8c0.2-0.2,0.4-0.4,0.7-0.5c0.3-0.1,0.5-0.2,0.8-0.2
	c0.3,0,0.6,0.1,0.8,0.2c0.2,0.1,0.5,0.3,0.6,0.5c0.2,0.2,0.3,0.4,0.4,0.7c0.1,0.3,0.1,0.6,0.1,0.9c0,0.1,0,0.2,0,0.3
	c0,0.1,0,0.1,0,0.2h-3.3c0,0.5,0.2,0.9,0.5,1.2c0.3,0.3,0.7,0.4,1.1,0.4c0.2,0,0.4,0,0.6-0.1c0.2-0.1,0.4-0.2,0.6-0.3l0.3,0.5
	c-0.2,0.1-0.5,0.2-0.7,0.3C142.5,370.7,142.2,370.7,141.8,370.7z M140.3,367.8h2.6c0-0.5-0.1-0.9-0.3-1.1c-0.2-0.3-0.5-0.4-0.9-0.4
	c-0.2,0-0.3,0-0.5,0.1c-0.2,0.1-0.3,0.2-0.4,0.3c-0.1,0.1-0.2,0.3-0.3,0.5C140.4,367.3,140.3,367.5,140.3,367.8z M144.8,370.6v-4.9
	h0.7l0.1,0.7h0c0.2-0.2,0.5-0.4,0.7-0.6c0.3-0.2,0.6-0.2,0.9-0.2c0.5,0,0.9,0.2,1.1,0.5c0.2,0.3,0.4,0.8,0.4,1.4v3.1h-0.8v-3
	c0-0.5-0.1-0.8-0.2-1c-0.1-0.2-0.4-0.3-0.7-0.3c-0.2,0-0.5,0.1-0.7,0.2c-0.2,0.1-0.4,0.3-0.7,0.6v3.5H144.8z M151.8,370.7
	c-0.3,0-0.5,0-0.7-0.1c-0.2-0.1-0.3-0.2-0.4-0.3c-0.1-0.1-0.2-0.3-0.2-0.5c0-0.2-0.1-0.4-0.1-0.7v-2.7h-0.7v-0.6l0.8-0.1l0.1-1.4
	h0.7v1.4h1.3v0.7h-1.3v2.7c0,0.3,0.1,0.5,0.2,0.7c0.1,0.2,0.3,0.2,0.6,0.2c0.1,0,0.2,0,0.3,0s0.2-0.1,0.3-0.1l0.2,0.6
	c-0.1,0.1-0.3,0.1-0.4,0.1C152.1,370.7,152,370.7,151.8,370.7z M153.7,370.6v-4.9h0.8v4.9H153.7z M154.1,364.7c-0.2,0-0.3,0-0.4-0.1
	c-0.1-0.1-0.2-0.2-0.2-0.4c0-0.2,0-0.3,0.2-0.4c0.1-0.1,0.2-0.1,0.4-0.1c0.2,0,0.3,0,0.4,0.1c0.1,0.1,0.2,0.2,0.2,0.4
	c0,0.1-0.1,0.3-0.2,0.4C154.4,364.7,154.3,364.7,154.1,364.7z M158,370.7c-0.3,0-0.6-0.1-0.9-0.2c-0.3-0.1-0.5-0.3-0.7-0.5
	c-0.2-0.2-0.4-0.5-0.5-0.8c-0.1-0.3-0.2-0.7-0.2-1.1c0-0.4,0.1-0.8,0.2-1.1c0.1-0.3,0.3-0.6,0.5-0.8s0.4-0.4,0.7-0.5
	c0.3-0.1,0.6-0.2,0.9-0.2s0.6,0.1,0.9,0.2c0.3,0.1,0.5,0.3,0.7,0.5s0.4,0.5,0.5,0.8c0.1,0.3,0.2,0.7,0.2,1.1c0,0.4-0.1,0.8-0.2,1.1
	c-0.1,0.3-0.3,0.6-0.5,0.8c-0.2,0.2-0.4,0.4-0.7,0.5C158.6,370.7,158.3,370.7,158,370.7z M158,370c0.2,0,0.4,0,0.6-0.1
	c0.2-0.1,0.3-0.2,0.4-0.4c0.1-0.2,0.2-0.4,0.3-0.6c0.1-0.2,0.1-0.5,0.1-0.8s0-0.5-0.1-0.8c-0.1-0.2-0.2-0.4-0.3-0.6
	c-0.1-0.2-0.3-0.3-0.4-0.4c-0.2-0.1-0.4-0.1-0.6-0.1s-0.4,0.1-0.6,0.1c-0.2,0.1-0.3,0.2-0.5,0.4c-0.1,0.2-0.2,0.4-0.3,0.6
	c-0.1,0.2-0.1,0.5-0.1,0.8s0,0.5,0.1,0.8c0.1,0.2,0.2,0.4,0.3,0.6c0.1,0.2,0.3,0.3,0.5,0.4C157.6,370,157.8,370,158,370z
	 M161.6,370.6v-4.9h0.7l0.1,0.7h0c0.2-0.2,0.5-0.4,0.7-0.6c0.3-0.2,0.6-0.2,0.9-0.2c0.5,0,0.9,0.2,1.1,0.5c0.2,0.3,0.4,0.8,0.4,1.4
	v3.1h-0.8v-3c0-0.5-0.1-0.8-0.2-1c-0.1-0.2-0.4-0.3-0.7-0.3c-0.2,0-0.5,0.1-0.7,0.2c-0.2,0.1-0.4,0.3-0.7,0.6v3.5H161.6z
	 M168.3,370.7c-0.4,0-0.7-0.1-1-0.2c-0.3-0.1-0.6-0.3-0.8-0.5l0.4-0.6c0.2,0.2,0.4,0.3,0.6,0.4c0.2,0.1,0.5,0.2,0.8,0.2
	c0.3,0,0.6-0.1,0.7-0.2s0.2-0.3,0.2-0.5c0-0.1,0-0.2-0.1-0.3c-0.1-0.1-0.2-0.2-0.3-0.2c-0.1-0.1-0.2-0.1-0.4-0.2
	c-0.1-0.1-0.3-0.1-0.4-0.2c-0.2-0.1-0.4-0.1-0.5-0.2c-0.2-0.1-0.3-0.2-0.5-0.3c-0.1-0.1-0.2-0.2-0.3-0.4c-0.1-0.1-0.1-0.3-0.1-0.5
	c0-0.2,0-0.4,0.1-0.5c0.1-0.2,0.2-0.3,0.3-0.4c0.1-0.1,0.3-0.2,0.5-0.3c0.2-0.1,0.4-0.1,0.7-0.1c0.3,0,0.6,0.1,0.8,0.2
	c0.3,0.1,0.5,0.2,0.7,0.4l-0.4,0.5c-0.2-0.1-0.3-0.2-0.5-0.3c-0.2-0.1-0.4-0.1-0.6-0.1c-0.3,0-0.5,0.1-0.7,0.2
	c-0.1,0.1-0.2,0.3-0.2,0.5c0,0.1,0,0.2,0.1,0.3c0.1,0.1,0.1,0.2,0.2,0.2c0.1,0.1,0.2,0.1,0.3,0.2c0.1,0.1,0.3,0.1,0.4,0.1
	c0.2,0.1,0.4,0.1,0.5,0.2c0.2,0.1,0.3,0.2,0.5,0.3c0.1,0.1,0.2,0.2,0.3,0.4c0.1,0.2,0.1,0.3,0.1,0.6c0,0.2,0,0.4-0.1,0.6
	c-0.1,0.2-0.2,0.3-0.3,0.5c-0.1,0.1-0.3,0.2-0.6,0.3C168.8,370.7,168.6,370.7,168.3,370.7z"/>
<line class="ft14" x1="119.8" y1="407.1" x2="127.8" y2="407.1"/>
<line class="ft14" x1="119.8" y1="364.1" x2="127.8" y2="364.1"/>
<path class="ft15" d="M260.8,214.1h49c7.5,0,13.5,6,13.5,13.5l0,0c0,7.5-6,13.5-13.5,13.5h-49c-7.5,0-13.5-6-13.5-13.5l0,0
	C247.3,220.1,253.3,214.1,260.8,214.1z"/>
<path class="ft16" d="M267,233.6h-1.3l-2.3-7.6c-0.1-0.3-0.2-0.8-0.4-1.3c-0.1-0.5-0.2-0.8-0.2-0.9c-0.1,0.7-0.3,1.4-0.5,2.3
	l-2.2,7.6h-1.3l-3-11.4h1.4l1.8,7c0.2,1,0.4,1.9,0.5,2.7c0.1-0.9,0.4-1.9,0.6-2.8l2-6.9h1.4l2.1,7c0.2,0.8,0.5,1.7,0.6,2.7
	c0.1-0.7,0.3-1.6,0.6-2.7l1.8-7h1.4L267,233.6z M276.9,233.6l-0.2-1.2h-0.1c-0.4,0.5-0.9,0.9-1.3,1.1c-0.4,0.2-0.9,0.3-1.6,0.3
	c-0.9,0-1.5-0.2-2-0.7s-0.7-1.1-0.7-1.9c0-1.7,1.4-2.6,4.1-2.7l1.5,0v-0.5c0-0.7-0.1-1.2-0.4-1.5c-0.3-0.3-0.8-0.5-1.4-0.5
	c-0.7,0-1.5,0.2-2.4,0.6l-0.4-1c0.4-0.2,0.9-0.4,1.4-0.5c0.5-0.1,1-0.2,1.5-0.2c1,0,1.8,0.2,2.3,0.7c0.5,0.4,0.7,1.2,0.7,2.2v5.8
	H276.9z M274,232.7c0.8,0,1.4-0.2,1.9-0.7c0.5-0.4,0.7-1.1,0.7-1.9v-0.8l-1.3,0.1c-1,0-1.8,0.2-2.2,0.5c-0.5,0.3-0.7,0.7-0.7,1.3
	c0,0.5,0.1,0.8,0.4,1.1C273.1,232.6,273.5,232.7,274,232.7z M287.5,225v0.8L286,226c0.1,0.2,0.3,0.4,0.4,0.7c0.1,0.3,0.2,0.6,0.2,1
	c0,0.8-0.3,1.5-0.9,2c-0.6,0.5-1.4,0.8-2.4,0.8c-0.2,0-0.5,0-0.7-0.1c-0.5,0.3-0.8,0.7-0.8,1.1c0,0.2,0.1,0.4,0.3,0.5
	c0.2,0.1,0.5,0.2,1,0.2h1.5c0.9,0,1.6,0.2,2.1,0.6c0.5,0.4,0.8,0.9,0.8,1.7c0,0.9-0.4,1.7-1.1,2.2c-0.8,0.5-1.9,0.8-3.3,0.8
	c-1.1,0-2-0.2-2.6-0.6c-0.6-0.4-0.9-1-0.9-1.8c0-0.5,0.2-1,0.5-1.3c0.3-0.4,0.8-0.6,1.4-0.8c-0.2-0.1-0.4-0.2-0.5-0.5
	c-0.1-0.2-0.2-0.5-0.2-0.7c0-0.3,0.1-0.6,0.2-0.8c0.2-0.2,0.4-0.5,0.8-0.7c-0.4-0.2-0.8-0.5-1.1-0.9c-0.3-0.4-0.4-0.9-0.4-1.5
	c0-0.9,0.3-1.7,0.8-2.2c0.6-0.5,1.4-0.8,2.4-0.8c0.5,0,0.9,0.1,1.2,0.2H287.5z M280.7,235c0,0.5,0.2,0.8,0.6,1.1s1,0.4,1.7,0.4
	c1.1,0,1.9-0.2,2.4-0.5c0.5-0.3,0.8-0.8,0.8-1.3c0-0.5-0.1-0.8-0.4-1c-0.3-0.2-0.8-0.3-1.6-0.3h-1.6c-0.6,0-1,0.1-1.4,0.4
	C280.9,234.1,280.7,234.5,280.7,235z M281.4,227.8c0,0.6,0.2,1.1,0.5,1.4c0.3,0.3,0.8,0.5,1.4,0.5c1.3,0,1.9-0.6,1.9-1.8
	c0-1.3-0.6-1.9-1.9-1.9c-0.6,0-1.1,0.2-1.4,0.5S281.4,227.1,281.4,227.8z M295.2,233.6v-5.5c0-0.7-0.2-1.2-0.5-1.6
	c-0.3-0.3-0.8-0.5-1.5-0.5c-0.9,0-1.6,0.2-2,0.7c-0.4,0.5-0.6,1.3-0.6,2.4v4.5h-1.3V225h1l0.2,1.2h0.1c0.3-0.4,0.6-0.8,1.1-1
	c0.5-0.2,1-0.3,1.6-0.3c1,0,1.8,0.2,2.3,0.8c0.5,0.5,0.8,1.3,0.8,2.4v5.6H295.2z M302.8,233.8c-1.3,0-2.3-0.4-3-1.2
	c-0.7-0.8-1.1-1.8-1.1-3.2c0-1.4,0.3-2.5,1-3.3c0.7-0.8,1.6-1.2,2.7-1.2c1.1,0,1.9,0.4,2.6,1.1c0.6,0.7,0.9,1.6,0.9,2.8v0.8H300
	c0,1,0.3,1.8,0.8,2.3c0.5,0.5,1.2,0.8,2,0.8c0.9,0,1.8-0.2,2.7-0.6v1.2c-0.5,0.2-0.9,0.3-1.3,0.4
	C303.8,233.7,303.3,233.8,302.8,233.8z M302.4,226c-0.7,0-1.2,0.2-1.6,0.7c-0.4,0.4-0.7,1.1-0.7,1.9h4.5c0-0.8-0.2-1.4-0.5-1.9
	C303.6,226.2,303.1,226,302.4,226z M312,224.9c0.4,0,0.7,0,1,0.1l-0.2,1.2c-0.4-0.1-0.7-0.1-0.9-0.1c-0.7,0-1.3,0.3-1.8,0.8
	c-0.5,0.6-0.7,1.3-0.7,2.1v4.6h-1.3V225h1.1l0.1,1.6h0.1c0.3-0.6,0.7-1,1.1-1.3C311,225,311.5,224.9,312,224.9z"/>
<path class="ft17" d="M587.8,214.1h100c7.5,0,13.5,6,13.5,13.5l0,0c0,7.5-6,13.5-13.5,13.5h-100c-7.5,0-13.5-6-13.5-13.5l0,0
	C574.3,220.1,580.3,214.1,587.8,214.1z"/>
<path class="ft16" d="M590.7,233.6h-1.3v-10.2h-3.6v-1.2h8.6v1.2h-3.6V233.6z M601.7,233.6v-5.5c0-0.7-0.2-1.2-0.5-1.6
	c-0.3-0.3-0.8-0.5-1.5-0.5c-0.9,0-1.6,0.2-2,0.7c-0.4,0.5-0.6,1.3-0.6,2.4v4.5h-1.3v-12.2h1.3v3.7c0,0.4,0,0.8-0.1,1.1h0.1
	c0.2-0.4,0.6-0.7,1.1-1c0.5-0.2,1-0.4,1.6-0.4c1.1,0,1.8,0.2,2.4,0.8c0.5,0.5,0.8,1.3,0.8,2.4v5.6H601.7z M607,233.6h-1.3V225h1.3
	V233.6z M605.6,222.7c0-0.3,0.1-0.5,0.2-0.7c0.2-0.1,0.3-0.2,0.6-0.2c0.2,0,0.4,0.1,0.5,0.2c0.1,0.1,0.2,0.4,0.2,0.7
	c0,0.3-0.1,0.5-0.2,0.6c-0.1,0.1-0.3,0.2-0.5,0.2c-0.2,0-0.4-0.1-0.6-0.2C605.6,223.2,605.6,223,605.6,222.7z M615.6,233.6v-5.5
	c0-0.7-0.2-1.2-0.5-1.6c-0.3-0.3-0.8-0.5-1.5-0.5c-0.9,0-1.5,0.2-2,0.7c-0.4,0.5-0.6,1.3-0.6,2.4v4.5h-1.3V225h1l0.2,1.2h0.1
	c0.3-0.4,0.6-0.8,1.1-1c0.5-0.2,1-0.3,1.6-0.3c1,0,1.8,0.2,2.3,0.8s0.8,1.3,0.8,2.4v5.6H615.6z M626.5,225v0.8L625,226
	c0.1,0.2,0.3,0.4,0.4,0.7c0.1,0.3,0.2,0.6,0.2,1c0,0.8-0.3,1.5-0.9,2c-0.6,0.5-1.4,0.8-2.4,0.8c-0.2,0-0.5,0-0.7-0.1
	c-0.5,0.3-0.8,0.7-0.8,1.1c0,0.2,0.1,0.4,0.3,0.5c0.2,0.1,0.5,0.2,1,0.2h1.5c0.9,0,1.6,0.2,2.1,0.6c0.5,0.4,0.8,0.9,0.8,1.7
	c0,0.9-0.4,1.7-1.2,2.2c-0.8,0.5-1.9,0.8-3.3,0.8c-1.1,0-2-0.2-2.6-0.6c-0.6-0.4-0.9-1-0.9-1.8c0-0.5,0.2-1,0.5-1.3
	c0.3-0.4,0.8-0.6,1.4-0.8c-0.2-0.1-0.4-0.2-0.5-0.5c-0.1-0.2-0.2-0.5-0.2-0.7c0-0.3,0.1-0.6,0.2-0.8s0.4-0.5,0.8-0.7
	c-0.4-0.2-0.8-0.5-1.1-0.9c-0.3-0.4-0.4-0.9-0.4-1.5c0-0.9,0.3-1.7,0.8-2.2c0.6-0.5,1.4-0.8,2.4-0.8c0.5,0,0.9,0.1,1.2,0.2H626.5z
	 M619.7,235c0,0.5,0.2,0.8,0.6,1.1s1,0.4,1.7,0.4c1.1,0,1.9-0.2,2.4-0.5c0.5-0.3,0.8-0.8,0.8-1.3c0-0.5-0.2-0.8-0.4-1
	c-0.3-0.2-0.8-0.3-1.6-0.3h-1.6c-0.6,0-1,0.1-1.4,0.4C619.9,234.1,619.7,234.5,619.7,235z M620.4,227.8c0,0.6,0.2,1.1,0.5,1.4
	s0.8,0.5,1.4,0.5c1.3,0,1.9-0.6,1.9-1.8c0-1.3-0.6-1.9-1.9-1.9c-0.6,0-1.1,0.2-1.4,0.5S620.4,227.1,620.4,227.8z M627.6,229.9v-1.2
	h3.8v1.2H627.6z M634.8,233.6h-1.3V225h1.3V233.6z M633.4,222.7c0-0.3,0.1-0.5,0.2-0.7c0.1-0.1,0.3-0.2,0.5-0.2s0.4,0.1,0.5,0.2
	c0.2,0.1,0.2,0.4,0.2,0.7c0,0.3-0.1,0.5-0.2,0.6c-0.1,0.1-0.3,0.2-0.5,0.2s-0.4-0.1-0.5-0.2C633.4,223.2,633.4,223,633.4,222.7z
	 M643.4,233.6v-5.5c0-0.7-0.1-1.2-0.5-1.6c-0.3-0.3-0.8-0.5-1.5-0.5c-0.9,0-1.6,0.2-2,0.7c-0.4,0.5-0.6,1.3-0.6,2.4v4.5h-1.3V225h1
	l0.2,1.2h0.1c0.3-0.4,0.6-0.8,1.1-1c0.5-0.2,1-0.3,1.6-0.3c1,0,1.8,0.2,2.3,0.8s0.8,1.3,0.8,2.4v5.6H643.4z M646.6,229.9v-1.2h3.8
	v1.2H646.6z M653.8,233.6h-1.3V225h1.3V233.6z M652.4,222.7c0-0.3,0.1-0.5,0.2-0.7c0.2-0.1,0.3-0.2,0.6-0.2c0.2,0,0.4,0.1,0.5,0.2
	c0.1,0.1,0.2,0.4,0.2,0.7c0,0.3-0.1,0.5-0.2,0.6c-0.2,0.1-0.3,0.2-0.5,0.2c-0.2,0-0.4-0.1-0.6-0.2
	C652.5,223.2,652.4,223,652.4,222.7z M659.3,232.7c0.2,0,0.5,0,0.7-0.1c0.2,0,0.4-0.1,0.5-0.1v1c-0.1,0.1-0.3,0.1-0.6,0.2
	c-0.3,0-0.5,0.1-0.7,0.1c-1.6,0-2.5-0.9-2.5-2.6V226h-1.2v-0.6l1.2-0.5l0.5-1.8h0.8v2h2.5v1h-2.5v5c0,0.5,0.1,0.9,0.4,1.2
	C658.5,232.5,658.9,232.7,659.3,232.7z M667.7,231.3c0,0.8-0.3,1.4-0.9,1.9c-0.6,0.4-1.4,0.6-2.5,0.6c-1.1,0-2-0.2-2.7-0.5V232
	c0.4,0.2,0.8,0.4,1.3,0.5c0.5,0.1,0.9,0.2,1.4,0.2c0.7,0,1.2-0.1,1.6-0.3c0.4-0.2,0.5-0.6,0.5-1c0-0.3-0.1-0.6-0.4-0.9
	s-0.9-0.5-1.7-0.8c-0.8-0.3-1.4-0.6-1.7-0.8c-0.3-0.2-0.6-0.5-0.8-0.8c-0.2-0.3-0.2-0.6-0.2-1c0-0.7,0.3-1.2,0.9-1.7
	c0.6-0.4,1.3-0.6,2.3-0.6c0.9,0,1.8,0.2,2.7,0.6l-0.5,1.1c-0.9-0.4-1.6-0.5-2.3-0.5c-0.6,0-1.1,0.1-1.4,0.3
	c-0.3,0.2-0.5,0.5-0.5,0.8c0,0.2,0.1,0.4,0.2,0.6c0.1,0.2,0.3,0.3,0.6,0.5c0.3,0.1,0.8,0.4,1.5,0.6c1,0.4,1.7,0.8,2.1,1.1
	S667.7,230.7,667.7,231.3z M673.5,233.8c-1.3,0-2.3-0.4-3-1.2c-0.7-0.8-1.1-1.8-1.1-3.2c0-1.4,0.3-2.5,1-3.3
	c0.7-0.8,1.6-1.2,2.7-1.2c1.1,0,1.9,0.4,2.5,1.1c0.6,0.7,0.9,1.6,0.9,2.8v0.8h-5.9c0,1,0.3,1.8,0.8,2.3s1.2,0.8,2,0.8
	c0.9,0,1.8-0.2,2.7-0.6v1.2c-0.5,0.2-0.9,0.3-1.3,0.4C674.5,233.7,674,233.8,673.5,233.8z M673.1,226c-0.7,0-1.2,0.2-1.6,0.7
	s-0.6,1.1-0.7,1.9h4.5c0-0.8-0.2-1.4-0.6-1.9C674.3,226.2,673.8,226,673.1,226z M680.1,233.6h-1.3v-12.2h1.3V233.6z M686.7,226h-2.2
	v7.6h-1.3V226h-1.5v-0.6l1.5-0.5v-0.5c0-2.1,0.9-3.1,2.8-3.1c0.5,0,1,0.1,1.6,0.3l-0.3,1c-0.5-0.2-0.9-0.2-1.3-0.2
	c-0.5,0-0.9,0.2-1.1,0.5c-0.2,0.3-0.4,0.8-0.4,1.6v0.6h2.2V226z"/>
<path class="ft18" d="M633.8,253.1h65c7.5,0,13.5,6,13.5,13.5l0,0c0,7.5-6,13.5-13.5,13.5h-65c-7.5,0-13.5-6-13.5-13.5l0,0
	C620.3,259.1,626.3,253.1,633.8,253.1z"/>
<path class="ft16" d="M639.9,272.6h-1.3v-5.4h-6v5.4h-1.3v-11.4h1.3v4.9h6v-4.9h1.3V272.6z M644.1,272.6h-1.3V264h1.3V272.6z
	 M642.7,261.7c0-0.3,0.1-0.5,0.2-0.7c0.1-0.1,0.3-0.2,0.5-0.2c0.2,0,0.4,0.1,0.5,0.2c0.1,0.1,0.2,0.4,0.2,0.7c0,0.3-0.1,0.5-0.2,0.6
	c-0.2,0.1-0.3,0.2-0.5,0.2c-0.2,0-0.4-0.1-0.5-0.2C642.8,262.2,642.7,262,642.7,261.7z M652.7,272.6v-5.5c0-0.7-0.2-1.2-0.5-1.6
	c-0.3-0.3-0.8-0.5-1.5-0.5c-0.9,0-1.5,0.2-2,0.7c-0.4,0.5-0.6,1.3-0.6,2.4v4.5h-1.3V264h1l0.2,1.2h0.1c0.3-0.4,0.6-0.8,1.1-1
	c0.5-0.2,1-0.3,1.6-0.3c1,0,1.8,0.2,2.3,0.8c0.5,0.5,0.8,1.3,0.8,2.4v5.6H652.7z M662.5,271.4L662.5,271.4c-0.7,0.9-1.6,1.3-2.8,1.3
	c-1.1,0-2-0.4-2.6-1.1c-0.6-0.8-0.9-1.9-0.9-3.3s0.3-2.5,0.9-3.3c0.6-0.8,1.5-1.2,2.6-1.2c1.2,0,2,0.4,2.7,1.3h0.1l-0.1-0.6l0-0.6
	v-3.5h1.3v12.2h-1.1L662.5,271.4z M659.9,271.7c0.9,0,1.5-0.2,1.9-0.7c0.4-0.5,0.6-1.3,0.6-2.3v-0.3c0-1.2-0.2-2.1-0.6-2.6
	c-0.4-0.5-1-0.8-1.9-0.8c-0.8,0-1.3,0.3-1.8,0.9c-0.4,0.6-0.6,1.4-0.6,2.5c0,1.1,0.2,1.9,0.6,2.5
	C658.6,271.4,659.2,271.7,659.9,271.7z M667.7,264v5.6c0,0.7,0.1,1.2,0.5,1.6c0.3,0.3,0.8,0.5,1.5,0.5c0.9,0,1.6-0.2,2-0.7
	c0.4-0.5,0.6-1.3,0.6-2.4V264h1.3v8.6h-1.1l-0.2-1.1h-0.1c-0.3,0.4-0.6,0.8-1.1,1c-0.5,0.2-1,0.3-1.6,0.3c-1,0-1.8-0.2-2.3-0.8
	c-0.5-0.5-0.8-1.3-0.8-2.4V264H667.7z M677.6,272.6h-1.3V264h1.3V272.6z M676.2,261.7c0-0.3,0.1-0.5,0.2-0.7
	c0.1-0.1,0.3-0.2,0.6-0.2c0.2,0,0.4,0.1,0.5,0.2c0.2,0.1,0.2,0.4,0.2,0.7c0,0.3-0.1,0.5-0.2,0.6c-0.1,0.1-0.3,0.2-0.5,0.2
	c-0.2,0-0.4-0.1-0.6-0.2C676.3,262.2,676.2,262,676.2,261.7z M685.9,270.3c0,0.8-0.3,1.4-0.9,1.9c-0.6,0.4-1.4,0.6-2.5,0.6
	c-1.1,0-2-0.2-2.7-0.5V271c0.4,0.2,0.9,0.4,1.3,0.5c0.5,0.1,0.9,0.2,1.4,0.2c0.7,0,1.2-0.1,1.6-0.3c0.4-0.2,0.6-0.6,0.6-1
	c0-0.3-0.2-0.6-0.4-0.9c-0.3-0.2-0.9-0.5-1.7-0.8c-0.8-0.3-1.4-0.6-1.7-0.8s-0.6-0.5-0.8-0.8s-0.2-0.6-0.2-1c0-0.7,0.3-1.2,0.9-1.7
	c0.6-0.4,1.3-0.6,2.3-0.6c0.9,0,1.8,0.2,2.7,0.6l-0.5,1.1c-0.9-0.4-1.6-0.5-2.3-0.5c-0.6,0-1.1,0.1-1.4,0.3
	c-0.3,0.2-0.5,0.5-0.5,0.8c0,0.2,0.1,0.4,0.2,0.6c0.1,0.2,0.3,0.3,0.6,0.5c0.3,0.1,0.8,0.4,1.5,0.6c1,0.4,1.7,0.8,2.1,1.1
	C685.7,269.2,685.9,269.7,685.9,270.3z M699,272.6V267c0-0.7-0.1-1.2-0.4-1.5c-0.3-0.3-0.8-0.5-1.4-0.5c-0.8,0-1.4,0.2-1.8,0.7
	c-0.4,0.5-0.6,1.2-0.6,2.1v4.8h-1.3V267c0-0.7-0.1-1.2-0.4-1.5c-0.3-0.3-0.8-0.5-1.4-0.5c-0.8,0-1.4,0.2-1.8,0.7
	c-0.4,0.5-0.6,1.3-0.6,2.4v4.5H688V264h1.1l0.2,1.2h0.1c0.2-0.4,0.6-0.7,1-1c0.5-0.2,1-0.3,1.5-0.3c1.3,0,2.2,0.5,2.6,1.4h0.1
	c0.3-0.4,0.6-0.8,1.1-1.1c0.5-0.3,1-0.4,1.7-0.4c1,0,1.7,0.2,2.2,0.8c0.5,0.5,0.7,1.3,0.7,2.4v5.6H699z"/>
<path class="ft18" d="M849.8,253.1h87c7.5,0,13.5,6,13.5,13.5l0,0c0,7.5-6,13.5-13.5,13.5h-87c-7.5,0-13.5-6-13.5-13.5l0,0
	C836.3,259.1,842.3,253.1,849.8,253.1z"/>
<path class="ft16" d="M857.8,272.6l-3.9-10.1h-0.1c0.1,0.8,0.1,1.8,0.1,2.9v7.3h-1.2v-11.4h2l3.6,9.4h0.1l3.6-9.4h2v11.4h-1.3v-7.4
	c0-0.8,0-1.8,0.1-2.8h-0.1l-3.9,10.1H857.8z M872.3,272.6l-0.3-1.2H872c-0.4,0.5-0.9,0.9-1.3,1.1c-0.4,0.2-1,0.3-1.6,0.3
	c-0.9,0-1.5-0.2-2-0.7s-0.7-1.1-0.7-1.9c0-1.7,1.4-2.6,4.1-2.7l1.5,0v-0.5c0-0.7-0.1-1.2-0.4-1.5c-0.3-0.3-0.7-0.5-1.4-0.5
	c-0.7,0-1.5,0.2-2.4,0.6l-0.4-1c0.4-0.2,0.9-0.4,1.4-0.5c0.5-0.1,1-0.2,1.5-0.2c1,0,1.8,0.2,2.3,0.7c0.5,0.4,0.8,1.2,0.8,2.2v5.8
	H872.3z M869.4,271.7c0.8,0,1.4-0.2,1.9-0.7c0.5-0.4,0.7-1.1,0.7-1.9v-0.8l-1.3,0.1c-1,0-1.8,0.2-2.2,0.5c-0.4,0.3-0.7,0.7-0.7,1.3
	c0,0.5,0.1,0.8,0.4,1.1C868.4,271.6,868.8,271.7,869.4,271.7z M874.6,264h1.4l1.9,4.9c0.4,1.1,0.7,1.9,0.8,2.4h0.1
	c0.1-0.3,0.2-0.7,0.4-1.4c0.2-0.6,0.9-2.6,2.1-5.9h1.4l-3.7,9.8c-0.4,1-0.8,1.6-1.3,2c-0.5,0.4-1.1,0.6-1.8,0.6
	c-0.4,0-0.8,0-1.2-0.1v-1c0.3,0.1,0.6,0.1,1,0.1c0.9,0,1.5-0.5,1.9-1.5l0.5-1.2L874.6,264z M889.2,272.6l-0.2-1.2h-0.1
	c-0.4,0.5-0.9,0.9-1.3,1.1c-0.4,0.2-0.9,0.3-1.6,0.3c-0.8,0-1.5-0.2-2-0.7s-0.7-1.1-0.7-1.9c0-1.7,1.4-2.6,4.1-2.7l1.5,0v-0.5
	c0-0.7-0.2-1.2-0.4-1.5c-0.3-0.3-0.8-0.5-1.4-0.5c-0.7,0-1.5,0.2-2.4,0.6l-0.4-1c0.4-0.2,0.9-0.4,1.4-0.5c0.5-0.1,1-0.2,1.5-0.2
	c1,0,1.8,0.2,2.3,0.7c0.5,0.4,0.8,1.2,0.8,2.2v5.8H889.2z M886.3,271.7c0.8,0,1.4-0.2,1.9-0.7c0.5-0.4,0.7-1.1,0.7-1.9v-0.8
	l-1.3,0.1c-1,0-1.8,0.2-2.2,0.5c-0.5,0.3-0.7,0.7-0.7,1.3c0,0.5,0.1,0.8,0.4,1.1C885.4,271.6,885.8,271.7,886.3,271.7z M893.9,261.2
	l0.1,0.2c-0.1,0.5-0.3,1.1-0.6,1.8c-0.3,0.7-0.5,1.3-0.8,1.9h-0.9c0.4-1.5,0.6-2.8,0.8-3.9H893.9z M901.1,270.3
	c0,0.8-0.3,1.4-0.9,1.9c-0.6,0.4-1.4,0.6-2.5,0.6c-1.1,0-2-0.2-2.7-0.5V271c0.4,0.2,0.9,0.4,1.3,0.5c0.5,0.1,0.9,0.2,1.4,0.2
	c0.7,0,1.2-0.1,1.6-0.3c0.4-0.2,0.6-0.6,0.6-1c0-0.3-0.1-0.6-0.4-0.9s-0.9-0.5-1.7-0.8c-0.8-0.3-1.4-0.6-1.7-0.8
	c-0.3-0.2-0.6-0.5-0.8-0.8c-0.2-0.3-0.2-0.6-0.2-1c0-0.7,0.3-1.2,0.9-1.7c0.6-0.4,1.3-0.6,2.3-0.6c0.9,0,1.8,0.2,2.7,0.6l-0.5,1.1
	c-0.9-0.4-1.6-0.5-2.3-0.5c-0.6,0-1.1,0.1-1.4,0.3c-0.3,0.2-0.5,0.5-0.5,0.8c0,0.2,0.1,0.4,0.2,0.6c0.1,0.2,0.3,0.3,0.6,0.5
	c0.3,0.1,0.8,0.4,1.5,0.6c1,0.4,1.7,0.8,2.1,1.1S901.1,269.7,901.1,270.3z M914.1,261.2h1.4l-4.1,11.4h-1.3l-4.1-11.4h1.4l2.6,7.4
	c0.3,0.9,0.5,1.7,0.7,2.5c0.2-0.8,0.4-1.7,0.7-2.5L914.1,261.2z M920.6,272.8c-1.3,0-2.3-0.4-3-1.2s-1.1-1.8-1.1-3.2
	c0-1.4,0.3-2.5,1-3.3s1.6-1.2,2.7-1.2c1.1,0,1.9,0.4,2.5,1.1c0.6,0.7,0.9,1.6,0.9,2.8v0.8h-5.9c0,1,0.3,1.8,0.8,2.3s1.2,0.8,2,0.8
	c0.9,0,1.8-0.2,2.7-0.6v1.2c-0.5,0.2-0.9,0.3-1.3,0.4C921.6,272.7,921.1,272.8,920.6,272.8z M920.2,265c-0.7,0-1.2,0.2-1.6,0.7
	s-0.6,1.1-0.7,1.9h4.5c0-0.8-0.2-1.4-0.5-1.9C921.4,265.2,920.9,265,920.2,265z M927.2,272.6h-1.3V264h1.3V272.6z M925.8,261.7
	c0-0.3,0.1-0.5,0.2-0.7c0.1-0.1,0.3-0.2,0.5-0.2c0.2,0,0.4,0.1,0.5,0.2c0.1,0.1,0.2,0.4,0.2,0.7c0,0.3-0.1,0.5-0.2,0.6
	c-0.1,0.1-0.3,0.2-0.5,0.2c-0.2,0-0.4-0.1-0.5-0.2C925.9,262.2,925.8,262,925.8,261.7z M931.3,272.6H930v-12.2h1.3V272.6z"/>
<path class="ft19" d="M345.8,213.6h102c7.7,0,14,6.3,14,14l0,0c0,7.7-6.3,14-14,14h-102c-7.7,0-14-6.3-14-14l0,0
	C331.8,219.9,338,213.6,345.8,213.6z"/>
<path class="ft20" d="M349.9,230.6c0,1-0.4,1.8-1.1,2.4c-0.7,0.6-1.7,0.8-3,0.8c-1.4,0-2.4-0.2-3.1-0.5v-1.3c0.5,0.2,1,0.4,1.5,0.5
	c0.6,0.1,1.1,0.2,1.6,0.2c0.9,0,1.6-0.2,2-0.5c0.5-0.3,0.7-0.8,0.7-1.4c0-0.4-0.1-0.7-0.2-1c-0.2-0.3-0.4-0.5-0.8-0.7
	c-0.4-0.2-0.9-0.4-1.7-0.7c-1.1-0.4-1.8-0.8-2.3-1.3c-0.5-0.5-0.7-1.2-0.7-2c0-0.9,0.3-1.6,1-2.1c0.7-0.5,1.5-0.8,2.6-0.8
	c1.1,0,2.2,0.2,3.1,0.6l-0.4,1.2c-0.9-0.4-1.9-0.6-2.8-0.6c-0.7,0-1.2,0.1-1.6,0.4c-0.4,0.3-0.6,0.7-0.6,1.3c0,0.4,0.1,0.7,0.2,1
	c0.1,0.2,0.4,0.5,0.7,0.7c0.4,0.2,0.9,0.4,1.6,0.7c1.2,0.4,2,0.9,2.5,1.4C349.7,229.1,349.9,229.8,349.9,230.6z M355.5,233.8
	c-1.2,0-2.2-0.4-2.9-1.1c-0.7-0.8-1-1.9-1-3.2c0-1.4,0.3-2.5,1-3.3s1.7-1.2,3-1.2c0.4,0,0.8,0.1,1.2,0.1c0.4,0.1,0.7,0.2,1,0.3
	l-0.4,1.1c-0.3-0.1-0.6-0.2-0.9-0.3c-0.3-0.1-0.6-0.1-0.9-0.1c-1.7,0-2.6,1.1-2.6,3.3c0,1.1,0.2,1.9,0.6,2.4c0.4,0.6,1,0.8,1.9,0.8
	c0.7,0,1.4-0.1,2.2-0.5v1.1C357.1,233.6,356.4,233.8,355.5,233.8z M365.6,233.6v-5.5c0-0.7-0.2-1.2-0.5-1.6
	c-0.3-0.3-0.8-0.5-1.5-0.5c-0.9,0-1.6,0.2-2,0.7c-0.4,0.5-0.6,1.3-0.6,2.4v4.5h-1.3v-12.2h1.3v3.7c0,0.4,0,0.8-0.1,1.1h0.1
	c0.3-0.4,0.6-0.7,1.1-1c0.5-0.2,1-0.4,1.6-0.4c1,0,1.8,0.2,2.3,0.8c0.5,0.5,0.8,1.3,0.8,2.4v5.6H365.6z M376.9,229.3
	c0,1.4-0.4,2.5-1.1,3.3c-0.7,0.8-1.7,1.2-2.9,1.2c-0.8,0-1.4-0.2-2-0.5c-0.6-0.4-1.1-0.9-1.4-1.6c-0.3-0.7-0.5-1.5-0.5-2.4
	c0-1.4,0.4-2.5,1.1-3.3c0.7-0.8,1.7-1.2,2.9-1.2c1.2,0,2.1,0.4,2.8,1.2C376.6,226.9,376.9,227.9,376.9,229.3z M370.4,229.3
	c0,1.1,0.2,1.9,0.6,2.5c0.4,0.6,1.1,0.9,1.9,0.9s1.5-0.3,1.9-0.9s0.7-1.4,0.7-2.5c0-1.1-0.2-1.9-0.7-2.5c-0.4-0.6-1.1-0.9-1.9-0.9
	c-0.9,0-1.5,0.3-1.9,0.8C370.6,227.4,370.4,228.2,370.4,229.3z M383.2,233.8c-0.6,0-1.1-0.1-1.5-0.3c-0.4-0.2-0.8-0.5-1.1-1h-0.1
	c0.1,0.5,0.1,1,0.1,1.4v3.5h-1.3V225h1.1l0.2,1.2h0.1c0.3-0.5,0.7-0.8,1.2-1c0.4-0.2,0.9-0.3,1.5-0.3c1.1,0,2,0.4,2.6,1.2
	c0.6,0.8,0.9,1.9,0.9,3.3c0,1.4-0.3,2.5-1,3.3C385.2,233.4,384.3,233.8,383.2,233.8z M383,226c-0.9,0-1.5,0.2-1.9,0.7
	c-0.4,0.5-0.6,1.2-0.6,2.3v0.3c0,1.2,0.2,2.1,0.6,2.6c0.4,0.5,1,0.8,1.9,0.8c0.7,0,1.3-0.3,1.7-0.9c0.4-0.6,0.6-1.4,0.6-2.5
	c0-1.1-0.2-1.9-0.6-2.5C384.3,226.3,383.8,226,383,226z M392.6,233.8c-1.3,0-2.3-0.4-3-1.2s-1.1-1.8-1.1-3.2c0-1.4,0.3-2.5,1-3.3
	c0.7-0.8,1.6-1.2,2.7-1.2c1.1,0,1.9,0.4,2.5,1.1c0.6,0.7,0.9,1.6,0.9,2.8v0.8h-5.9c0,1,0.3,1.8,0.8,2.3s1.2,0.8,2,0.8
	c0.9,0,1.8-0.2,2.7-0.6v1.2c-0.5,0.2-0.9,0.3-1.3,0.4C393.7,233.7,393.2,233.8,392.6,233.8z M392.3,226c-0.7,0-1.2,0.2-1.6,0.7
	c-0.4,0.4-0.6,1.1-0.7,1.9h4.5c0-0.8-0.2-1.4-0.6-1.9C393.5,226.2,393,226,392.3,226z M403.9,233.6v-5.5c0-0.7-0.2-1.2-0.5-1.6
	c-0.3-0.3-0.8-0.5-1.5-0.5c-0.9,0-1.6,0.2-2,0.7c-0.4,0.5-0.6,1.3-0.6,2.4v4.5H398V225h1l0.2,1.2h0.1c0.3-0.4,0.6-0.8,1.1-1
	c0.5-0.2,1-0.3,1.6-0.3c1,0,1.8,0.2,2.3,0.8s0.8,1.3,0.8,2.4v5.6H403.9z M413.7,233.6v-5.5c0-0.7-0.2-1.2-0.5-1.6
	c-0.3-0.3-0.8-0.5-1.5-0.5c-0.9,0-1.6,0.2-2,0.7c-0.4,0.5-0.6,1.3-0.6,2.4v4.5h-1.3v-12.2h1.3v3.7c0,0.4,0,0.8-0.1,1.1h0.1
	c0.2-0.4,0.6-0.7,1.1-1c0.5-0.2,1-0.4,1.6-0.4c1.1,0,1.8,0.2,2.4,0.8c0.5,0.5,0.8,1.3,0.8,2.4v5.6H413.7z M422.9,233.6l-0.3-1.2
	h-0.1c-0.4,0.5-0.9,0.9-1.3,1.1c-0.4,0.2-0.9,0.3-1.6,0.3c-0.9,0-1.5-0.2-2-0.7c-0.5-0.4-0.7-1.1-0.7-1.9c0-1.7,1.4-2.6,4.1-2.7
	l1.4,0v-0.5c0-0.7-0.1-1.2-0.4-1.5c-0.3-0.3-0.8-0.5-1.4-0.5c-0.7,0-1.5,0.2-2.4,0.6l-0.4-1c0.4-0.2,0.9-0.4,1.4-0.5
	c0.5-0.1,1-0.2,1.5-0.2c1,0,1.8,0.2,2.3,0.7c0.5,0.4,0.7,1.2,0.7,2.2v5.8H422.9z M420,232.7c0.8,0,1.4-0.2,1.9-0.7
	c0.5-0.4,0.7-1.1,0.7-1.9v-0.8l-1.3,0.1c-1,0-1.8,0.2-2.2,0.5c-0.4,0.3-0.7,0.7-0.7,1.3c0,0.5,0.1,0.8,0.4,1.1
	C419.1,232.6,419.5,232.7,420,232.7z M427.8,225v5.6c0,0.7,0.2,1.2,0.5,1.6c0.3,0.3,0.8,0.5,1.5,0.5c0.9,0,1.5-0.2,2-0.7
	c0.4-0.5,0.6-1.3,0.6-2.4V225h1.3v8.6h-1.1l-0.2-1.1h-0.1c-0.3,0.4-0.6,0.8-1.1,1c-0.5,0.2-1,0.3-1.6,0.3c-1,0-1.8-0.2-2.3-0.8
	c-0.5-0.5-0.8-1.3-0.8-2.4V225H427.8z M440,233.8c-1.3,0-2.3-0.4-3-1.2c-0.7-0.8-1.1-1.8-1.1-3.2c0-1.4,0.3-2.5,1-3.3
	c0.7-0.8,1.6-1.2,2.7-1.2c1.1,0,1.9,0.4,2.6,1.1c0.6,0.7,0.9,1.6,0.9,2.8v0.8h-5.9c0,1,0.3,1.8,0.8,2.3c0.5,0.5,1.2,0.8,2,0.8
	c0.9,0,1.8-0.2,2.7-0.6v1.2c-0.5,0.2-0.9,0.3-1.3,0.4C441.1,233.7,440.6,233.8,440,233.8z M439.6,226c-0.7,0-1.2,0.2-1.6,0.7
	c-0.4,0.4-0.7,1.1-0.7,1.9h4.5c0-0.8-0.2-1.4-0.5-1.9C440.8,226.2,440.3,226,439.6,226z M449.3,224.9c0.4,0,0.7,0,1,0.1l-0.2,1.2
	c-0.4-0.1-0.7-0.1-0.9-0.1c-0.7,0-1.3,0.3-1.8,0.8c-0.5,0.6-0.7,1.3-0.7,2.1v4.6h-1.3V225h1.1l0.1,1.6h0.1c0.3-0.6,0.7-1,1.1-1.3
	C448.2,225,448.7,224.9,449.3,224.9z"/>
<path class="ft21" d="M260.8,252.6h54c7.7,0,14,6.3,14,14l0,0c0,7.7-6.3,14-14,14h-54c-7.7,0-14-6.3-14-14l0,0
	C246.8,258.9,253,252.6,260.8,252.6z"/>
<path class="ft20" d="M285.9,272.6h-1.3l-2.3-7.6c-0.1-0.3-0.2-0.8-0.4-1.3c-0.1-0.5-0.2-0.8-0.2-0.9c-0.1,0.7-0.3,1.4-0.5,2.3
	l-2.2,7.6h-1.3l-3-11.4h1.4l1.8,7c0.2,1,0.4,1.9,0.6,2.7c0.1-0.9,0.4-1.9,0.6-2.8l2-6.9h1.4l2.1,7c0.2,0.8,0.5,1.7,0.6,2.7
	c0.1-0.7,0.3-1.6,0.6-2.7l1.8-7h1.4L285.9,272.6z M291.9,272.6h-1.3V264h1.3V272.6z M290.5,261.7c0-0.3,0.1-0.5,0.2-0.7
	c0.1-0.1,0.3-0.2,0.5-0.2c0.2,0,0.4,0.1,0.5,0.2c0.2,0.1,0.2,0.4,0.2,0.7c0,0.3-0.1,0.5-0.2,0.6c-0.1,0.1-0.3,0.2-0.5,0.2
	c-0.2,0-0.4-0.1-0.5-0.2C290.5,262.2,290.5,262,290.5,261.7z M295.9,272.6h-1.3v-12.2h1.3V272.6z M300,272.6h-1.3v-12.2h1.3V272.6z"
	/>
<path class="ft22" d="M822.8,213.6h75c7.7,0,14,6.3,14,14l0,0c0,7.7-6.3,14-14,14h-75c-7.7,0-14-6.3-14-14l0,0
	C808.8,219.9,815,213.6,822.8,213.6z"/>
<path class="ft16" d="M828.1,223.2c-1.3,0-2.2,0.4-3,1.3c-0.7,0.8-1.1,2-1.1,3.4c0,1.5,0.4,2.6,1.1,3.5c0.7,0.8,1.7,1.2,3,1.2
	c0.8,0,1.7-0.1,2.7-0.4v1.2c-0.8,0.3-1.8,0.4-2.9,0.4c-1.7,0-3-0.5-3.9-1.5c-0.9-1-1.4-2.5-1.4-4.4c0-1.2,0.2-2.2,0.7-3.1
	c0.4-0.9,1.1-1.6,1.9-2.1c0.8-0.5,1.8-0.7,2.9-0.7c1.2,0,2.2,0.2,3.1,0.7l-0.6,1.1C829.8,223.4,829,223.2,828.1,223.2z M840.5,229.3
	c0,1.4-0.4,2.5-1.1,3.3c-0.7,0.8-1.7,1.2-2.9,1.2c-0.8,0-1.4-0.2-2-0.5c-0.6-0.4-1.1-0.9-1.4-1.6c-0.3-0.7-0.5-1.5-0.5-2.4
	c0-1.4,0.4-2.5,1-3.3c0.7-0.8,1.7-1.2,2.9-1.2c1.2,0,2.1,0.4,2.9,1.2C840.2,226.9,840.5,227.9,840.5,229.3z M834,229.3
	c0,1.1,0.2,1.9,0.7,2.5c0.4,0.6,1.1,0.9,1.9,0.9s1.5-0.3,1.9-0.9c0.4-0.6,0.7-1.4,0.7-2.5c0-1.1-0.2-1.9-0.7-2.5
	c-0.4-0.6-1.1-0.9-2-0.9c-0.9,0-1.5,0.3-1.9,0.8C834.2,227.4,834,228.2,834,229.3z M853.7,233.6V228c0-0.7-0.1-1.2-0.4-1.5
	c-0.3-0.3-0.7-0.5-1.4-0.5c-0.8,0-1.4,0.2-1.8,0.7c-0.4,0.5-0.6,1.2-0.6,2.1v4.8h-1.3V228c0-0.7-0.1-1.2-0.4-1.5
	c-0.3-0.3-0.8-0.5-1.4-0.5c-0.8,0-1.4,0.2-1.8,0.7c-0.4,0.5-0.6,1.3-0.6,2.4v4.5h-1.3V225h1.1l0.2,1.2h0.1c0.2-0.4,0.6-0.7,1-1
	c0.5-0.2,1-0.3,1.5-0.3c1.3,0,2.2,0.5,2.6,1.4h0.1c0.3-0.4,0.6-0.8,1.1-1.1c0.5-0.3,1-0.4,1.7-0.4c1,0,1.7,0.2,2.2,0.8
	c0.5,0.5,0.7,1.3,0.7,2.4v5.6H853.7z M861.7,233.8c-0.6,0-1.1-0.1-1.5-0.3c-0.5-0.2-0.9-0.5-1.2-1h-0.1c0.1,0.5,0.1,1,0.1,1.4v3.5
	h-1.3V225h1.1l0.2,1.2h0.1c0.3-0.5,0.7-0.8,1.2-1c0.4-0.2,1-0.3,1.5-0.3c1.1,0,2,0.4,2.6,1.2c0.6,0.8,0.9,1.9,0.9,3.3
	c0,1.4-0.3,2.5-0.9,3.3C863.6,233.4,862.8,233.8,861.7,233.8z M861.5,226c-0.9,0-1.5,0.2-1.9,0.7c-0.4,0.5-0.6,1.2-0.6,2.3v0.3
	c0,1.2,0.2,2.1,0.6,2.6c0.4,0.5,1,0.8,1.9,0.8c0.7,0,1.3-0.3,1.7-0.9c0.4-0.6,0.6-1.4,0.6-2.5c0-1.1-0.2-1.9-0.6-2.5
	S862.2,226,861.5,226z M868.8,233.6h-1.3v-12.2h1.3V233.6z M876.8,233.6l-0.3-1.2h-0.1c-0.4,0.5-0.9,0.9-1.3,1.1
	c-0.4,0.2-0.9,0.3-1.6,0.3c-0.9,0-1.5-0.2-2-0.7c-0.5-0.4-0.7-1.1-0.7-1.9c0-1.7,1.4-2.6,4.1-2.7l1.5,0v-0.5c0-0.7-0.2-1.2-0.4-1.5
	c-0.3-0.3-0.8-0.5-1.4-0.5c-0.7,0-1.5,0.2-2.4,0.6l-0.4-1c0.4-0.2,0.9-0.4,1.4-0.5c0.5-0.1,1-0.2,1.5-0.2c1,0,1.8,0.2,2.3,0.7
	c0.5,0.4,0.7,1.2,0.7,2.2v5.8H876.8z M873.9,232.7c0.8,0,1.4-0.2,1.9-0.7c0.5-0.4,0.7-1.1,0.7-1.9v-0.8l-1.3,0.1
	c-1,0-1.8,0.2-2.2,0.5c-0.4,0.3-0.7,0.7-0.7,1.3c0,0.5,0.1,0.8,0.4,1.1C873,232.6,873.4,232.7,873.9,232.7z M881.7,233.6h-1.3V225
	h1.3V233.6z M880.3,222.7c0-0.3,0.1-0.5,0.2-0.7c0.1-0.1,0.3-0.2,0.5-0.2c0.2,0,0.4,0.1,0.5,0.2c0.1,0.1,0.2,0.4,0.2,0.7
	c0,0.3-0.1,0.5-0.2,0.6c-0.1,0.1-0.3,0.2-0.5,0.2c-0.2,0-0.4-0.1-0.5-0.2C880.4,223.2,880.3,223,880.3,222.7z M890.4,233.6v-5.5
	c0-0.7-0.2-1.2-0.5-1.6c-0.3-0.3-0.8-0.5-1.5-0.5c-0.9,0-1.6,0.2-2,0.7c-0.4,0.5-0.6,1.3-0.6,2.4v4.5h-1.3V225h1l0.2,1.2h0.1
	c0.3-0.4,0.6-0.8,1.1-1c0.5-0.2,1-0.3,1.6-0.3c1,0,1.8,0.2,2.3,0.8s0.8,1.3,0.8,2.4v5.6H890.4z M897.1,232.7c0.2,0,0.5,0,0.7-0.1
	c0.2,0,0.4-0.1,0.5-0.1v1c-0.1,0.1-0.4,0.1-0.6,0.2c-0.3,0-0.5,0.1-0.7,0.1c-1.6,0-2.5-0.9-2.5-2.6V226h-1.2v-0.6l1.2-0.5l0.6-1.8
	h0.8v2h2.5v1h-2.5v5c0,0.5,0.1,0.9,0.4,1.2C896.3,232.5,896.7,232.7,897.1,232.7z"/>
<path class="ft23" d="M733.8,252.6h81c7.7,0,14,6.3,14,14l0,0c0,7.7-6.3,14-14,14h-81c-7.7,0-14-6.3-14-14l0,0
	C719.8,258.9,726,252.6,733.8,252.6z"/>
<path class="ft20" d="M738,261.2h3.2c1.5,0,2.6,0.2,3.3,0.7c0.7,0.4,1,1.2,1,2.1c0,0.7-0.2,1.2-0.6,1.7c-0.4,0.4-0.9,0.7-1.6,0.8
	v0.1c1.7,0.3,2.6,1.2,2.6,2.7c0,1-0.3,1.8-1,2.4c-0.7,0.6-1.6,0.9-2.9,0.9h-4V261.2z M739.3,266.1h2.2c0.9,0,1.6-0.1,2-0.4
	c0.4-0.3,0.6-0.8,0.6-1.5c0-0.6-0.2-1.1-0.7-1.4c-0.5-0.3-1.2-0.4-2.2-0.4h-1.9V266.1z M739.3,267.2v4.3h2.4c0.9,0,1.6-0.2,2.1-0.5
	c0.5-0.4,0.7-0.9,0.7-1.7c0-0.7-0.2-1.2-0.7-1.6c-0.5-0.3-1.2-0.5-2.2-0.5H739.3z M749.4,264v5.6c0,0.7,0.2,1.2,0.5,1.6
	c0.3,0.3,0.8,0.5,1.5,0.5c0.9,0,1.5-0.2,2-0.7s0.6-1.3,0.6-2.4V264h1.3v8.6h-1.1l-0.2-1.1h-0.1c-0.3,0.4-0.6,0.8-1.1,1
	c-0.5,0.2-1,0.3-1.6,0.3c-1,0-1.8-0.2-2.3-0.8c-0.5-0.5-0.8-1.3-0.8-2.4V264H749.4z M763.8,271.4L763.8,271.4
	c-0.7,0.9-1.6,1.3-2.8,1.3c-1.1,0-2-0.4-2.6-1.1c-0.6-0.8-0.9-1.9-0.9-3.3s0.3-2.5,0.9-3.3c0.6-0.8,1.5-1.2,2.6-1.2
	c1.2,0,2,0.4,2.7,1.3h0.1l-0.1-0.6l0-0.6v-3.5h1.3v12.2h-1L763.8,271.4z M761.2,271.7c0.9,0,1.5-0.2,1.9-0.7
	c0.4-0.5,0.6-1.3,0.6-2.3v-0.3c0-1.2-0.2-2.1-0.6-2.6c-0.4-0.5-1.1-0.8-1.9-0.8c-0.8,0-1.4,0.3-1.8,0.9c-0.4,0.6-0.6,1.4-0.6,2.5
	c0,1.1,0.2,1.9,0.6,2.5C759.9,271.4,760.5,271.7,761.2,271.7z M773.6,271.4L773.6,271.4c-0.7,0.9-1.6,1.3-2.8,1.3
	c-1.1,0-2-0.4-2.6-1.1c-0.6-0.8-0.9-1.9-0.9-3.3s0.3-2.5,0.9-3.3c0.6-0.8,1.5-1.2,2.6-1.2c1.2,0,2,0.4,2.7,1.3h0.1l-0.1-0.6l0-0.6
	v-3.5h1.3v12.2h-1.1L773.6,271.4z M771,271.7c0.9,0,1.5-0.2,1.9-0.7s0.6-1.3,0.6-2.3v-0.3c0-1.2-0.2-2.1-0.6-2.6
	c-0.4-0.5-1.1-0.8-1.9-0.8c-0.8,0-1.4,0.3-1.8,0.9c-0.4,0.6-0.6,1.4-0.6,2.5c0,1.1,0.2,1.9,0.6,2.5
	C769.7,271.4,770.3,271.7,771,271.7z M783.5,272.6v-5.5c0-0.7-0.2-1.2-0.5-1.6c-0.3-0.3-0.8-0.5-1.5-0.5c-0.9,0-1.6,0.2-2,0.7
	c-0.4,0.5-0.6,1.3-0.6,2.4v4.5h-1.3v-12.2h1.3v3.7c0,0.4,0,0.8-0.1,1.1h0.1c0.3-0.4,0.6-0.7,1.1-1c0.5-0.2,1-0.4,1.6-0.4
	c1,0,1.8,0.2,2.4,0.8c0.5,0.5,0.8,1.3,0.8,2.4v5.6H783.5z M788.8,272.6h-1.3V264h1.3V272.6z M787.3,261.7c0-0.3,0.1-0.5,0.2-0.7
	c0.2-0.1,0.3-0.2,0.6-0.2c0.2,0,0.4,0.1,0.5,0.2c0.1,0.1,0.2,0.4,0.2,0.7c0,0.3-0.1,0.5-0.2,0.6c-0.2,0.1-0.3,0.2-0.5,0.2
	c-0.2,0-0.4-0.1-0.6-0.2C787.4,262.2,787.3,262,787.3,261.7z M797,270.3c0,0.8-0.3,1.4-0.9,1.9c-0.6,0.4-1.4,0.6-2.5,0.6
	c-1.1,0-2-0.2-2.7-0.5V271c0.4,0.2,0.9,0.4,1.3,0.5c0.5,0.1,0.9,0.2,1.4,0.2c0.7,0,1.2-0.1,1.6-0.3c0.4-0.2,0.5-0.6,0.5-1
	c0-0.3-0.1-0.6-0.4-0.9c-0.3-0.2-0.8-0.5-1.7-0.8c-0.8-0.3-1.4-0.6-1.7-0.8c-0.3-0.2-0.6-0.5-0.8-0.8c-0.2-0.3-0.2-0.6-0.2-1
	c0-0.7,0.3-1.2,0.9-1.7c0.6-0.4,1.4-0.6,2.3-0.6c0.9,0,1.8,0.2,2.7,0.6l-0.5,1.1c-0.9-0.4-1.6-0.5-2.3-0.5c-0.6,0-1.1,0.1-1.4,0.3
	c-0.3,0.2-0.5,0.5-0.5,0.8c0,0.2,0.1,0.4,0.2,0.6c0.1,0.2,0.3,0.3,0.6,0.5c0.3,0.1,0.8,0.4,1.5,0.6c1,0.4,1.7,0.8,2.1,1.1
	C796.8,269.2,797,269.7,797,270.3z M810.1,272.6V267c0-0.7-0.1-1.2-0.4-1.5c-0.3-0.3-0.7-0.5-1.4-0.5c-0.8,0-1.4,0.2-1.8,0.7
	c-0.4,0.5-0.6,1.2-0.6,2.1v4.8h-1.3V267c0-0.7-0.1-1.2-0.4-1.5c-0.3-0.3-0.7-0.5-1.4-0.5c-0.8,0-1.4,0.2-1.8,0.7
	c-0.4,0.5-0.6,1.3-0.6,2.4v4.5h-1.3V264h1.1l0.2,1.2h0.1c0.2-0.4,0.6-0.7,1-1c0.4-0.2,0.9-0.3,1.5-0.3c1.3,0,2.2,0.5,2.6,1.4h0.1
	c0.3-0.4,0.6-0.8,1.1-1.1c0.5-0.3,1-0.4,1.7-0.4c1,0,1.7,0.2,2.2,0.8c0.5,0.5,0.7,1.3,0.7,2.4v5.6H810.1z"/>
<path class="ft21" d="M349.8,252.6h76c7.7,0,14,6.3,14,14l0,0c0,7.7-6.3,14-14,14h-76c-7.7,0-14-6.3-14-14l0,0
	C335.8,258.9,342,252.6,349.8,252.6z"/>
<path class="ft20" d="M372.1,272.6h-1.3v-10.2h-3.6v-1.2h8.6v1.2h-3.6V272.6z M381.1,263.9c0.4,0,0.7,0,1,0.1l-0.2,1.2
	c-0.4-0.1-0.7-0.1-0.9-0.1c-0.7,0-1.3,0.3-1.8,0.8c-0.5,0.6-0.7,1.3-0.7,2.1v4.6h-1.3V264h1.1l0.1,1.6h0.1c0.3-0.6,0.7-1,1.1-1.3
	C380.1,264,380.6,263.9,381.1,263.9z M385,264v5.6c0,0.7,0.1,1.2,0.5,1.6c0.3,0.3,0.8,0.5,1.5,0.5c0.9,0,1.5-0.2,2-0.7
	c0.4-0.5,0.6-1.3,0.6-2.4V264h1.3v8.6h-1.1l-0.2-1.1h-0.1c-0.3,0.4-0.6,0.8-1.1,1c-0.5,0.2-1,0.3-1.6,0.3c-1,0-1.8-0.2-2.3-0.8
	c-0.5-0.5-0.8-1.3-0.8-2.4V264H385z M396.3,271.7c0.2,0,0.5,0,0.7-0.1c0.2,0,0.4-0.1,0.5-0.1v1c-0.1,0.1-0.4,0.1-0.6,0.2
	c-0.3,0-0.5,0.1-0.7,0.1c-1.6,0-2.5-0.9-2.5-2.6V265h-1.2v-0.6l1.2-0.5l0.6-1.8h0.8v2h2.5v1H395v5c0,0.5,0.1,0.9,0.4,1.2
	C395.6,271.5,395.9,271.7,396.3,271.7z M405.1,272.6v-5.5c0-0.7-0.2-1.2-0.5-1.6c-0.3-0.3-0.8-0.5-1.5-0.5c-0.9,0-1.6,0.2-2,0.7
	c-0.4,0.5-0.6,1.3-0.6,2.4v4.5h-1.3v-12.2h1.3v3.7c0,0.4,0,0.8-0.1,1.1h0.1c0.3-0.4,0.6-0.7,1.1-1c0.5-0.2,1-0.4,1.6-0.4
	c1,0,1.8,0.2,2.4,0.8c0.5,0.5,0.8,1.3,0.8,2.4v5.6H405.1z"/>
<path class="ft21" d="M723.8,213.6h63c7.7,0,14,6.3,14,14l0,0c0,7.7-6.3,14-14,14h-63c-7.7,0-14-6.3-14-14l0,0
	C709.8,219.9,716,213.6,723.8,213.6z"/>
<path class="ft20" d="M730.3,233.6H729v-10.2h-3.6v-1.2h8.6v1.2h-3.6V233.6z M739.4,224.9c0.4,0,0.7,0,1,0.1l-0.2,1.2
	c-0.4-0.1-0.7-0.1-0.9-0.1c-0.7,0-1.3,0.3-1.8,0.8c-0.5,0.6-0.7,1.3-0.7,2.1v4.6h-1.3V225h1.1l0.1,1.6h0.1c0.3-0.6,0.7-1,1.1-1.3
	C738.3,225,738.8,224.9,739.4,224.9z M747.3,233.6l-0.3-1.2h-0.1c-0.4,0.5-0.9,0.9-1.3,1.1c-0.4,0.2-0.9,0.3-1.6,0.3
	c-0.9,0-1.5-0.2-2-0.7c-0.5-0.4-0.7-1.1-0.7-1.9c0-1.7,1.4-2.6,4.2-2.7l1.5,0v-0.5c0-0.7-0.2-1.2-0.4-1.5c-0.3-0.3-0.8-0.5-1.4-0.5
	c-0.7,0-1.5,0.2-2.4,0.6l-0.4-1c0.4-0.2,0.9-0.4,1.4-0.5c0.5-0.1,1-0.2,1.5-0.2c1,0,1.8,0.2,2.3,0.7c0.5,0.4,0.7,1.2,0.7,2.2v5.8
	H747.3z M744.3,232.7c0.8,0,1.4-0.2,1.9-0.7c0.5-0.4,0.7-1.1,0.7-1.9v-0.8l-1.3,0.1c-1,0-1.8,0.2-2.2,0.5c-0.4,0.3-0.7,0.7-0.7,1.3
	c0,0.5,0.1,0.8,0.4,1.1C743.4,232.6,743.8,232.7,744.3,232.7z M757.9,225v0.8l-1.6,0.2c0.1,0.2,0.3,0.4,0.4,0.7
	c0.1,0.3,0.2,0.6,0.2,1c0,0.8-0.3,1.5-0.9,2c-0.6,0.5-1.4,0.8-2.4,0.8c-0.3,0-0.5,0-0.7-0.1c-0.5,0.3-0.8,0.7-0.8,1.1
	c0,0.2,0.1,0.4,0.3,0.5c0.2,0.1,0.5,0.2,1,0.2h1.5c0.9,0,1.6,0.2,2.1,0.6c0.5,0.4,0.8,0.9,0.8,1.7c0,0.9-0.4,1.7-1.1,2.2
	c-0.8,0.5-1.9,0.8-3.3,0.8c-1.1,0-2-0.2-2.6-0.6s-0.9-1-0.9-1.8c0-0.5,0.2-1,0.5-1.3c0.3-0.4,0.8-0.6,1.4-0.8
	c-0.2-0.1-0.4-0.2-0.6-0.5c-0.1-0.2-0.2-0.5-0.2-0.7c0-0.3,0.1-0.6,0.2-0.8c0.2-0.2,0.4-0.5,0.8-0.7c-0.4-0.2-0.8-0.5-1.1-0.9
	c-0.3-0.4-0.4-0.9-0.4-1.5c0-0.9,0.3-1.7,0.8-2.2c0.6-0.5,1.4-0.8,2.4-0.8c0.5,0,0.9,0.1,1.2,0.2H757.9z M751.1,235
	c0,0.5,0.2,0.8,0.6,1.1c0.4,0.2,0.9,0.4,1.7,0.4c1.1,0,1.9-0.2,2.4-0.5c0.5-0.3,0.8-0.8,0.8-1.3c0-0.5-0.1-0.8-0.4-1
	c-0.3-0.2-0.8-0.3-1.6-0.3H753c-0.6,0-1,0.1-1.4,0.4C751.3,234.1,751.1,234.5,751.1,235z M751.8,227.8c0,0.6,0.2,1.1,0.5,1.4
	c0.3,0.3,0.8,0.5,1.4,0.5c1.3,0,1.9-0.6,1.9-1.8c0-1.3-0.6-1.9-1.9-1.9c-0.6,0-1.1,0.2-1.4,0.5C752,226.6,751.8,227.1,751.8,227.8z
	 M763.3,233.8c-1.3,0-2.3-0.4-3-1.2c-0.7-0.8-1.1-1.8-1.1-3.2c0-1.4,0.3-2.5,1-3.3c0.7-0.8,1.6-1.2,2.7-1.2c1.1,0,1.9,0.4,2.6,1.1
	c0.6,0.7,0.9,1.6,0.9,2.8v0.8h-5.9c0,1,0.3,1.8,0.8,2.3c0.5,0.5,1.2,0.8,2,0.8c0.9,0,1.8-0.2,2.7-0.6v1.2c-0.5,0.2-0.9,0.3-1.3,0.4
	C764.4,233.7,763.9,233.8,763.3,233.8z M762.9,226c-0.7,0-1.2,0.2-1.6,0.7c-0.4,0.4-0.6,1.1-0.7,1.9h4.5c0-0.8-0.2-1.4-0.5-1.9
	C764.1,226.2,763.6,226,762.9,226z M774.5,232.4L774.5,232.4c-0.7,0.9-1.6,1.3-2.8,1.3c-1.1,0-2-0.4-2.6-1.1
	c-0.6-0.8-0.9-1.9-0.9-3.3s0.3-2.5,0.9-3.3c0.6-0.8,1.5-1.2,2.6-1.2c1.2,0,2,0.4,2.7,1.3h0.1l-0.1-0.6l0-0.6v-3.5h1.3v12.2h-1.1
	L774.5,232.4z M771.9,232.7c0.9,0,1.5-0.2,1.9-0.7c0.4-0.5,0.6-1.3,0.6-2.3v-0.3c0-1.2-0.2-2.1-0.6-2.6c-0.4-0.5-1-0.8-1.9-0.8
	c-0.8,0-1.3,0.3-1.8,0.9c-0.4,0.6-0.6,1.4-0.6,2.5c0,1.1,0.2,1.9,0.6,2.5C770.5,232.4,771.1,232.7,771.9,232.7z M777.1,225h1.4
	l1.9,4.9c0.4,1.1,0.7,1.9,0.8,2.4h0.1c0.1-0.3,0.2-0.7,0.4-1.4c0.2-0.6,0.9-2.6,2.1-5.9h1.4l-3.7,9.8c-0.4,1-0.8,1.6-1.3,2
	c-0.5,0.4-1.1,0.6-1.8,0.6c-0.4,0-0.8,0-1.2-0.1v-1c0.3,0.1,0.6,0.1,1,0.1c0.9,0,1.5-0.5,1.9-1.5l0.5-1.2L777.1,225z"/>
<path class="ft24" d="M460.8,253.1h49c7.5,0,13.5,6,13.5,13.5l0,0c0,7.5-6,13.5-13.5,13.5h-49c-7.5,0-13.5-6-13.5-13.5l0,0
	C447.3,259.1,453.3,253.1,460.8,253.1z"/>
<path class="ft16" d="M469.2,272.6l-3.9-10.1h-0.1c0.1,0.8,0.1,1.8,0.1,2.9v7.3h-1.2v-11.4h2l3.6,9.4h0.1l3.7-9.4h2v11.4h-1.3v-7.4
	c0-0.8,0-1.8,0.1-2.8h-0.1l-3.9,10.1H469.2z M479.6,264v5.6c0,0.7,0.2,1.2,0.5,1.6c0.3,0.3,0.8,0.5,1.5,0.5c0.9,0,1.5-0.2,2-0.7
	c0.4-0.5,0.6-1.3,0.6-2.4V264h1.3v8.6h-1.1l-0.2-1.1h-0.1c-0.3,0.4-0.6,0.8-1.1,1c-0.5,0.2-1,0.3-1.6,0.3c-1,0-1.8-0.2-2.3-0.8
	c-0.5-0.5-0.8-1.3-0.8-2.4V264H479.6z M493.7,270.3c0,0.8-0.3,1.4-0.9,1.9c-0.6,0.4-1.4,0.6-2.5,0.6c-1.1,0-2-0.2-2.7-0.5V271
	c0.4,0.2,0.8,0.4,1.3,0.5c0.5,0.1,0.9,0.2,1.4,0.2c0.7,0,1.2-0.1,1.6-0.3c0.4-0.2,0.5-0.6,0.5-1c0-0.3-0.1-0.6-0.4-0.9
	s-0.9-0.5-1.7-0.8c-0.8-0.3-1.4-0.6-1.7-0.8c-0.3-0.2-0.6-0.5-0.8-0.8c-0.2-0.3-0.2-0.6-0.2-1c0-0.7,0.3-1.2,0.8-1.7
	c0.6-0.4,1.4-0.6,2.3-0.6c0.9,0,1.8,0.2,2.7,0.6l-0.5,1.1c-0.9-0.4-1.6-0.5-2.3-0.5c-0.6,0-1.1,0.1-1.4,0.3
	c-0.3,0.2-0.5,0.5-0.5,0.8c0,0.2,0.1,0.4,0.2,0.6c0.1,0.2,0.3,0.3,0.6,0.5c0.3,0.1,0.8,0.4,1.5,0.6c1,0.4,1.7,0.8,2.1,1.1
	S493.7,269.7,493.7,270.3z M497.2,272.6h-1.3V264h1.3V272.6z M495.8,261.7c0-0.3,0.1-0.5,0.2-0.7c0.1-0.1,0.3-0.2,0.5-0.2
	c0.2,0,0.4,0.1,0.5,0.2c0.1,0.1,0.2,0.4,0.2,0.7c0,0.3-0.1,0.5-0.2,0.6c-0.1,0.1-0.3,0.2-0.5,0.2c-0.2,0-0.4-0.1-0.5-0.2
	C495.8,262.2,495.8,262,495.8,261.7z M503.3,272.8c-1.2,0-2.2-0.4-2.9-1.1c-0.7-0.8-1-1.9-1-3.2c0-1.4,0.3-2.5,1-3.3
	c0.7-0.8,1.7-1.2,2.9-1.2c0.4,0,0.8,0.1,1.2,0.1c0.4,0.1,0.7,0.2,1,0.3l-0.4,1.1c-0.3-0.1-0.6-0.2-0.9-0.3c-0.3-0.1-0.6-0.1-0.9-0.1
	c-1.7,0-2.6,1.1-2.6,3.3c0,1.1,0.2,1.9,0.6,2.4c0.4,0.6,1.1,0.8,1.9,0.8c0.7,0,1.5-0.1,2.2-0.5v1.1
	C504.9,272.6,504.2,272.8,503.3,272.8z"/>
<path class="ft25" d="M544.8,252.6h54c7.7,0,14,6.3,14,14l0,0c0,7.7-6.3,14-14,14h-54c-7.7,0-14-6.3-14-14l0,0
	C530.8,258.9,537,252.6,544.8,252.6z"/>
<path class="ft20" d="M544,266.6h3.9v5.6c-0.6,0.2-1.2,0.3-1.8,0.4c-0.6,0.1-1.4,0.1-2.2,0.1c-1.7,0-3.1-0.5-4-1.5
	c-1-1-1.5-2.5-1.5-4.3c0-1.2,0.2-2.2,0.7-3.1c0.5-0.9,1.2-1.6,2.1-2c0.9-0.5,1.9-0.7,3.1-0.7c1.2,0,2.4,0.2,3.4,0.7l-0.5,1.2
	c-1-0.4-2-0.7-3-0.7c-1.4,0-2.5,0.4-3.3,1.2c-0.8,0.8-1.2,2-1.2,3.4c0,1.5,0.4,2.7,1.1,3.5c0.8,0.8,1.9,1.2,3.3,1.2
	c0.8,0,1.6-0.1,2.3-0.3v-3.5H544V266.6z M554.1,272.8c-1.3,0-2.3-0.4-3-1.2s-1.1-1.8-1.1-3.2c0-1.4,0.3-2.5,1-3.3s1.6-1.2,2.7-1.2
	c1.1,0,1.9,0.4,2.5,1.1c0.6,0.7,0.9,1.6,0.9,2.8v0.8h-5.9c0,1,0.3,1.8,0.8,2.3c0.5,0.5,1.2,0.8,2,0.8c0.9,0,1.8-0.2,2.7-0.6v1.2
	c-0.5,0.2-0.9,0.3-1.3,0.4C555.2,272.7,554.7,272.8,554.1,272.8z M553.7,265c-0.7,0-1.2,0.2-1.6,0.7s-0.6,1.1-0.7,1.9h4.5
	c0-0.8-0.2-1.4-0.5-1.9C554.9,265.2,554.4,265,553.7,265z M563.4,263.9c0.4,0,0.7,0,1,0.1l-0.2,1.2c-0.4-0.1-0.7-0.1-0.9-0.1
	c-0.7,0-1.3,0.3-1.8,0.8c-0.5,0.6-0.7,1.3-0.7,2.1v4.6h-1.3V264h1.1l0.2,1.6h0.1c0.3-0.6,0.7-1,1.1-1.3
	C562.3,264,562.8,263.9,563.4,263.9z M576.9,272.6V267c0-0.7-0.1-1.2-0.4-1.5c-0.3-0.3-0.7-0.5-1.4-0.5c-0.8,0-1.4,0.2-1.8,0.7
	c-0.4,0.5-0.6,1.2-0.6,2.1v4.8h-1.3V267c0-0.7-0.2-1.2-0.4-1.5c-0.3-0.3-0.8-0.5-1.4-0.5c-0.8,0-1.4,0.2-1.8,0.7
	c-0.4,0.5-0.6,1.3-0.6,2.4v4.5H566V264h1.1l0.2,1.2h0.1c0.2-0.4,0.6-0.7,1-1c0.4-0.2,0.9-0.3,1.5-0.3c1.3,0,2.2,0.5,2.6,1.4h0.1
	c0.3-0.4,0.6-0.8,1.1-1.1c0.5-0.3,1-0.4,1.7-0.4c1,0,1.7,0.2,2.2,0.8s0.7,1.3,0.7,2.4v5.6H576.9z M586.1,272.6l-0.3-1.2h-0.1
	c-0.4,0.5-0.9,0.9-1.3,1.1c-0.4,0.2-0.9,0.3-1.6,0.3c-0.9,0-1.5-0.2-2-0.7c-0.5-0.4-0.7-1.1-0.7-1.9c0-1.7,1.4-2.6,4.1-2.7l1.5,0
	v-0.5c0-0.7-0.1-1.2-0.4-1.5c-0.3-0.3-0.8-0.5-1.4-0.5c-0.7,0-1.5,0.2-2.4,0.6l-0.4-1c0.4-0.2,0.9-0.4,1.4-0.5
	c0.5-0.1,1-0.2,1.5-0.2c1,0,1.8,0.2,2.3,0.7c0.5,0.4,0.7,1.2,0.7,2.2v5.8H586.1z M583.2,271.7c0.8,0,1.4-0.2,1.9-0.7
	c0.5-0.4,0.7-1.1,0.7-1.9v-0.8l-1.3,0.1c-1,0-1.8,0.2-2.2,0.5c-0.4,0.3-0.7,0.7-0.7,1.3c0,0.5,0.1,0.8,0.4,1.1
	C582.3,271.6,582.7,271.7,583.2,271.7z M595.6,272.6v-5.5c0-0.7-0.2-1.2-0.5-1.6c-0.3-0.3-0.8-0.5-1.5-0.5c-0.9,0-1.6,0.2-2,0.7
	c-0.4,0.5-0.6,1.3-0.6,2.4v4.5h-1.3V264h1.1l0.2,1.2h0.1c0.3-0.4,0.6-0.8,1.1-1c0.5-0.2,1-0.3,1.6-0.3c1,0,1.8,0.2,2.3,0.8
	s0.8,1.3,0.8,2.4v5.6H595.6z M598.3,264h1.4l1.9,4.9c0.4,1.1,0.7,1.9,0.8,2.4h0.1c0.1-0.3,0.2-0.7,0.4-1.4c0.2-0.6,0.9-2.6,2.1-5.9
	h1.4l-3.7,9.8c-0.4,1-0.8,1.6-1.3,2c-0.5,0.4-1.1,0.6-1.8,0.6c-0.4,0-0.8,0-1.2-0.1v-1c0.3,0.1,0.6,0.1,1,0.1c0.9,0,1.5-0.5,1.9-1.5
	l0.5-1.2L598.3,264z"/>
<path class="ft19" d="M483.8,213.6h68c7.7,0,14,6.3,14,14l0,0c0,7.7-6.3,14-14,14h-68c-7.7,0-14-6.3-14-14l0,0
	C469.8,219.9,476,213.6,483.8,213.6z"/>
<path class="ft20" d="M510.4,233.6h-1.6l-4.2-5.5l-1.2,1.1v4.5h-1.3v-11.4h1.3v5.7l5.2-5.7h1.6l-4.6,5L510.4,233.6z M517.1,233.6
	l-0.3-1.2h-0.1c-0.4,0.5-0.9,0.9-1.3,1.1c-0.4,0.2-1,0.3-1.6,0.3c-0.8,0-1.5-0.2-2-0.7c-0.5-0.4-0.7-1.1-0.7-1.9
	c0-1.7,1.4-2.6,4.1-2.7l1.5,0v-0.5c0-0.7-0.1-1.2-0.4-1.5c-0.3-0.3-0.8-0.5-1.4-0.5c-0.7,0-1.5,0.2-2.4,0.6l-0.4-1
	c0.4-0.2,0.9-0.4,1.4-0.5c0.5-0.1,1-0.2,1.5-0.2c1,0,1.8,0.2,2.3,0.7c0.5,0.4,0.7,1.2,0.7,2.2v5.8H517.1z M514.1,232.7
	c0.8,0,1.4-0.2,1.9-0.7c0.5-0.4,0.7-1.1,0.7-1.9v-0.8l-1.3,0.1c-1,0-1.8,0.2-2.2,0.5c-0.5,0.3-0.7,0.7-0.7,1.3
	c0,0.5,0.1,0.8,0.4,1.1C513.2,232.6,513.6,232.7,514.1,232.7z M526.6,233.6v-5.5c0-0.7-0.2-1.2-0.5-1.6c-0.3-0.3-0.8-0.5-1.5-0.5
	c-0.9,0-1.6,0.2-2,0.7c-0.4,0.5-0.6,1.3-0.6,2.4v4.5h-1.3V225h1.1l0.2,1.2h0.1c0.3-0.4,0.6-0.8,1.1-1c0.5-0.2,1-0.3,1.6-0.3
	c1,0,1.8,0.2,2.3,0.8s0.8,1.3,0.8,2.4v5.6H526.6z M533.3,232.7c0.2,0,0.5,0,0.7-0.1c0.2,0,0.4-0.1,0.5-0.1v1
	c-0.1,0.1-0.4,0.1-0.6,0.2c-0.3,0-0.5,0.1-0.7,0.1c-1.7,0-2.5-0.9-2.5-2.6V226h-1.2v-0.6l1.2-0.5l0.6-1.8h0.8v2h2.5v1h-2.5v5
	c0,0.5,0.1,0.9,0.4,1.2C532.5,232.5,532.9,232.7,533.3,232.7z"/>
<g>
	<path class="ft16" d="M95.5,266.4c-0.7,0-1.2,0.2-1.6,0.7c-0.4,0.5-0.6,1.1-0.6,2c0,0.9,0.2,1.5,0.6,2s0.9,0.7,1.6,0.7
		c0.3,0,0.6,0,0.9-0.1c0.3-0.1,0.6-0.1,0.9-0.2v1c-0.6,0.2-1.2,0.3-1.9,0.3c-1,0-1.8-0.3-2.4-0.9c-0.6-0.6-0.8-1.5-0.8-2.7
		c0-0.7,0.1-1.4,0.4-1.9s0.7-1,1.2-1.3c0.5-0.3,1.1-0.4,1.8-0.4c0.7,0,1.4,0.2,2,0.5l-0.4,1c-0.2-0.1-0.5-0.2-0.8-0.3
		C96.1,266.4,95.8,266.4,95.5,266.4z"/>
	<path class="ft16" d="M104.5,272.6h-1.2v-3.2H100v3.2h-1.2v-7.1h1.2v2.9h3.3v-2.9h1.2V272.6z"/>
	<path class="ft16" d="M107.5,269.8v2.9h-1.2v-7.1h2c0.9,0,1.6,0.2,2,0.5c0.4,0.3,0.7,0.9,0.7,1.6c0,0.9-0.5,1.5-1.4,1.9l2,3.2h-1.3
		l-1.7-2.9H107.5z M107.5,268.8h0.8c0.5,0,0.9-0.1,1.2-0.3c0.2-0.2,0.4-0.5,0.4-0.9c0-0.4-0.1-0.7-0.4-0.9s-0.7-0.3-1.2-0.3h-0.8
		V268.8z"/>
	<path class="ft16" d="M119.1,269c0,1.2-0.3,2.1-0.9,2.7s-1.4,1-2.5,1c-1.1,0-1.9-0.3-2.5-1c-0.6-0.6-0.9-1.5-0.9-2.7
		c0-1.2,0.3-2.1,0.9-2.7c0.6-0.6,1.4-0.9,2.5-0.9c1.1,0,1.9,0.3,2.5,1C118.8,267,119.1,267.9,119.1,269z M113.6,269
		c0,0.9,0.2,1.5,0.5,2c0.4,0.5,0.9,0.7,1.6,0.7c0.7,0,1.2-0.2,1.6-0.7s0.5-1.1,0.5-2c0-0.9-0.2-1.5-0.5-2c-0.4-0.5-0.9-0.7-1.6-0.7
		c-0.7,0-1.2,0.2-1.6,0.7C113.8,267.5,113.6,268.2,113.6,269z"/>
	<path class="ft16" d="M126.6,272.6h-1.4l-3.5-5.7h0l0,0.3c0,0.6,0.1,1.2,0.1,1.7v3.7h-1.1v-7.1h1.4l3.5,5.7h0c0-0.1,0-0.3,0-0.8
		c0-0.5,0-0.8,0-1.1v-3.7h1.1V272.6z"/>
	<path class="ft16" d="M134.8,269c0,1.2-0.3,2.1-0.9,2.7s-1.4,1-2.5,1c-1.1,0-1.9-0.3-2.5-1c-0.6-0.6-0.9-1.5-0.9-2.7
		c0-1.2,0.3-2.1,0.9-2.7c0.6-0.6,1.4-0.9,2.5-0.9c1.1,0,1.9,0.3,2.5,1C134.5,267,134.8,267.9,134.8,269z M129.3,269
		c0,0.9,0.2,1.5,0.5,2c0.4,0.5,0.9,0.7,1.6,0.7c0.7,0,1.2-0.2,1.6-0.7s0.5-1.1,0.5-2c0-0.9-0.2-1.5-0.5-2c-0.4-0.5-0.9-0.7-1.6-0.7
		c-0.7,0-1.2,0.2-1.6,0.7C129.5,267.5,129.3,268.2,129.3,269z"/>
	<path class="ft16" d="M136.3,272.6v-7.1h1.2v6.1h3v1H136.3z"/>
	<path class="ft16" d="M148.1,269c0,1.2-0.3,2.1-0.9,2.7s-1.4,1-2.5,1c-1.1,0-1.9-0.3-2.5-1c-0.6-0.6-0.9-1.5-0.9-2.7
		c0-1.2,0.3-2.1,0.9-2.7c0.6-0.6,1.4-0.9,2.5-0.9c1.1,0,1.9,0.3,2.5,1C147.8,267,148.1,267.9,148.1,269z M142.6,269
		c0,0.9,0.2,1.5,0.5,2c0.4,0.5,0.9,0.7,1.6,0.7c0.7,0,1.2-0.2,1.6-0.7s0.5-1.1,0.5-2c0-0.9-0.2-1.5-0.5-2c-0.4-0.5-0.9-0.7-1.6-0.7
		c-0.7,0-1.2,0.2-1.6,0.7C142.8,267.5,142.6,268.2,142.6,269z"/>
	<path class="ft16" d="M152.5,268.8h2.6v3.6c-0.4,0.1-0.8,0.2-1.2,0.3s-0.8,0.1-1.3,0.1c-1.1,0-1.9-0.3-2.5-1
		c-0.6-0.6-0.9-1.5-0.9-2.7c0-1.1,0.3-2,1-2.7s1.6-1,2.7-1c0.7,0,1.5,0.1,2.1,0.4l-0.4,1c-0.6-0.3-1.2-0.4-1.7-0.4
		c-0.8,0-1.4,0.2-1.8,0.7s-0.7,1.1-0.7,2c0,0.9,0.2,1.5,0.6,2c0.4,0.5,1,0.7,1.7,0.7c0.4,0,0.8,0,1.2-0.1v-1.8h-1.5V268.8z"/>
	<path class="ft16" d="M156.9,272.6v-7.1h1.2v7.1H156.9z"/>
	<path class="ft16" d="M163,266.4c-0.7,0-1.2,0.2-1.6,0.7c-0.4,0.5-0.6,1.1-0.6,2c0,0.9,0.2,1.5,0.6,2s0.9,0.7,1.6,0.7
		c0.3,0,0.6,0,0.9-0.1c0.3-0.1,0.6-0.1,0.9-0.2v1c-0.6,0.2-1.2,0.3-1.9,0.3c-1,0-1.8-0.3-2.4-0.9c-0.6-0.6-0.8-1.5-0.8-2.7
		c0-0.7,0.1-1.4,0.4-1.9s0.7-1,1.2-1.3c0.5-0.3,1.1-0.4,1.8-0.4c0.7,0,1.4,0.2,2,0.5l-0.4,1c-0.2-0.1-0.5-0.2-0.8-0.3
		C163.5,266.4,163.3,266.4,163,266.4z"/>
	<path class="ft16" d="M170.7,272.6l-0.7-2h-2.7l-0.7,2h-1.2l2.7-7.2h1.3l2.7,7.2H170.7z M169.7,269.6l-0.7-1.9
		c0-0.1-0.1-0.3-0.2-0.6c-0.1-0.3-0.1-0.5-0.2-0.6c-0.1,0.4-0.2,0.8-0.4,1.3l-0.6,1.9H169.7z"/>
	<path class="ft16" d="M172.9,272.6v-7.1h1.2v6.1h3v1H172.9z"/>
	<path class="ft16" d="M95,287.6h-1.2v-6.1h-2.1v-1h5.4v1H95V287.6z"/>
	<path class="ft16" d="M103.8,287.6h-1.2v-3.2h-3.3v3.2h-1.2v-7.1h1.2v2.9h3.3v-2.9h1.2V287.6z"/>
	<path class="ft16" d="M109.7,287.6h-4v-7.1h4v1h-2.9v1.9h2.7v1h-2.7v2.2h2.9V287.6z"/>
	<path class="ft16" d="M114.3,287.6l-2.1-6h0c0.1,0.9,0.1,1.7,0.1,2.5v3.5h-1.1v-7.1h1.6l2,5.7h0l2-5.7h1.7v7.1h-1.1v-3.5
		c0-0.4,0-0.8,0-1.4s0-0.9,0-1h0l-2.1,6H114.3z"/>
	<path class="ft16" d="M124.5,287.6h-4v-7.1h4v1h-2.9v1.9h2.7v1h-2.7v2.2h2.9V287.6z"/>
	<path class="ft16" d="M130.2,285.7c0,0.6-0.2,1.1-0.7,1.5s-1.1,0.5-1.9,0.5s-1.5-0.1-2-0.4v-1.1c0.3,0.2,0.7,0.3,1,0.4
		s0.7,0.1,1,0.1c0.5,0,0.8-0.1,1-0.3s0.3-0.4,0.3-0.7c0-0.3-0.1-0.5-0.3-0.7s-0.6-0.4-1.2-0.7c-0.7-0.3-1.1-0.6-1.4-0.9
		s-0.4-0.7-0.4-1.2c0-0.6,0.2-1.1,0.6-1.4s1-0.5,1.7-0.5c0.7,0,1.4,0.1,2,0.4l-0.4,1c-0.6-0.3-1.2-0.4-1.7-0.4
		c-0.4,0-0.7,0.1-0.9,0.2c-0.2,0.2-0.3,0.4-0.3,0.7c0,0.2,0,0.3,0.1,0.5c0.1,0.1,0.2,0.3,0.4,0.4s0.5,0.3,1,0.5
		c0.5,0.2,0.9,0.4,1.2,0.6s0.4,0.4,0.5,0.6S130.2,285.4,130.2,285.7z"/>
	<path class="ft16" d="M135.3,287.6h-1.2v-7.1h4v1h-2.9v2.2h2.7v1h-2.7V287.6z"/>
	<path class="ft16" d="M139.5,287.6v-7.1h1.2v7.1H139.5z"/>
	<path class="ft16" d="M142.5,287.6v-7.1h1.2v6.1h3v1H142.5z"/>
	<path class="ft16" d="M150.4,287.6h-1.2v-6.1h-2.1v-1h5.4v1h-2.1V287.6z"/>
	<path class="ft16" d="M157.7,287.6h-4v-7.1h4v1h-2.9v1.9h2.7v1h-2.7v2.2h2.9V287.6z"/>
	<path class="ft16" d="M160.4,284.8v2.9h-1.2v-7.1h2c0.9,0,1.6,0.2,2,0.5s0.7,0.9,0.7,1.6c0,0.9-0.5,1.5-1.4,1.9l2,3.2h-1.3
		l-1.7-2.9H160.4z M160.4,283.8h0.8c0.5,0,0.9-0.1,1.2-0.3s0.4-0.5,0.4-0.9c0-0.4-0.1-0.7-0.4-0.9s-0.7-0.3-1.2-0.3h-0.8V283.8z"/>
</g>
<g>
	<path class="ft16" d="M95.8,300.8c0,0.5-0.2,0.9-0.6,1.2s-0.9,0.4-1.6,0.4c-0.7,0-1.3-0.1-1.7-0.3v-0.8c0.3,0.1,0.5,0.2,0.8,0.3
		s0.6,0.1,0.9,0.1c0.4,0,0.7-0.1,1-0.2c0.2-0.1,0.3-0.3,0.3-0.6c0-0.2-0.1-0.4-0.3-0.5c-0.2-0.1-0.5-0.3-1.1-0.5
		c-0.5-0.2-0.9-0.3-1.1-0.5c-0.2-0.1-0.4-0.3-0.5-0.5s-0.2-0.4-0.2-0.6c0-0.4,0.2-0.8,0.5-1c0.4-0.3,0.8-0.4,1.5-0.4
		c0.6,0,1.1,0.1,1.7,0.4l-0.3,0.7c-0.5-0.2-1-0.3-1.5-0.3c-0.4,0-0.7,0.1-0.9,0.2c-0.2,0.1-0.3,0.3-0.3,0.5c0,0.1,0,0.3,0.1,0.4
		c0.1,0.1,0.2,0.2,0.4,0.3c0.2,0.1,0.5,0.2,0.9,0.4c0.6,0.2,1.1,0.5,1.3,0.7S95.8,300.5,95.8,300.8z"/>
	<path class="ft16" d="M100.8,302.3v-3.5c0-0.4-0.1-0.8-0.3-1s-0.5-0.3-0.9-0.3c-0.6,0-1,0.2-1.2,0.5c-0.3,0.3-0.4,0.8-0.4,1.5v2.8
		h-0.8v-7.6h0.8v2.3c0,0.3,0,0.5,0,0.7h0c0.2-0.3,0.4-0.5,0.7-0.6c0.3-0.1,0.6-0.2,1-0.2c0.7,0,1.1,0.2,1.5,0.5
		c0.3,0.3,0.5,0.8,0.5,1.5v3.5H100.8z"/>
	<path class="ft16" d="M107.9,299.6c0,0.9-0.2,1.6-0.7,2c-0.4,0.5-1,0.7-1.8,0.7c-0.5,0-0.9-0.1-1.3-0.3s-0.7-0.5-0.9-1
		s-0.3-0.9-0.3-1.5c0-0.9,0.2-1.6,0.7-2c0.4-0.5,1-0.7,1.8-0.7c0.7,0,1.3,0.2,1.8,0.7S107.9,298.8,107.9,299.6z M103.8,299.6
		c0,0.7,0.1,1.2,0.4,1.6s0.7,0.5,1.2,0.5s0.9-0.2,1.2-0.5c0.3-0.4,0.4-0.9,0.4-1.6c0-0.7-0.1-1.2-0.4-1.6c-0.3-0.4-0.7-0.5-1.2-0.5
		c-0.5,0-0.9,0.2-1.2,0.5C103.9,298.4,103.8,298.9,103.8,299.6z"/>
	<path class="ft16" d="M113.7,302.3l-1-3.1c-0.1-0.2-0.2-0.6-0.3-1.3h0c-0.1,0.6-0.2,1-0.3,1.3l-1,3.1H110l-1.5-5.4h0.8
		c0.3,1.3,0.6,2.4,0.8,3.1s0.3,1.2,0.3,1.4h0c0-0.2,0.1-0.4,0.2-0.7c0.1-0.3,0.1-0.5,0.2-0.7l1-3.1h0.9l1,3.1c0.2,0.6,0.3,1,0.4,1.4
		h0c0-0.1,0-0.3,0.1-0.5s0.4-1.6,1-3.9h0.8l-1.5,5.4H113.7z"/>
	<path class="ft16" d="M121.4,301.7c0.1,0,0.3,0,0.4,0c0.1,0,0.2,0,0.3-0.1v0.6c-0.1,0-0.2,0.1-0.4,0.1c-0.2,0-0.3,0-0.5,0
		c-1,0-1.6-0.5-1.6-1.6v-3.2H119v-0.4l0.8-0.3l0.3-1.1h0.5v1.2h1.6v0.6h-1.6v3.1c0,0.3,0.1,0.6,0.2,0.7S121.1,301.7,121.4,301.7z"/>
	<path class="ft16" d="M126.9,302.3v-3.5c0-0.4-0.1-0.8-0.3-1s-0.5-0.3-0.9-0.3c-0.6,0-1,0.2-1.2,0.5c-0.3,0.3-0.4,0.8-0.4,1.5v2.8
		h-0.8v-7.6h0.8v2.3c0,0.3,0,0.5,0,0.7h0c0.2-0.3,0.4-0.5,0.7-0.6c0.3-0.1,0.6-0.2,1-0.2c0.7,0,1.1,0.2,1.5,0.5
		c0.3,0.3,0.5,0.8,0.5,1.5v3.5H126.9z"/>
	<path class="ft16" d="M131.6,302.4c-0.8,0-1.4-0.2-1.9-0.7s-0.7-1.2-0.7-2c0-0.9,0.2-1.5,0.6-2.1s1-0.8,1.7-0.8
		c0.7,0,1.2,0.2,1.6,0.7c0.4,0.4,0.6,1,0.6,1.7v0.5h-3.7c0,0.6,0.2,1.1,0.5,1.4s0.7,0.5,1.3,0.5c0.6,0,1.1-0.1,1.7-0.4v0.7
		c-0.3,0.1-0.6,0.2-0.8,0.3C132.3,302.4,132,302.4,131.6,302.4z M131.4,297.5c-0.4,0-0.8,0.1-1,0.4c-0.3,0.3-0.4,0.7-0.5,1.2h2.8
		c0-0.5-0.1-0.9-0.3-1.2C132.1,297.7,131.8,297.5,131.4,297.5z"/>
	<path class="ft16" d="M139.3,301.7c0.1,0,0.3,0,0.4,0c0.1,0,0.2,0,0.3-0.1v0.6c-0.1,0-0.2,0.1-0.4,0.1c-0.2,0-0.3,0-0.5,0
		c-1,0-1.6-0.5-1.6-1.6v-3.2h-0.8v-0.4l0.8-0.3l0.3-1.1h0.5v1.2h1.6v0.6h-1.6v3.1c0,0.3,0.1,0.6,0.2,0.7S139,301.7,139.3,301.7z"/>
	<path class="ft16" d="M145.7,299.6c0,0.9-0.2,1.6-0.7,2c-0.4,0.5-1,0.7-1.8,0.7c-0.5,0-0.9-0.1-1.3-0.3s-0.7-0.5-0.9-1
		s-0.3-0.9-0.3-1.5c0-0.9,0.2-1.6,0.7-2c0.4-0.5,1-0.7,1.8-0.7c0.7,0,1.3,0.2,1.8,0.7S145.7,298.8,145.7,299.6z M141.6,299.6
		c0,0.7,0.1,1.2,0.4,1.6s0.7,0.5,1.2,0.5s0.9-0.2,1.2-0.5c0.3-0.4,0.4-0.9,0.4-1.6c0-0.7-0.1-1.2-0.4-1.6c-0.3-0.4-0.7-0.5-1.2-0.5
		c-0.5,0-0.9,0.2-1.2,0.5C141.8,298.4,141.6,298.9,141.6,299.6z"/>
	<path class="ft16" d="M149.6,302.4c-0.3,0-0.7-0.1-1-0.2c-0.3-0.1-0.5-0.3-0.7-0.6h-0.1c0,0.3,0.1,0.6,0.1,0.9v2.2h-0.8v-7.8h0.7
		l0.1,0.7h0c0.2-0.3,0.5-0.5,0.7-0.6c0.3-0.1,0.6-0.2,1-0.2c0.7,0,1.3,0.2,1.6,0.7c0.4,0.5,0.6,1.2,0.6,2c0,0.9-0.2,1.6-0.6,2
		C150.8,302.2,150.3,302.4,149.6,302.4z M149.5,297.5c-0.5,0-0.9,0.2-1.2,0.5s-0.4,0.8-0.4,1.4v0.2c0,0.8,0.1,1.3,0.4,1.6
		c0.3,0.3,0.7,0.5,1.2,0.5c0.5,0,0.8-0.2,1.1-0.6s0.4-0.9,0.4-1.5c0-0.7-0.1-1.2-0.4-1.5S150,297.5,149.5,297.5z"/>
	<path class="ft16" d="M153.2,295.5c0-0.2,0-0.3,0.1-0.4c0.1-0.1,0.2-0.1,0.3-0.1c0.1,0,0.2,0,0.3,0.1s0.1,0.2,0.1,0.4
		c0,0.2,0,0.3-0.1,0.4c-0.1,0.1-0.2,0.1-0.3,0.1c-0.1,0-0.3,0-0.3-0.1C153.2,295.8,153.2,295.7,153.2,295.5z M154.1,302.3h-0.8v-5.4
		h0.8V302.3z"/>
	<path class="ft16" d="M157.9,302.4c-0.8,0-1.4-0.2-1.8-0.7c-0.4-0.5-0.6-1.2-0.6-2c0-0.9,0.2-1.6,0.6-2.1s1-0.7,1.8-0.7
		c0.3,0,0.5,0,0.8,0.1c0.3,0.1,0.5,0.1,0.6,0.2l-0.2,0.7c-0.2-0.1-0.4-0.1-0.6-0.2c-0.2,0-0.4-0.1-0.6-0.1c-1.1,0-1.6,0.7-1.6,2.1
		c0,0.7,0.1,1.2,0.4,1.5s0.7,0.5,1.2,0.5c0.4,0,0.9-0.1,1.4-0.3v0.7C158.9,302.3,158.5,302.4,157.9,302.4z"/>
	<path class="ft16" d="M164,300.8c0,0.5-0.2,0.9-0.6,1.2s-0.9,0.4-1.6,0.4c-0.7,0-1.3-0.1-1.7-0.3v-0.8c0.3,0.1,0.5,0.2,0.8,0.3
		s0.6,0.1,0.9,0.1c0.4,0,0.7-0.1,1-0.2c0.2-0.1,0.3-0.3,0.3-0.6c0-0.2-0.1-0.4-0.3-0.5c-0.2-0.1-0.5-0.3-1.1-0.5
		c-0.5-0.2-0.9-0.3-1.1-0.5c-0.2-0.1-0.4-0.3-0.5-0.5s-0.2-0.4-0.2-0.6c0-0.4,0.2-0.8,0.5-1c0.4-0.3,0.8-0.4,1.5-0.4
		c0.6,0,1.1,0.1,1.7,0.4l-0.3,0.7c-0.5-0.2-1-0.3-1.5-0.3c-0.4,0-0.7,0.1-0.9,0.2c-0.2,0.1-0.3,0.3-0.3,0.5c0,0.1,0,0.3,0.1,0.4
		c0.1,0.1,0.2,0.2,0.4,0.3c0.2,0.1,0.5,0.2,0.9,0.4c0.6,0.2,1.1,0.5,1.3,0.7S164,300.5,164,300.8z"/>
	<path class="ft16" d="M92.3,310.5c0-0.2,0-0.3,0.1-0.4c0.1-0.1,0.2-0.1,0.3-0.1c0.1,0,0.2,0,0.3,0.1s0.1,0.2,0.1,0.4s0,0.3-0.1,0.4
		c-0.1,0.1-0.2,0.1-0.3,0.1c-0.1,0-0.3,0-0.3-0.1C92.3,310.8,92.3,310.7,92.3,310.5z M93.2,317.3h-0.8v-5.4h0.8V317.3z"/>
	<path class="ft16" d="M98.5,317.3v-3.5c0-0.4-0.1-0.8-0.3-1s-0.5-0.3-0.9-0.3c-0.6,0-1,0.2-1.2,0.5s-0.4,0.8-0.4,1.5v2.8h-0.8v-5.4
		h0.7l0.1,0.7h0c0.2-0.3,0.4-0.5,0.7-0.6c0.3-0.1,0.6-0.2,1-0.2c0.6,0,1.1,0.2,1.5,0.5c0.3,0.3,0.5,0.8,0.5,1.5v3.5H98.5z"/>
	<path class="ft16" d="M105.9,317.4c-0.8,0-1.4-0.2-1.9-0.7s-0.7-1.2-0.7-2c0-0.9,0.2-1.5,0.6-2.1s1-0.8,1.7-0.8
		c0.7,0,1.2,0.2,1.6,0.7c0.4,0.4,0.6,1,0.6,1.7v0.5h-3.7c0,0.6,0.2,1.1,0.5,1.4s0.7,0.5,1.3,0.5c0.6,0,1.1-0.1,1.7-0.4v0.7
		c-0.3,0.1-0.6,0.2-0.8,0.3C106.5,317.4,106.2,317.4,105.9,317.4z M105.6,312.5c-0.4,0-0.8,0.1-1,0.4s-0.4,0.7-0.5,1.2h2.8
		c0-0.5-0.1-0.9-0.3-1.2C106.4,312.7,106.1,312.5,105.6,312.5z"/>
	<path class="ft16" d="M112.5,317.3l-0.2-0.8h0c-0.3,0.3-0.5,0.6-0.8,0.7c-0.3,0.1-0.6,0.2-1,0.2c-0.5,0-0.9-0.1-1.2-0.4
		s-0.5-0.7-0.5-1.2c0-1.1,0.9-1.6,2.6-1.7l0.9,0v-0.3c0-0.4-0.1-0.7-0.3-0.9c-0.2-0.2-0.5-0.3-0.9-0.3c-0.4,0-1,0.1-1.5,0.4
		l-0.2-0.6c0.3-0.1,0.6-0.3,0.9-0.3s0.6-0.1,0.9-0.1c0.6,0,1.1,0.1,1.4,0.4s0.5,0.7,0.5,1.4v3.7H112.5z M110.7,316.7
		c0.5,0,0.9-0.1,1.2-0.4s0.4-0.7,0.4-1.2v-0.5l-0.8,0c-0.6,0-1.1,0.1-1.4,0.3c-0.3,0.2-0.4,0.5-0.4,0.8c0,0.3,0.1,0.5,0.3,0.7
		S110.4,316.7,110.7,316.7z"/>
	<path class="ft16" d="M116.9,317.4c-0.8,0-1.4-0.2-1.8-0.7c-0.4-0.5-0.6-1.2-0.6-2c0-0.9,0.2-1.6,0.6-2.1s1-0.7,1.8-0.7
		c0.3,0,0.5,0,0.8,0.1s0.5,0.1,0.6,0.2l-0.2,0.7c-0.2-0.1-0.4-0.1-0.6-0.2c-0.2,0-0.4-0.1-0.6-0.1c-1.1,0-1.6,0.7-1.6,2.1
		c0,0.7,0.1,1.2,0.4,1.5s0.7,0.5,1.2,0.5c0.4,0,0.9-0.1,1.4-0.3v0.7C117.9,317.3,117.5,317.4,116.9,317.4z"/>
	<path class="ft16" d="M123.2,317.3v-3.5c0-0.4-0.1-0.8-0.3-1s-0.5-0.3-0.9-0.3c-0.6,0-1,0.2-1.2,0.5s-0.4,0.8-0.4,1.5v2.8h-0.8
		v-7.6h0.8v2.3c0,0.3,0,0.5,0,0.7h0c0.2-0.3,0.4-0.5,0.7-0.6c0.3-0.1,0.6-0.2,1-0.2c0.7,0,1.1,0.2,1.5,0.5c0.3,0.3,0.5,0.8,0.5,1.5
		v3.5H123.2z"/>
	<path class="ft16" d="M130.7,312.6h-1.4v4.7h-0.8v-4.7h-1v-0.4l1-0.3v-0.3c0-1.3,0.6-2,1.7-2c0.3,0,0.6,0.1,1,0.2l-0.2,0.6
		c-0.3-0.1-0.6-0.2-0.8-0.2c-0.3,0-0.5,0.1-0.7,0.3c-0.1,0.2-0.2,0.5-0.2,1v0.3h1.4V312.6z"/>
	<path class="ft16" d="M134.1,311.9c0.2,0,0.5,0,0.6,0.1l-0.1,0.8c-0.2,0-0.4-0.1-0.6-0.1c-0.4,0-0.8,0.2-1.1,0.5s-0.5,0.8-0.5,1.3
		v2.9h-0.8v-5.4h0.7l0.1,1h0c0.2-0.3,0.4-0.6,0.7-0.8S133.8,311.9,134.1,311.9z"/>
	<path class="ft16" d="M139,317.3l-0.2-0.8h0c-0.3,0.3-0.5,0.6-0.8,0.7c-0.3,0.1-0.6,0.2-1,0.2c-0.5,0-0.9-0.1-1.2-0.4
		s-0.5-0.7-0.5-1.2c0-1.1,0.9-1.6,2.6-1.7l0.9,0v-0.3c0-0.4-0.1-0.7-0.3-0.9c-0.2-0.2-0.5-0.3-0.9-0.3c-0.4,0-1,0.1-1.5,0.4
		l-0.2-0.6c0.3-0.1,0.6-0.3,0.9-0.3s0.6-0.1,0.9-0.1c0.6,0,1.1,0.1,1.4,0.4s0.5,0.7,0.5,1.4v3.7H139z M137.2,316.7
		c0.5,0,0.9-0.1,1.2-0.4s0.4-0.7,0.4-1.2v-0.5l-0.8,0c-0.6,0-1.1,0.1-1.4,0.3c-0.3,0.2-0.4,0.5-0.4,0.8c0,0.3,0.1,0.5,0.3,0.7
		S136.9,316.7,137.2,316.7z"/>
	<path class="ft16" d="M145.7,311.9v0.5l-1,0.1c0.1,0.1,0.2,0.3,0.2,0.4c0.1,0.2,0.1,0.4,0.1,0.6c0,0.5-0.2,0.9-0.5,1.3
		s-0.8,0.5-1.5,0.5c-0.2,0-0.3,0-0.4,0c-0.3,0.2-0.5,0.4-0.5,0.7c0,0.1,0.1,0.3,0.2,0.3c0.1,0.1,0.3,0.1,0.6,0.1h0.9
		c0.6,0,1,0.1,1.3,0.4s0.5,0.6,0.5,1.1c0,0.6-0.2,1-0.7,1.4c-0.5,0.3-1.2,0.5-2.1,0.5c-0.7,0-1.2-0.1-1.6-0.4s-0.6-0.6-0.6-1.1
		c0-0.3,0.1-0.6,0.3-0.8s0.5-0.4,0.9-0.5c-0.1-0.1-0.3-0.2-0.3-0.3s-0.1-0.3-0.1-0.5c0-0.2,0.1-0.4,0.2-0.5s0.3-0.3,0.5-0.4
		c-0.3-0.1-0.5-0.3-0.7-0.6s-0.3-0.6-0.3-0.9c0-0.6,0.2-1,0.5-1.4c0.4-0.3,0.8-0.5,1.5-0.5c0.3,0,0.5,0,0.8,0.1H145.7z M141.4,318.2
		c0,0.3,0.1,0.5,0.4,0.7s0.6,0.2,1,0.2c0.7,0,1.2-0.1,1.5-0.3c0.3-0.2,0.5-0.5,0.5-0.8c0-0.3-0.1-0.5-0.3-0.6
		c-0.2-0.1-0.5-0.2-1-0.2h-1c-0.4,0-0.7,0.1-0.9,0.3S141.4,317.9,141.4,318.2z M141.9,313.7c0,0.4,0.1,0.7,0.3,0.8s0.5,0.3,0.9,0.3
		c0.8,0,1.2-0.4,1.2-1.2c0-0.8-0.4-1.2-1.2-1.2c-0.4,0-0.7,0.1-0.9,0.3S141.9,313.3,141.9,313.7z"/>
	<path class="ft16" d="M153.6,317.3v-3.5c0-0.4-0.1-0.7-0.3-1c-0.2-0.2-0.5-0.3-0.8-0.3c-0.5,0-0.9,0.1-1.1,0.4s-0.4,0.7-0.4,1.3v3
		h-0.8v-3.5c0-0.4-0.1-0.7-0.3-1c-0.2-0.2-0.5-0.3-0.9-0.3c-0.5,0-0.9,0.2-1.1,0.5c-0.2,0.3-0.4,0.8-0.4,1.5v2.8h-0.8v-5.4h0.7
		l0.1,0.7h0c0.2-0.3,0.4-0.5,0.6-0.6s0.6-0.2,0.9-0.2c0.8,0,1.4,0.3,1.6,0.9h0c0.2-0.3,0.4-0.5,0.7-0.7s0.6-0.2,1-0.2
		c0.6,0,1.1,0.2,1.4,0.5c0.3,0.3,0.5,0.8,0.5,1.5v3.5H153.6z"/>
	<path class="ft16" d="M158.3,317.4c-0.8,0-1.4-0.2-1.9-0.7s-0.7-1.2-0.7-2c0-0.9,0.2-1.5,0.6-2.1s1-0.8,1.7-0.8
		c0.7,0,1.2,0.2,1.6,0.7c0.4,0.4,0.6,1,0.6,1.7v0.5h-3.7c0,0.6,0.2,1.1,0.5,1.4s0.7,0.5,1.3,0.5c0.6,0,1.1-0.1,1.7-0.4v0.7
		c-0.3,0.1-0.6,0.2-0.8,0.3C159,317.4,158.7,317.4,158.3,317.4z M158.1,312.5c-0.4,0-0.8,0.1-1,0.4s-0.4,0.7-0.5,1.2h2.8
		c0-0.5-0.1-0.9-0.3-1.2C158.9,312.7,158.6,312.5,158.1,312.5z"/>
	<path class="ft16" d="M165.4,317.3v-3.5c0-0.4-0.1-0.8-0.3-1s-0.5-0.3-0.9-0.3c-0.6,0-1,0.2-1.2,0.5s-0.4,0.8-0.4,1.5v2.8h-0.8
		v-5.4h0.7l0.1,0.7h0c0.2-0.3,0.4-0.5,0.7-0.6c0.3-0.1,0.6-0.2,1-0.2c0.6,0,1.1,0.2,1.5,0.5c0.3,0.3,0.5,0.8,0.5,1.5v3.5H165.4z"/>
	<path class="ft16" d="M169.6,316.7c0.1,0,0.3,0,0.4,0c0.1,0,0.2,0,0.3-0.1v0.6c-0.1,0-0.2,0.1-0.4,0.1c-0.2,0-0.3,0-0.5,0
		c-1,0-1.6-0.5-1.6-1.6v-3.2h-0.8v-0.4l0.8-0.3l0.3-1.1h0.5v1.2h1.6v0.6h-1.6v3.1c0,0.3,0.1,0.6,0.2,0.7S169.3,316.7,169.6,316.7z"
		/>
	<path class="ft16" d="M97,329.6c0,0.9-0.2,1.6-0.7,2c-0.4,0.5-1,0.7-1.8,0.7c-0.5,0-0.9-0.1-1.3-0.3s-0.7-0.5-0.9-1
		s-0.3-0.9-0.3-1.5c0-0.9,0.2-1.6,0.7-2c0.4-0.5,1-0.7,1.8-0.7c0.7,0,1.3,0.2,1.8,0.7S97,328.8,97,329.6z M92.9,329.6
		c0,0.7,0.1,1.2,0.4,1.6s0.7,0.5,1.2,0.5s0.9-0.2,1.2-0.5c0.3-0.4,0.4-0.9,0.4-1.6c0-0.7-0.1-1.2-0.4-1.5c-0.3-0.4-0.7-0.5-1.2-0.5
		c-0.5,0-0.9,0.2-1.2,0.5S92.9,328.9,92.9,329.6z"/>
	<path class="ft16" d="M100.8,327.6h-1.4v4.7h-0.8v-4.7h-1v-0.4l1-0.3v-0.3c0-1.3,0.6-2,1.7-2c0.3,0,0.6,0.1,1,0.2l-0.2,0.6
		c-0.3-0.1-0.6-0.2-0.8-0.2c-0.3,0-0.5,0.1-0.7,0.3c-0.1,0.2-0.2,0.5-0.2,1v0.3h1.4V327.6z"/>
	<path class="ft16" d="M110.1,332.3h-0.9l-3.9-6h0c0.1,0.7,0.1,1.3,0.1,1.9v4.1h-0.8v-7.1h0.9l3.9,6h0c0-0.1,0-0.4,0-0.8
		c0-0.5,0-0.8,0-1v-4.1h0.8V332.3z"/>
	<path class="ft16" d="M111.8,325.5c0-0.2,0-0.3,0.1-0.4c0.1-0.1,0.2-0.1,0.3-0.1c0.1,0,0.2,0,0.3,0.1s0.1,0.2,0.1,0.4
		s0,0.3-0.1,0.4c-0.1,0.1-0.2,0.1-0.3,0.1c-0.1,0-0.3,0-0.3-0.1C111.9,325.8,111.8,325.7,111.8,325.5z M112.7,332.3h-0.8v-5.4h0.8
		V332.3z"/>
	<path class="ft16" d="M116.7,332.4c-0.8,0-1.4-0.2-1.9-0.7s-0.7-1.2-0.7-2c0-0.9,0.2-1.5,0.6-2.1s1-0.8,1.7-0.8
		c0.7,0,1.2,0.2,1.6,0.7c0.4,0.4,0.6,1,0.6,1.7v0.5H115c0,0.6,0.2,1.1,0.5,1.4s0.7,0.5,1.3,0.5c0.6,0,1.1-0.1,1.7-0.4v0.7
		c-0.3,0.1-0.6,0.2-0.8,0.3C117.4,332.4,117.1,332.4,116.7,332.4z M116.5,327.5c-0.4,0-0.8,0.1-1,0.4s-0.4,0.7-0.5,1.2h2.8
		c0-0.5-0.1-0.9-0.3-1.2C117.2,327.7,116.9,327.5,116.5,327.5z"/>
	<path class="ft16" d="M121.8,331.7c0.1,0,0.3,0,0.4,0c0.1,0,0.2,0,0.3-0.1v0.6c-0.1,0-0.2,0.1-0.4,0.1c-0.2,0-0.3,0-0.5,0
		c-1,0-1.6-0.5-1.6-1.6v-3.2h-0.8v-0.4l0.8-0.3l0.3-1.1h0.5v1.2h1.6v0.6h-1.6v3.1c0,0.3,0.1,0.6,0.2,0.7S121.5,331.7,121.8,331.7z"
		/>
	<path class="ft16" d="M127,332.3h-3.9v-0.6l2.9-4.2h-2.7v-0.6h3.6v0.6l-2.9,4.1h3V332.3z"/>
	<path class="ft16" d="M131.7,330.8c0,0.5-0.2,0.9-0.6,1.2s-0.9,0.4-1.6,0.4c-0.7,0-1.3-0.1-1.7-0.3v-0.8c0.3,0.1,0.5,0.2,0.8,0.3
		s0.6,0.1,0.9,0.1c0.4,0,0.7-0.1,1-0.2c0.2-0.1,0.3-0.3,0.3-0.6c0-0.2-0.1-0.4-0.3-0.5c-0.2-0.1-0.5-0.3-1.1-0.5
		c-0.5-0.2-0.9-0.3-1.1-0.5c-0.2-0.1-0.4-0.3-0.5-0.5s-0.2-0.4-0.2-0.6c0-0.4,0.2-0.8,0.5-1c0.4-0.3,0.8-0.4,1.5-0.4
		c0.6,0,1.1,0.1,1.7,0.4l-0.3,0.7c-0.5-0.2-1-0.3-1.5-0.3c-0.4,0-0.7,0.1-0.9,0.2s-0.3,0.3-0.3,0.5c0,0.1,0,0.3,0.1,0.4
		s0.2,0.2,0.4,0.3s0.5,0.2,0.9,0.4c0.6,0.2,1.1,0.5,1.3,0.7S131.7,330.5,131.7,330.8z"/>
	<path class="ft16" d="M135.2,332.4c-0.8,0-1.4-0.2-1.8-0.7c-0.4-0.5-0.6-1.2-0.6-2c0-0.9,0.2-1.6,0.6-2.1s1-0.7,1.8-0.7
		c0.3,0,0.5,0,0.8,0.1s0.5,0.1,0.6,0.2l-0.2,0.7c-0.2-0.1-0.4-0.1-0.6-0.2c-0.2,0-0.4-0.1-0.6-0.1c-1.1,0-1.6,0.7-1.6,2.1
		c0,0.7,0.1,1.2,0.4,1.5s0.7,0.5,1.2,0.5c0.4,0,0.9-0.1,1.4-0.3v0.7C136.2,332.3,135.7,332.4,135.2,332.4z"/>
	<path class="ft16" d="M141.4,332.3v-3.5c0-0.4-0.1-0.8-0.3-1s-0.5-0.3-0.9-0.3c-0.6,0-1,0.2-1.2,0.5s-0.4,0.8-0.4,1.5v2.8h-0.8
		v-7.6h0.8v2.3c0,0.3,0,0.5,0,0.7h0c0.2-0.3,0.4-0.5,0.7-0.6c0.3-0.1,0.6-0.2,1-0.2c0.7,0,1.1,0.2,1.5,0.5c0.3,0.3,0.5,0.8,0.5,1.5
		v3.5H141.4z"/>
	<path class="ft16" d="M146.2,332.4c-0.8,0-1.4-0.2-1.9-0.7s-0.7-1.2-0.7-2c0-0.9,0.2-1.5,0.6-2.1s1-0.8,1.7-0.8
		c0.7,0,1.2,0.2,1.6,0.7c0.4,0.4,0.6,1,0.6,1.7v0.5h-3.7c0,0.6,0.2,1.1,0.5,1.4s0.7,0.5,1.3,0.5c0.6,0,1.1-0.1,1.7-0.4v0.7
		c-0.3,0.1-0.6,0.2-0.8,0.3C146.9,332.4,146.5,332.4,146.2,332.4z M146,327.5c-0.4,0-0.8,0.1-1,0.4s-0.4,0.7-0.5,1.2h2.8
		c0-0.5-0.1-0.9-0.3-1.2C146.7,327.7,146.4,327.5,146,327.5z"/>
	<path class="ft16" d="M150.2,325.2l0.1,0.1c-0.1,0.3-0.2,0.7-0.4,1.1c-0.2,0.4-0.3,0.8-0.5,1.2h-0.6c0.2-0.9,0.4-1.7,0.5-2.4H150.2
		z"/>
	<path class="ft16" d="M154.7,330.8c0,0.5-0.2,0.9-0.6,1.2s-0.9,0.4-1.6,0.4c-0.7,0-1.3-0.1-1.7-0.3v-0.8c0.3,0.1,0.5,0.2,0.8,0.3
		s0.6,0.1,0.9,0.1c0.4,0,0.7-0.1,1-0.2c0.2-0.1,0.3-0.3,0.3-0.6c0-0.2-0.1-0.4-0.3-0.5c-0.2-0.1-0.5-0.3-1.1-0.5
		c-0.5-0.2-0.9-0.3-1.1-0.5c-0.2-0.1-0.4-0.3-0.5-0.5s-0.2-0.4-0.2-0.6c0-0.4,0.2-0.8,0.5-1c0.4-0.3,0.8-0.4,1.5-0.4
		c0.6,0,1.1,0.1,1.7,0.4l-0.3,0.7c-0.5-0.2-1-0.3-1.5-0.3c-0.4,0-0.7,0.1-0.9,0.2s-0.3,0.3-0.3,0.5c0,0.1,0,0.3,0.1,0.4
		s0.2,0.2,0.4,0.3s0.5,0.2,0.9,0.4c0.6,0.2,1.1,0.5,1.3,0.7S154.7,330.5,154.7,330.8z"/>
	<path class="ft16" d="M160.3,331.7c0.1,0,0.3,0,0.4,0c0.1,0,0.2,0,0.3-0.1v0.6c-0.1,0-0.2,0.1-0.4,0.1c-0.2,0-0.3,0-0.5,0
		c-1,0-1.6-0.5-1.6-1.6v-3.2h-0.8v-0.4l0.8-0.3l0.3-1.1h0.5v1.2h1.6v0.6h-1.6v3.1c0,0.3,0.1,0.6,0.2,0.7S160.1,331.7,160.3,331.7z"
		/>
	<path class="ft16" d="M164.4,332.4c-0.8,0-1.4-0.2-1.9-0.7s-0.7-1.2-0.7-2c0-0.9,0.2-1.5,0.6-2.1s1-0.8,1.7-0.8
		c0.7,0,1.2,0.2,1.6,0.7c0.4,0.4,0.6,1,0.6,1.7v0.5h-3.7c0,0.6,0.2,1.1,0.5,1.4s0.7,0.5,1.3,0.5c0.6,0,1.1-0.1,1.7-0.4v0.7
		c-0.3,0.1-0.6,0.2-0.8,0.3C165.1,332.4,164.8,332.4,164.4,332.4z M164.2,327.5c-0.4,0-0.8,0.1-1,0.4s-0.4,0.7-0.5,1.2h2.8
		c0-0.5-0.1-0.9-0.3-1.2C164.9,327.7,164.6,327.5,164.2,327.5z"/>
	<path class="ft16" d="M169,329.6l-1.9-2.6h0.9l1.4,2.1l1.4-2.1h0.9l-1.9,2.6l2,2.7H171l-1.5-2.2l-1.5,2.2h-0.9L169,329.6z"/>
	<path class="ft16" d="M174.7,331.7c0.1,0,0.3,0,0.4,0c0.1,0,0.2,0,0.3-0.1v0.6c-0.1,0-0.2,0.1-0.4,0.1c-0.2,0-0.3,0-0.5,0
		c-1,0-1.6-0.5-1.6-1.6v-3.2h-0.8v-0.4l0.8-0.3l0.3-1.1h0.5v1.2h1.6v0.6h-1.6v3.1c0,0.3,0.1,0.6,0.2,0.7S174.4,331.7,174.7,331.7z"
		/>
	<path class="ft16" d="M180,330.8c0,0.5-0.2,0.9-0.6,1.2s-0.9,0.4-1.6,0.4c-0.7,0-1.3-0.1-1.7-0.3v-0.8c0.3,0.1,0.5,0.2,0.8,0.3
		s0.6,0.1,0.9,0.1c0.4,0,0.7-0.1,1-0.2c0.2-0.1,0.3-0.3,0.3-0.6c0-0.2-0.1-0.4-0.3-0.5c-0.2-0.1-0.5-0.3-1.1-0.5
		c-0.5-0.2-0.9-0.3-1.1-0.5c-0.2-0.1-0.4-0.3-0.5-0.5s-0.2-0.4-0.2-0.6c0-0.4,0.2-0.8,0.5-1c0.4-0.3,0.8-0.4,1.5-0.4
		c0.6,0,1.1,0.1,1.7,0.4l-0.3,0.7c-0.5-0.2-1-0.3-1.5-0.3c-0.4,0-0.7,0.1-0.9,0.2s-0.3,0.3-0.3,0.5c0,0.1,0,0.3,0.1,0.4
		s0.2,0.2,0.4,0.3s0.5,0.2,0.9,0.4c0.6,0.2,1.1,0.5,1.3,0.7S180,330.5,180,330.8z"/>
	<path class="ft16" d="M181.2,331.8c0-0.2,0-0.4,0.1-0.5c0.1-0.1,0.2-0.2,0.4-0.2c0.2,0,0.3,0.1,0.4,0.2c0.1,0.1,0.2,0.3,0.2,0.5
		c0,0.2-0.1,0.4-0.2,0.5s-0.3,0.2-0.4,0.2c-0.2,0-0.3-0.1-0.4-0.2C181.2,332.2,181.2,332,181.2,331.8z"/>
</g>
</svg>
